<?xml version="1.0" standalone="no"?><!DOCTYPE svg PUBLIC "-//W3C//DTD SVG 1.1//EN" "http://www.w3.org/Graphics/SVG/1.1/DTD/svg11.dtd"><svg t="1562313478682" class="icon" viewBox="0 0 1077 1024" version="1.1" xmlns="http://www.w3.org/2000/svg" p-id="2361" xmlns:xlink="http://www.w3.org/1999/xlink" width="210.3515625" height="200"><defs><style type="text/css"></style></defs><path d="M686.567021 849.7435C437.22317 961.477067 170.678034 907.180836 30.973682 743.394683c151.520888 255.626059 436.613497 347.166813 708.692959 230.497225C987.365151 867.543091 1119.889837 613.263219 1064.696147 359.880806 1049.888084 553.432661 905.846016 751.621385 686.567021 849.7435z" fill="#0068B6" p-id="2362"></path><path d="M274.932782 104.703476C36.358432 256.82267-66.550128 522.470348 45.033863 697.175577s396.078294 192.654397 634.80222 39.787321a715.423897 715.423897 0 0 0 63.121239-44.872918 33.355536 33.355536 0 0 0 0-36.646217c-8.825007-8.226702-21.090272-9.722466-70.450482 2.841951S517.695271 707.496348 472.5232 717.966696s-58.48437 14.957639-79.425066-29.915279-112.780602-259.963774-112.780602-259.963775c-20.940695-44.872918-33.20596-67.758107 35.449606-86.156003s214.642127-59.830558 253.08326-71.946246 59.830558-13.312299 74.788197 29.915279 109.639498 264.002337 119.661116 285.990067a64.467426 64.467426 0 0 0 33.505113 35.150453 32.458078 32.458078 0 0 0 28.868244-8.525855C955.654955 463.686824 995.2927 277.015483 909.884578 143.593339 798.001435-31.11189 513.656708-48.911481 274.932782 104.703476z" fill="#F28D01" p-id="2363"></path></svg>