<?xml version="1.0" standalone="no"?><!DOCTYPE svg PUBLIC "-//W3C//DTD SVG 1.1//EN" "http://www.w3.org/Graphics/SVG/1.1/DTD/svg11.dtd"><svg t="1562313582944" class="icon" viewBox="0 0 1024 1024" version="1.1" xmlns="http://www.w3.org/2000/svg" p-id="4737" xmlns:xlink="http://www.w3.org/1999/xlink" width="200" height="200"><defs><style type="text/css"></style></defs><path d="M727.3472 526.1824s135.936-9.5744 165.7344-20.48c0 0 36.7104-5.4784 17.7152-54.4256 0 0-17.7152-35.2768-31.1808-55.6544 0 0-20.48-31.1808-39.3216-43.4176 0 0-21.1968-11.008-26.3168-21.1968s-43.008-35.84-55.2448-151.4496c0 0-1.4336-32.6144-5.4784-87.04 0 0-5.4784-58.5216-58.5216-80.128 0 0-39.3216-18.944-129.024 0S352.3072 98.0992 264.0384 194.56 27.5968 475.8016 107.52 725.9136s377.7024 352 587.008 247.2448 235.2128-259.4816 235.2128-259.4816l4.5056-24.064s17.7152-79.104-70.912-79.104l-129.024-1.4336s-28.5184 232.3456-261.12 201.1648c0 0-111.5136-9.5744-168.5504-134.5536 0 0-73.3696-144.128 76.032-273.152 0 0 150.8352-100.5056 285.3376 24.4736 0 0 50.1248 41.984 60.928 99.072z" fill="#0C2693" p-id="4738"></path><path d="M406.7328 485.376h206.4896v206.4896H406.7328z" fill="#F2C300" p-id="4739"></path></svg>