<?xml version="1.0" standalone="no"?><!DOCTYPE svg PUBLIC "-//W3C//DTD SVG 1.1//EN" "http://www.w3.org/Graphics/SVG/1.1/DTD/svg11.dtd"><svg t="1562313632330" class="icon" viewBox="0 0 1024 1024" version="1.1" xmlns="http://www.w3.org/2000/svg" p-id="5007" xmlns:xlink="http://www.w3.org/1999/xlink" width="200" height="200"><defs><style type="text/css"></style></defs><path d="M382.890667 291.626667c-29.866667 27.093333-60.032 67.072-58.581334 117.589333 2.773333 98.944 75.093333 151.978667 132.266667 153.6v-104.32h106.453333V377.130667s133.546667 7.381333 197.973334 143.146666a251.306667 251.306667 0 0 0 0.256-11.264c0-132.522667-103.338667-241.664-233.6-251.050666V170.666667c178.304 9.472 320.768 157.781333 320.768 338.346666 0 180.608-142.506667 328.96-320.768 338.389334v-87.253334a250.282667 250.282667 0 0 0 126.976-45.653333c23.04-25.728 42.154667-59.434667 41.045333-99.925333-2.816-98.730667-74.837333-151.765333-131.968-153.557334v101.973334h-106.794667v83.712s-134.954667-7.466667-198.997333-145.28c-0.085333 2.517333-0.128 5.077333-0.128 7.594666 0 132.608 103.338667 241.749333 233.6 251.136v87.253334C313.088 837.973333 170.666667 689.621333 170.666667 509.056 170.666667 328.405333 313.088 180.096 491.392 170.666667v87.296a249.429333 249.429333 0 0 0-108.501333 33.706666" fill="#D20E15" p-id="5008"></path></svg>