<?xml version="1.0" standalone="no"?><!DOCTYPE svg PUBLIC "-//W3C//DTD SVG 1.1//EN" "http://www.w3.org/Graphics/SVG/1.1/DTD/svg11.dtd"><svg t="1562313657189" class="icon" viewBox="0 0 1024 1024" version="1.1" xmlns="http://www.w3.org/2000/svg" p-id="5713" xmlns:xlink="http://www.w3.org/1999/xlink" width="200" height="200"><defs><style type="text/css"></style></defs><path d="M183.031808 377.034752s129.59744-178.997248 341.32992-67.794944c0 0 108.193792-74.37312 244.465664-70.782976 15.388672 0.585728 123.600896-0.610304 160.456704 52.33664 17.874944 26.761216 16.091136 60.045312-14.833664 85.630976 0 0-146.884608-117.141504-508.432384-5.373952 0 0-52.33664-28.526592-119.566336-23.74656-63.053824 4.739072-103.419904 29.730816-103.419904 29.730816z" fill="#6eb730" p-id="5714"></path><path d="M811.206656 684.263424l113.07008-198.85056s-57.481216-138.010624-363.032576-102.551552c-272.777216 31.965184-431.14496 192.192512-431.14496 192.192512s180.340736-102.899712 410.1632-47.95392c190.6176 45.59872 270.944256 157.16352 270.944256 157.16352z" fill="" p-id="5715"></path><path d="M875.216896 814.157824l143.937536-303.312896s-73.172992-210.511872-462.143488-156.42624C209.764352 403.177472 8.16128 647.575552 8.16128 647.575552s229.574656-156.95872 522.139648-73.14432c242.661376 69.554176 344.915968 239.726592 344.915968 239.726592z" fill="#00428e" p-id="5716"></path></svg>