<?xml version="1.0" standalone="no"?><!DOCTYPE svg PUBLIC "-//W3C//DTD SVG 1.1//EN" "http://www.w3.org/Graphics/SVG/1.1/DTD/svg11.dtd"><svg t="1562313708315" class="icon" viewBox="0 0 1028 1024" version="1.1" xmlns="http://www.w3.org/2000/svg" p-id="6067" xmlns:xlink="http://www.w3.org/1999/xlink" width="200.78125" height="200"><defs><style type="text/css"></style></defs><path d="M920.853066 202.086471C831.449439 79.977685 706.34149 15.995537 554.383888 0v336.905997h-14.281729L371.720569 336.049093a31.562622 31.562622 0 0 0-36.132775 36.132776V842.622036A372.467503 372.467503 0 0 1 140.49937 473.010879C159.636887 286.491492 316.021824 149.672524 472.549579 141.389121V0.856904a511.571548 511.571548 0 0 0-471.297071 545.562064c20.137238 299.059414 268.496513 469.868898 473.724965 477.438215v-332.764296h175.522454a35.561506 35.561506 0 0 0 39.274756-39.274756V182.948954c94.116597 43.844909 199.944212 165.382427 199.944212 329.622315a364.75537 364.75537 0 0 1-76.978521 228.507671 373.895676 373.895676 0 0 1-256.499861 145.67364v137.24742A499.86053 499.86053 0 0 0 967.268686 750.504881c95.401953-190.375453 79.549233-376.466388-46.41562-548.41841zM571.664781 569.55537h-114.253835v-115.11074h114.253835z" fill="#C7000A" p-id="6068"></path></svg>