<?xml version="1.0" standalone="no"?><!DOCTYPE svg PUBLIC "-//W3C//DTD SVG 1.1//EN" "http://www.w3.org/Graphics/SVG/1.1/DTD/svg11.dtd"><svg t="1562314646971" class="icon" viewBox="0 0 1024 1024" version="1.1" xmlns="http://www.w3.org/2000/svg" p-id="6770" xmlns:xlink="http://www.w3.org/1999/xlink" width="200" height="200"><defs><style type="text/css"></style></defs><path d="M705.365333 323.413333c-122.666667 90.88-258.261333 86.4-390.826666-3.968 92.586667 121.472 95.658667 247.936 9.216 379.392 64.981333-43.093333 128.725333-64.938667 191.232-64.938666 63.317333 0 125.354667 22.4 186.154666 67.84-87.466667-130.986667-86.101333-257.152 4.224-378.325334z m5.845334-5.162666c189.44 64.128 188.501333 325.205333-5.333334 387.968-63.445333 189.653333-323.712 192.554667-387.626666 0.384-98.432-31.36-147.498667-113.621333-147.584-195.669334v-0.341333c0.042667-80.853333 47.701333-161.450667 142.592-192.853333l0.853333 1.109333c30.933333-97.194667 113.578667-145.024 196.693333-145.066667h0.384c83.84 0 168.021333 48.725333 200.021334 144.469334z" fill="#629130" p-id="6771"></path></svg>