<?xml version="1.0" standalone="no"?><!DOCTYPE svg PUBLIC "-//W3C//DTD SVG 1.1//EN" "http://www.w3.org/Graphics/SVG/1.1/DTD/svg11.dtd"><svg t="1562314688081" class="icon" viewBox="0 0 1024 1024" version="1.1" xmlns="http://www.w3.org/2000/svg" p-id="7231" xmlns:xlink="http://www.w3.org/1999/xlink" width="200" height="200"><defs><style type="text/css"></style></defs><path d="M202.5670458 488.93064102c3.54629531 45.70161416 3.29896318 89.4173748 10.93838379 131.70580312 18.58859737 102.88754209 99.4842501 151.71183896 200.00729531 123.3531668 86.52673477-24.41214844 153.56728125-79.26865576 213.04395615-143.28455274C753.00644727 464.59314161 831.74806074 304.5826294 859.75597109 120.33894658c1.25554834-8.26359697 1.45701211-16.68638672 6.8767374-25.99237705 3.05343018 16.22679785 7.21670713 32.33487656 8.99480128 48.70467862 14.6267833 134.93101641-20.90542588 260.24935078-76.59386894 380.76763974-62.30435801 134.83837969-147.01252588 253.02275068-268.26291739 341.81325088-48.64621817 35.62484678-101.43232911 63.18306211-162.64122891 69.90690322-85.47085107 9.38603584-153.30735791-32.05336817-184.29584766-112.97420332-29.08987734-75.95710137-24.77460322-153.67251006-8.54060976-231.26470224C182.42700049 557.18626396 193.14863106 523.82877998 202.5670458 488.93064102z" fill="#00539e" p-id="7232"></path><path d="M363.88257383 210.25098565c-4.23522862 14.31469424-9.31408506 28.44681328-12.56717989 42.98455634-17.9446333 80.21481416 29.75002911 132.85612354 111.48121583 123.48087978 75.58835097-8.67371924 141.2555291-41.72990713 203.00676151-83.68735956 73.99553115-50.2759125 135.976108-111.95249589 176.34793624-193.44624346 1.99484737 0.87420762 3.98609737 1.74841435 5.98094472 2.62262197-9.02448105 28.17609698-15.21858164 57.66080625-27.53393203 84.31513418-72.23632383 156.36438458-190.80293555 260.04698789-357.93841816 304.32666622-29.07998349 7.70147842-61.95089707 6.77240859-92.23426494 3.03813984-59.48207138-7.33632627-92.68395997-47.8556543-91.04707002-107.39258789C281.32394873 315.78183565 316.89932802 260.204917 363.88257383 210.25098565z" fill="#f89d19" p-id="7233"></path></svg>