<?xml version="1.0" standalone="no"?><!DOCTYPE svg PUBLIC "-//W3C//DTD SVG 1.1//EN" "http://www.w3.org/Graphics/SVG/1.1/DTD/svg11.dtd"><svg t="1562314710932" class="icon" viewBox="0 0 1024 1024" version="1.1" xmlns="http://www.w3.org/2000/svg" p-id="7517" xmlns:xlink="http://www.w3.org/1999/xlink" width="200" height="200"><defs><style type="text/css"></style></defs><path d="M647.088733 767.977412C605.527602 767.977412 553.696656 758.550866 553.696656 705.846534L553.696656 420.670921 622.874857 397.059381 622.874857 493.342666C628.988559 493.071616 644.257757 492.951148 647.088733 492.951148 726.356048 492.951148 811.255198 538.909326 811.255198 630.46428 811.255198 722.109585 726.356048 767.977412 647.088733 767.977412ZM645.673245 534.572513C626.247934 534.271345 595.167436 537.072204 595.167436 537.072204L622.874857 548.908091 622.874857 698.467927C622.874857 724.277992 645.552778 726.446399 662.207347 726.446399 736.957148 726.446399 733.734655 630.705215 733.614188 630.46428 733.734655 630.313697 737.951001 536.349401 645.673245 534.572513ZM419.375901 606.672039C482.319932 624.169877 512.406576 649.708891 512.406576 687.927061 512.406576 730.903679 468.255404 767.977412 375.224729 767.977412 336.52469 767.977412 296.710332 760.116938 276.803153 751.081909L291.89165 710.785683C312.822799 719.911061 345.740419 727.711303 379.591659 727.711303 421.514191 727.711303 436.572571 713.164907 436.572571 691.480839 436.572571 671.332726 426.905091 661.845946 381.157731 649.558307 320.954325 633.777124 282.766272 608.238111 282.766272 569.959707 282.766272 526.169936 332.217994 493.433017 411.274492 493.433017 450.606982 493.433017 479.097438 499.81777 497.950531 506.834975L482.319932 545.926532C468.917973 540.776565 443.589777 533.277492 409.678304 533.277492 367.755772 533.277492 358.540043 549.57066 358.540043 565.231376 358.540043 585.771007 370.948149 592.908679 419.375901 606.672039ZM93.482427 767.977412C51.921296 767.977412 0 758.550866 0 705.846534L0 420.670921 69.238434 397.059381 69.238434 493.342666C75.382253 493.071616 90.530984 492.951148 93.482427 492.951148 172.719626 492.951148 257.618776 538.909326 257.618776 630.46428 257.618776 722.109585 172.719626 767.977412 93.482427 767.977412ZM92.006706 534.572513C72.671745 534.271345 41.500897 537.072204 41.500897 537.072204L69.238434 548.908091 69.238434 698.467927C69.238434 724.277992 91.886239 726.446399 108.631158 726.446399 183.290609 726.446399 179.977765 630.705215 179.977765 630.46428 179.977765 630.313697 184.284462 536.349401 92.006706 534.572513Z" p-id="7518"></path><path d="M824.717391 389.198906C824.717391 352.396224 854.322167 322.701097 891.094733 322.701097 927.807064 322.701097 957.441958 352.396224 957.441958 389.198906 957.441958 425.971471 927.807064 455.787065 891.094733 455.787065 854.322167 455.787065 824.717391 425.971471 824.717391 389.198906ZM758.159348 389.198906C758.159348 462.774154 817.609835 522.405341 891.094733 522.405341 964.459163 522.405341 1023.969883 462.774154 1023.969883 389.198906 1023.969883 315.683892 964.459163 255.992471 891.094733 255.992471 817.609835 255.992471 758.159348 315.683892 758.159348 389.198906Z" p-id="7519"></path></svg>