<?xml version="1.0" standalone="no"?><!DOCTYPE svg PUBLIC "-//W3C//DTD SVG 1.1//EN" "http://www.w3.org/Graphics/SVG/1.1/DTD/svg11.dtd"><svg t="1562314813535" class="icon" viewBox="0 0 1024 1024" version="1.1" xmlns="http://www.w3.org/2000/svg" p-id="8855" xmlns:xlink="http://www.w3.org/1999/xlink" width="200" height="200"><defs><style type="text/css"></style></defs><path d="M594.0736 511.1808C508.416 422.912 423.7312 333.6192 336.384 247.04c-25.088-24.8832-31.232-39.424-2.1504-66.1504C389.3248 130.2528 441.5488 76.3904 492.9024 21.9136c15.616-16.64 23.2448-14.8992 37.632-0.3072 158.0032 159.6928 316.3136 319.0784 475.5456 477.4912 11.6224 11.52 12.3392 12.9024 12.3392 12.9024s-50.432 1.1264-68.352 1.024c-118.6816-0.768-237.2608-1.28-355.9936-1.8432" fill="#026394" p-id="8856"></path><path d="M594.0736 511.1808c118.6816 0.5632 237.312 1.0752 355.9936 1.8944 17.92 0.1024 68.352-1.024 68.352-1.024s-198.8608 193.6896-289.6384 288.1536c-62.1568 64.6656-127.0784 126.6176-189.0816 191.3856-20.992 21.9136-33.9456 22.6816-55.0912-0.1024a2545.3056 2545.3056 0 0 0-143.9232-144.9472c-30.1568-27.7504-30.7712-46.1312-0.768-75.6224 86.3744-84.8384 169.6768-172.9024 254.1568-259.7376" fill="#89ADCD" p-id="8857"></path><path d="M235.4176 511.744c-29.7472-31.0272-58.4704-63.232-89.7024-92.7744-19.0976-18.1248-24.5248-30.7712-2.4064-51.5072 41.216-38.5536 79.8208-79.9232 119.6032-120.0128 10.24-10.3424 18.9952-24.1152 35.9424-6.8096C384.9216 328.3968 471.6032 415.5904 557.6192 503.296c1.6896 1.7408-1.4848 8.2944-2.4064 12.544l-319.7952-4.096" fill="#026394" p-id="8858"></path><path d="M235.4176 511.744l319.8464 4.1472s-168.5504 175.7696-254.8736 261.5808c-8.5504 8.4992-17.8176 7.9872-26.1632 0.1024-47.4624-44.9024-95.4368-89.1904-141.568-135.4752-13.7728-13.7728 2.9696-21.8624 12.1344-31.1296 31.3856-31.8464 90.624-99.2256 90.624-99.2256" fill="#89ADCD" p-id="8859"></path><path d="M0.0512 514.9696l96.8704-98.4576c8.192-10.496 17.7664-1.4848 24.5248 5.888C149.0432 452.4032 204.5952 512 204.5952 512c-63.232 1.024-141.312 1.9968-204.544 2.9696" fill="#026394" p-id="8860"></path><path d="M0.0512 514.9696c63.232-0.9728 141.312-1.9456 204.544-2.9696 0 0-53.8112 56.3712-79.1552 85.9648-9.0624 10.496-22.4256 14.4896-28.8768 3.6864L0.0512 514.9696z" fill="#89ADCD" p-id="8861"></path></svg>