<?xml version="1.0" standalone="no"?><!DOCTYPE svg PUBLIC "-//W3C//DTD SVG 1.1//EN" "http://www.w3.org/Graphics/SVG/1.1/DTD/svg11.dtd"><svg t="1562314882788" class="icon" viewBox="0 0 1024 1024" version="1.1" xmlns="http://www.w3.org/2000/svg" p-id="10791" xmlns:xlink="http://www.w3.org/1999/xlink" width="200" height="200"><defs><style type="text/css"></style></defs><path d="M897.435569 507.914454c0-98.671178-133.776686-178.69262-298.698688-178.69262-131.986925 0-244.055215 51.326941-283.46372 122.425161l0-0.075725c-3.633757 6.589062-5.668087 13.780851-5.668087 21.3134 0 17.661224 11.184726 33.454916 28.657661 43.667502l151.401071 87.438357c7.833401 4.331651 17.152641 6.817259 27.227081 6.817259 10.147094 0 19.468381-2.485608 27.281316-6.77735l143.645441-82.961397c9.69684-5.608736 15.814158-14.352878 15.814158-24.123396 0-9.525948-5.778604-17.922167-14.987328-23.608674l-53.360248-30.881304-118.393339 68.267758-89.51055-51.661562c34.568272-31.178062 99.054918-52.077024 172.86592-52.077024 110.334811 0 199.845361 46.807002 199.845361 104.562346-2.373045 89.544319-133.665145 158.833336-293.162607 154.690997-159.628444-4.181225-287.003333-80.248615-284.687593-169.706977l-0.057305 0c1.150195-118.093511 155.977291-212.384943 345.692954-210.54197 16.927514 0.228197 33.516314 1.093913 49.727515 2.748598-38.974624-14.346739-87.589807-22.89543-140.556082-22.89543-42.212362 0-81.789713 5.46138-115.851449 14.988351l0 0c-137.298902 37.658654-233.494705 125.209575-233.494705 227.082675 0 136.40965 172.301056 247.044289 384.894752 247.044289 212.537415 0 384.895776-110.634639 384.895776-247.044289L897.435569 507.913431 897.435569 507.914454z" p-id="10792"></path></svg>