<?xml version="1.0" standalone="no"?><!DOCTYPE svg PUBLIC "-//W3C//DTD SVG 1.1//EN" "http://www.w3.org/Graphics/SVG/1.1/DTD/svg11.dtd"><svg t="1562314894053" class="icon" viewBox="0 0 1024 1024" version="1.1" xmlns="http://www.w3.org/2000/svg" p-id="11553" xmlns:xlink="http://www.w3.org/1999/xlink" width="200" height="200"><defs><style type="text/css"></style></defs><path d="M603.7 341.9v543.9c26.6-6.8 51.8-15.7 76.3-27.9V235.6c-8.2 3.4-23.9 10.9-36.8 21.1-25.9 20.5-39.5 47-39.5 85.2z m-222.9-85.2c-12.9-10.2-28.6-17.7-36.8-21.1v622.2c23.9 11.6 49.8 21.1 76.3 27.9V341.9c0-38.2-13.6-64.7-39.5-85.2z m0 0" fill="#D6000F" p-id="11554"></path><path d="M664.3 160.6c-46.3-20.4-98.1-31.3-152-31.3-53.8 0-105 10.9-151.3 30.7-7.5 4.1-17 10.9-17 22.5 0 20.4 27.9 15.7 63.4 44.3 32.7 25.9 49.8 62.7 49.8 103.6v562.3c18.4 2.7 36.8 4.1 55.2 4.1 19.1 0 37.5-1.4 55.2-4.1V330.3c0-40.9 17-77.7 49.8-103.6 35.4-27.9 63.4-23.9 63.4-44.3-0.1-10.9-9.7-18.4-16.5-21.8z m0 0" fill="#D6000F" p-id="11555"></path><path d="M512.3 923.9c-226.9 0-411.6-184-411.6-411.6 0-227.6 184-411.6 411.6-411.6 226.9 0 411.6 184 411.6 411.6 0.1 227.6-184.6 411.6-411.6 411.6z m0-859.4c-248 0-449.1 200.4-449.1 448.5s201.1 448.5 448.4 448.5c248.1 0 448.5-201.1 448.5-448.5 0.7-248.1-200.4-448.5-447.8-448.5z m0 0" fill="#D6000F" p-id="11556"></path><path d="M128.6 513c0 136.3 70.9 256.3 178.6 323.7V543c-43.6 1.4-60 27.3-64.7 38.2-4.1 8.2-6.8 17-14.3 17-12.9 0-23.2-36.8-23.2-81.8s10.2-81.8 23.2-81.8c7.5 0 10.2 8.9 14.3 17 4.8 10.2 21.1 36.8 64.7 37.5V188.6C199.5 256.7 128.6 376.7 128.6 513z m704.7 68.1c-4.1 8.2-6.8 17-14.3 17-12.9 0-23.2-36.8-23.2-81.8s10.2-81.8 23.2-81.8c7.5 0 10.2 8.9 14.3 17 4.8 10.2 20.4 35.4 62 37.5-7.5-126.8-76.3-236.5-177.2-300.6v648.1C817 774 885.1 666.3 895.4 543c-42.3 2.7-57.3 27.9-62.1 38.1z m0 0" fill="#D6000F" p-id="11557"></path></svg>