<?xml version="1.0" standalone="no"?><!DOCTYPE svg PUBLIC "-//W3C//DTD SVG 1.1//EN" "http://www.w3.org/Graphics/SVG/1.1/DTD/svg11.dtd"><svg t="1562314907124" class="icon" viewBox="0 0 1024 1024" version="1.1" xmlns="http://www.w3.org/2000/svg" p-id="12308" xmlns:xlink="http://www.w3.org/1999/xlink" width="200" height="200"><defs><style type="text/css"></style></defs><path d="M946.432 494.336h-157.44l6.9632 17.9968h150.8864v-17.9712h-0.4096zM229.376 688.2048h240.7936l-122.88-297.728-117.9392 297.728z m531.6096-259.7888h177.8176l-1.7152-7.936-1.6896-7.4752-0.5888-2.56h-181.8624l8.0384 17.9968zM476.16 688.1792h240.8704l-122.9312-297.728-117.9392 297.728z" fill="#A61F23" p-id="12309"></path><path d="M868.864 682.2144l-93.9264 136.8576H261.3248l-100.9408-125.8752L382.208 120.6528l125.9264 299.776 119.936-302.7712 114.8672 268.8h185.344c-53.9904-178.688-219.8528-308.7872-416.128-308.7872-240.0256 0-434.6368 194.6112-434.6368 434.688 0 240.0256 194.5856 434.6368 434.6368 434.6368 187.776 0 347.6992-119.04 408.4992-285.7728H859.904l8.96 20.992z" fill="#A61F23" p-id="12310"></path><path d="M805.9392 536.32l8.0128 17.9968h130.8672l1.9968-17.9968h-140.8768z m25.9584 59.9808h106.9056l1.1008-6.5792 1.8944-11.392h-117.8624l7.9872 17.9712z m-53.9392-125.952h166.8608l-0.1536-1.024-0.9728-9.4208-0.8192-7.5264h-171.9296l7.0144 17.9968z m63.9744 149.888l7.9616 17.024h78.976l5.0176-17.024h-91.9808z" fill="#A61F23" p-id="12311"></path></svg>