<?xml version="1.0" standalone="no"?><!DOCTYPE svg PUBLIC "-//W3C//DTD SVG 1.1//EN" "http://www.w3.org/Graphics/SVG/1.1/DTD/svg11.dtd"><svg t="1562314917165" class="icon" viewBox="0 0 1024 1024" version="1.1" xmlns="http://www.w3.org/2000/svg" p-id="12807" xmlns:xlink="http://www.w3.org/1999/xlink" width="200" height="200"><defs><style type="text/css"></style></defs><path d="M859.91424 364.99456c-54.03648-236.29824-603.86304-270.19264-686.09024-35.30752C131.59424 437.36064 288.9728 560.8448 402.29888 559.31904c23.58272-0.31744 61.27616-13.16864 97.05472-4.98688l200.04864 105.76896-200.27392 116.8384-218.83904-123.58656 100.54656-58.84928C216.95488 577.4336-17.05984 487.94624 14.1312 335.57504 53.32992 144.11776 371.73248 124.80512 526.97088 135.4752c155.24864 10.68032 411.41248 48.05632 486.71744 229.51936H859.91424zM504.9344 715.81696l104.15104-54.87616-101.07904-54.87616-99.56352 54.87616 96.49152 54.87616z m-3.04128 141.13792s415.03744-14.62272 344.58624-241.73568c0 0-84.23424-152.4224-367.57504-149.38112l-174.60224-97.54624 209.82784-118.89664 222.07488 123.47392-99.55328 60.95872s246.5792 27.4432 336.9472 141.75232c0 0 136.00768 193.88416-181.02272 292.9664 0 0-613.85728 149.08416-782.336-190.83264l143.9744-4.57728s111.7696 209.74592 347.67872 183.81824z m7.63904-543.5392l-94.95552 60.96896 99.55328 50.29888 94.95552-57.91744-99.55328-53.3504z" fill="#362E2B" p-id="12808"></path></svg>