<?xml version="1.0" standalone="no"?><!DOCTYPE svg PUBLIC "-//W3C//DTD SVG 1.1//EN" "http://www.w3.org/Graphics/SVG/1.1/DTD/svg11.dtd"><svg t="1562314992467" class="icon" viewBox="0 0 1024 1024" version="1.1" xmlns="http://www.w3.org/2000/svg" p-id="15407" xmlns:xlink="http://www.w3.org/1999/xlink" width="200" height="200"><defs><style type="text/css"></style></defs><path d="M182.6816 458.17344c22.02112 0 44.05248 0 66.08896-0.01024 41.8304-27.40224 74.99264-63.8976 106.74176-101.88288 38.20032-32.13312 75.26912-65.35168 102.63552-107.79648l-0.16896-65.6128c-30.41792-35.39968-60.84608-70.79936-91.25376-106.19904-27.34592 5.03808-34.31936 29.65504-44.08832 49.34144-34.65216 69.9136-21.63712 138.56768 9.63584 205.91616-89.46688-39.58272-175.84128-45.32736-255.4112 23.36256 29.4912 40.22784 64.64512 74.65472 105.82016 102.88128zM565.9648 182.86592l-0.16896 65.6128c27.09504 42.11712 63.83104 75.06432 101.70368 106.93632 32.16384 38.1696 65.47456 75.15648 107.72992 102.7584l66.0224-0.02048c41.18528-28.19584 76.32384-62.62784 105.83552-102.8608-79.47776-68.5056-165.71904-63.16032-255.11424-23.33696 6.38976-16.02048 13.4912-31.77984 19.03104-48.08704 26.98752-79.67232 5.2224-162.85696-53.77024-207.18592-30.41792 35.39968-60.8512 70.79936-91.26912 106.18368zM155.84256 563.85024c7.28576-34.6624 7.28576-69.31456-0.16896-103.95136-39.37792-20.91008-54.49216-72.22784-102.77888-81.96096-63.59552 89.28768-63.87712 178.60608-0.04608 267.91936 48.31232-9.7792 63.96416-60.56448 102.99392-82.00704zM459.93984 156.02176c34.69312 7.71584 69.38112 7.78752 104.05888 0 20.61824-39.60832 72.87296-54.144 81.64352-103.12192-89.10848-63.01696-178.21696-63.05792-267.32544 0.01024 8.75008 48.99328 61.02016 63.51872 81.62304 103.11168zM971.04384 377.93792c-48.28672 9.73312-63.4112 61.04064-102.76864 81.9712-7.53664 34.62656-7.46496 69.27872-0.16896 103.94112 39.2448 21.1456 54.40512 72.55552 102.97344 81.9712 63.89248-89.30304 63.50336-178.60608-0.03584-267.88352zM458.01984 840.8576c0.01024-21.84192 0.01024-43.66848 0.0256-65.5104-27.264-42.47552-64.0512-75.83744-102.6816-107.43296-31.80544-38.04672-65.18272-74.42944-106.90048-102.08256-21.84704 0-43.66848 0.01024-65.51552 0.02048-41.50784 27.84256-76.40064 62.55104-106.1376 102.5792 79.24224 68.78208 165.30944 63.96928 254.6944 23.65952-6.25664 16.02048-13.13792 31.82592-18.64704 48.09728-26.91072 79.50848-4.98176 163.21024 53.8624 206.93504l91.29984-106.2656zM840.95488 565.90336c-21.83168-0.03072-43.648-0.06656-65.47456-0.09216-31.48288 27.0592-62.98624 54.1184-94.47936 81.1776-4.39808 7.13728-8.8064 14.26432-13.20448 21.38624-38.19008 31.60576-74.60864 64.90624-101.85728 106.94656l-0.02048 65.54624c30.4384 35.42016 60.87168 70.83008 91.29984 106.25536 27.47904-4.8128 34.28352-29.54752 44.06272-49.16224 34.75456-69.71904 21.26336-138.29632-9.08288-205.66528 89.42592 39.64416 175.6672 45.17888 254.92992-23.8592-29.68064-40.08448-64.67072-74.68032-106.17344-102.53312zM563.968 867.85024a244.95104 244.95104 0 0 0-104.00256 0c-20.91008 39.41376-72.82688 54.18496-81.85856 103.04 89.25184 63.3088 178.46784 63.3088 267.71968 0-9.03168-48.85504-60.94848-63.62624-81.85856-103.04z" fill="#9C1F2C" p-id="15408"></path><path d="M748.19072 459.76064c-30.51008-27.0848-61.01504-54.17472-91.51488-81.26976l-92.67712-102.64576c-34.69312-7.35232-69.39136-7.3984-104.08448 0.01024L367.3344 378.44992c-30.54592 27.11552-61.09184 54.2208-91.62752 81.33632-7.69536 34.71872-7.59808 69.44768-0.13312 104.192a350835.7632 350835.7632 0 0 0 102.87104 92.94336c27.15136 30.35136 54.31296 60.68736 81.47456 91.03872 34.71872 7.55712 69.43744 7.71584 104.13568-0.1024 27.136-30.3616 54.29248-60.71296 81.43872-91.06432 11.4688-8.15616 22.94784-16.32768 34.43712-24.48384 22.8352-22.79424 45.68576-45.57312 68.52608-68.35712 7.28576-34.74432 7.53664-69.47328-0.26624-104.192z m-347.28448 167.808c30.12608-75.65312 32.2816-151.35232 0.384-227.10784 72.17152 38.23616 147.1232 20.35712 221.66528 11.03872-35.4816 71.296-31.38048 141.7216 4.73088 211.42016-76.13952-25.65632-152.04864-38.9888-226.78016 4.64896z" fill="#9C202D" p-id="15409"></path></svg>