<?xml version="1.0" standalone="no"?><!DOCTYPE svg PUBLIC "-//W3C//DTD SVG 1.1//EN" "http://www.w3.org/Graphics/SVG/1.1/DTD/svg11.dtd"><svg t="1562315037595" class="icon" viewBox="0 0 2877 1024" version="1.1" xmlns="http://www.w3.org/2000/svg" p-id="16426" xmlns:xlink="http://www.w3.org/1999/xlink" width="561.9140625" height="200"><defs><style type="text/css"></style></defs><path d="M2249.062102 1023.279634c-4.046055 0.476242-8.164146 0.720366-12.32626 0.720366-0.600305 0-1.160589 0-1.760894-0.04002a203.703443 203.703443 0 0 0 14.087154-0.680346z" fill="#009944" opacity=".5" p-id="16427"></path><path d="M284.144292 68.114589v683.907297H114.05792c-22.091218 0-40.020323-13.170688-40.020323-29.430945V280.974682h0.560285L284.144292 68.114589z" fill="#DF2726" p-id="16428"></path><path d="M548.958768 67.554305v210.106695H74.597882L284.144292 68.114589v-0.560284z" fill="#B01E23" p-id="16429"></path><path d="M759.065463 541.915191h-210.106695V67.554305l209.54641 209.550412h0.560285z" fill="#DF2726" p-id="16430"></path><path d="M284.144292 752.021886v-210.106695h474.360886l-209.550412 209.550413v0.556282z" fill="#B01E23" p-id="16431"></path><path d="M74.597882 277.661l-0.560285 0.560284v-0.560284zM284.704577 67.554305l-0.560285 0.560284v-0.560284z" fill="#171C61" p-id="16432"></path></svg>