<?xml version="1.0" standalone="no"?><!DOCTYPE svg PUBLIC "-//W3C//DTD SVG 1.1//EN" "http://www.w3.org/Graphics/SVG/1.1/DTD/svg11.dtd"><svg t="1562315065361" class="icon" viewBox="0 0 1024 1024" version="1.1" xmlns="http://www.w3.org/2000/svg" p-id="16735" xmlns:xlink="http://www.w3.org/1999/xlink" width="200" height="200"><defs><style type="text/css"></style></defs><path d="M514.9 960.52C266.3 960.52 66 760.28 66 515.11A448 448 0 0 1 514.9 66.22c245.17 0 445.4 200.29 445.4 448.89 0 245.17-200.24 445.4-445.4 445.4zM432 162.94c-158.82 38-276.2 179.54-276.2 352.17 0 117.41 58.68 224.47 148.45 290-38-62.13-51.79-189.89-51.79-189.89C245.58 404.62 394 339 394 339c76-44.87 120.87 3.49 120.87 3.49l31.07 31c27.61 31.1 69.08 17.32 69.08 17.32 79.4-38 34.52-127.81 34.52-127.81C608.12 159.45 501.09 156 432 162.94z m145 704.35c169.23-27.61 297-176.06 297-352.18 0-113.92-55.25-217.5-138.1-283.12 79.4 162.28 31.07 300.38 31.07 300.38-44.87 148.51-158.82 169.2-158.82 169.2-79.43 20.69-107-38-107-38C480.37 636 449.27 636 449.27 636c-65.6-3.43-75.94 55.27-75.94 55.27 0 6.92-3.46 17.26-3.46 20.69 6.89 65.62 44.87 103.58 44.87 103.58 48.36 48.36 124.3 55.27 162.31 51.79zM418.21 515.11l100.14 100.15 100.12-100.15-100.12-103.57z" fill="#A30000" p-id="16736"></path></svg>