<?xml version="1.0" standalone="no"?><!DOCTYPE svg PUBLIC "-//W3C//DTD SVG 1.1//EN" "http://www.w3.org/Graphics/SVG/1.1/DTD/svg11.dtd"><svg t="1562315174860" class="icon" viewBox="0 0 1024 1024" version="1.1" xmlns="http://www.w3.org/2000/svg" p-id="18780" xmlns:xlink="http://www.w3.org/1999/xlink" width="200" height="200"><defs><style type="text/css"></style></defs><path d="M1009.627 486.231l-4.325-51.926-4.325-23.801-6.495-25.968-12.98-47.6-10.82-21.636-8.653-23.801-10.82-21.636-12.978-21.636-25.968-38.946-15.141-19.473-15.148-17.31-17.31-19.473-17.31-15.141-19.473-17.31-17.306-15.148-19.473-12.978-21.636-12.985-19.473-12.985-21.636-10.816-23.801-10.82-21.636-8.653-23.801-6.49-23.805-8.657-47.6-8.652-25.963-4.325-25.963-2.163h-51.931l-23.801 2.163-25.963 4.325-47.6 8.652-23.801 8.657-23.805 6.49-23.801 8.653-43.271 21.636-21.636 12.985-38.946 25.963-19.469 15.148-17.31 17.31-17.31 15.141-17.31 19.473-15.148 17.31-15.141 19.473-25.969 38.946-12.978 21.636-10.82 21.636L48.962 315.3l-8.657 21.636-6.49 23.801-8.653 23.801-4.325 25.968-4.332 23.801-4.325 25.963-2.163 25.963v25.963h0.001v25.968l2.163 23.801 4.325 25.963 4.332 25.963 4.325 23.801 8.653 23.801 6.49 23.801 8.657 21.636 10.816 23.805 10.82 21.636 12.978 21.636 25.968 38.942 30.289 38.946 17.31 17.31 17.31 15.148 17.31 17.31 19.469 15.141 38.946 25.969 21.636 12.978 43.271 21.636 47.604 17.31 23.801 6.49 47.6 8.657 25.963 4.325 23.801 2.163h51.931l25.963-2.163 25.963-4.325 47.6-8.657 23.805-6.49 23.801-8.653 21.636-8.657 23.801-10.816 21.636-10.82 19.473-12.978 21.636-12.985 19.473-12.985 17.306-15.141 19.473-17.31 17.31-15.148 17.31-17.31 30.289-38.946 25.968-38.942 12.978-21.636 10.82-21.636 8.653-23.805 10.82-21.636 19.474-71.401 4.325-25.963 2.163-25.963 2.163-23.801 2.163-25.968-2.163-25.963zM503.331 252.556l-21.636 21.636-19.473 21.636-8.653 12.985-8.657 10.816-17.306 25.963-6.495 15.148-6.49 12.985-10.816 30.289-6.495 30.294-2.163 15.142-2.163 15.148-2.163 32.458 4.327 391.619-30.289-10.82-28.13-12.978-51.926-30.294-23.801-19.469-43.271-43.271-19.473-23.805-17.31-25.963-15.148-25.963-6.49-15.148-6.49-12.978L142 637.692l-8.653-30.289-2.163-15.148-4.332-15.148-2.163-32.451-2.163-32.458v-21.636l4.325-38.946 4.332-19.469 8.652-38.946 6.49-17.31 6.495-19.473 17.31-34.621 8.653-15.142 10.816-17.31 21.636-30.294 12.985-12.978 10.82-15.148 15.141-12.985 12.985-10.816 15.148-12.985 30.289-21.636 51.926-25.963 34.621-12.98 36.783-10.82 58.419-6.489h49.763l56.256 8.652 25.963 6.49 51.926 21.636 23.801 10.82 23.801 15.148-19.471 2.163h-32.458l-30.289 6.49-15.148 2.163-15.148 4.325-28.126 10.82-28.126 12.978-12.983 8.657-10.82 8.653-25.963 17.31z m395.952 259.639v19.473l-4.325 38.946-4.332 19.473-4.325 17.31-4.325 19.473-6.49 17.31-6.495 17.306-6.49 17.31-8.653 17.31-19.473 32.451-8.657 15.148-10.816 15.148-12.985 12.985-12.978 15.141-25.968 23.801-12.978 12.985-30.294 21.636-15.142 8.653-34.621 17.31-15.148 8.657-17.31 6.49-19.469 4.325-17.31 4.325-19.473 4.332-17.31 4.325-19.473 2.163H524.97V633.36h190.402V501.378H516.318v-19.473l2.163-19.473 6.49-19.473 12.985-34.621 10.816-15.141 4.332-8.657 6.49-6.49 12.978-15.148 12.985-12.978 15.148-10.82 34.615-17.31 17.31-6.49 17.31-4.325 19.473-2.163 21.636-2.163h15.148l12.978 2.163 15.148 4.325 15.148 2.163 12.978 6.49 12.983 4.332 12.985 8.653 10.816 6.49 12.983 8.657 30.289 30.289 8.653 12.985 6.495 10.816 6.49 12.985 6.49 15.148 2.161 10.814 4.332 34.621 2.163 17.306v17.31z" p-id="18781"></path></svg>