<?xml version="1.0" standalone="no"?><!DOCTYPE svg PUBLIC "-//W3C//DTD SVG 1.1//EN" "http://www.w3.org/Graphics/SVG/1.1/DTD/svg11.dtd"><svg t="1562315292373" class="icon" viewBox="0 0 1024 1024" version="1.1" xmlns="http://www.w3.org/2000/svg" p-id="19331" xmlns:xlink="http://www.w3.org/1999/xlink" width="200" height="200"><defs><style type="text/css"></style></defs><path d="M549.546667 293.546667c0 20.48-17.066667 37.546667-37.546667 37.546666-20.48 0-37.546667-17.066667-37.546667-37.546666V180.906667c0-20.48 17.066667-37.546667 37.546667-37.546667 20.48 0 37.546667 17.066667 37.546667 37.546667v112.64zM447.146667 307.2c17.066667 10.24 23.893333 34.133333 13.653333 54.613333-10.24 17.066667-34.133333 23.893333-54.613333 13.653334L310.613333 320.853333c-17.066667-13.653333-23.893333-37.546667-13.653333-54.613333 10.24-17.066667 34.133333-23.893333 54.613333-13.653333L447.146667 307.2zM409.6 402.773333c17.066667-10.24 40.96-3.413333 54.613333 13.653334 10.24 17.066667 3.413333 40.96-13.653333 51.2l-95.573333 54.613333c-23.893333 13.653333-47.786667 6.826667-58.026667-10.24-10.24-17.066667-3.413333-40.96 13.653333-54.613333l98.986667-54.613334zM573.44 467.626667c-17.066667-10.24-23.893333-34.133333-13.653333-54.613334 10.24-17.066667 34.133333-23.893333 54.613333-13.653333l95.573333 54.613333c17.066667 10.24 23.893333 34.133333 13.653334 51.2-10.24 17.066667-34.133333 23.893333-54.613334 13.653334l-95.573333-51.2zM610.986667 375.466667c-17.066667 10.24-40.96 3.413333-54.613334-13.653334-10.24-20.48-3.413333-44.373333 17.066667-54.613333l95.573333-54.613333c17.066667-10.24 40.96-3.413333 54.613334 13.653333 10.24 17.066667 3.413333 40.96-13.653334 54.613333L610.986667 375.466667zM447.146667 610.986667c17.066667 10.24 23.893333 34.133333 13.653333 54.613333-10.24 17.066667-34.133333 23.893333-54.613333 13.653333l-95.573334-54.613333c-17.066667-10.24-23.893333-34.133333-13.653333-54.613333 10.24-17.066667 34.133333-23.893333 54.613333-13.653334l95.573334 54.613334zM409.6 703.146667c17.066667-10.24 40.96-3.413333 54.613333 13.653333 10.24 17.066667 3.413333 40.96-13.653333 54.613333l-95.573333 54.613334c-17.066667 10.24-40.96 3.413333-51.2-13.653334-10.24-17.066667-3.413333-40.96 13.653333-54.613333l92.16-54.613333zM471.04 785.066667c0-20.48 17.066667-37.546667 37.546667-37.546667 20.48 0 37.546667 17.066667 37.546666 37.546667v112.64c0 20.48-17.066667 37.546667-37.546666 37.546666-20.48 0-37.546667-17.066667-37.546667-37.546666V785.066667zM573.44 771.413333c-17.066667-10.24-23.893333-34.133333-13.653333-54.613333 10.24-17.066667 34.133333-23.893333 54.613333-13.653333l95.573333 54.613333c17.066667 10.24 23.893333 34.133333 13.653334 54.613333-10.24 17.066667-34.133333 23.893333-54.613334 13.653334l-95.573333-54.613334zM610.986667 675.84c-17.066667 10.24-40.96 3.413333-54.613334-13.653333-10.24-17.066667-3.413333-40.96 13.653334-54.613334l95.573333-54.613333c17.066667-10.24 40.96-3.413333 54.613333 13.653333 10.24 17.066667 3.413333 40.96-13.653333 51.2l-95.573333 58.026667z" fill="#FDD000" p-id="19332"></path></svg>