<?xml version="1.0" standalone="no"?><!DOCTYPE svg PUBLIC "-//W3C//DTD SVG 1.1//EN" "http://www.w3.org/Graphics/SVG/1.1/DTD/svg11.dtd"><svg t="1562315306798" class="icon" viewBox="0 0 1047 1024" version="1.1" xmlns="http://www.w3.org/2000/svg" p-id="19468" xmlns:xlink="http://www.w3.org/1999/xlink" width="204.4921875" height="200"><defs><style type="text/css"></style></defs><path d="M522.598479 1.260678a510.625849 510.625849 0 1 0 510.625849 510.62585 510.625849 510.625849 0 0 0-510.625849-510.62585z m0 786.221968L247.002361 511.886528l275.596118-275.596118L798.194597 511.886528z" fill="#0C763A" p-id="19469"></path><path d="M0.058027 481.674498s246.376972 359.565702 522.540452 35.034607c0 0-404.812826 174.889353-401.550494-330.913918C121.047985 185.653346-3.062465 262.105383 0.058027 481.674498zM1044.997091 542.098557S798.620118 182.674695 522.598479 507.06395c0 0 404.670985-174.889353 401.550494 330.913918 0 0.141841 123.968609-76.310196 120.848118-295.879311z" fill="#ECBB1C" p-id="19470"></path></svg>