<?xml version="1.0" standalone="no"?><!DOCTYPE svg PUBLIC "-//W3C//DTD SVG 1.1//EN" "http://www.w3.org/Graphics/SVG/1.1/DTD/svg11.dtd"><svg t="1562315329557" class="icon" viewBox="0 0 1024 1024" version="1.1" xmlns="http://www.w3.org/2000/svg" p-id="19764" xmlns:xlink="http://www.w3.org/1999/xlink" width="200" height="200"><defs><style type="text/css"></style></defs><path d="M500.8 696c-3.2 11.2-3.2 19.2-6.4 25.6-28.8 54.4-73.6 94.4-123.2 128-17.6 11.2-38.4 19.2-57.6 30.4-24 14.4-51.2 14.4-78.4 12.8H137.6c-22.4 0-28.8-4.8-28.8-28.8V568 164.8c0-30.4 1.6-32 32-32h422.4c8 0 17.6 1.6 30.4 3.2-8 11.2-14.4 17.6-19.2 24-56 62.4-115.2 123.2-169.6 185.6-52.8 60.8-94.4 131.2-118.4 208-16 49.6-22.4 102.4 4.8 152 17.6 33.6 59.2 49.6 96 38.4 32-11.2 64-27.2 96-41.6 3.2-1.6 8-1.6 17.6-6.4z" fill="#E41E26" p-id="19765"></path><path d="M539.2 312c17.6-20.8 33.6-43.2 52.8-60.8 56-56 120-97.6 198.4-113.6 36.8-8 76.8-3.2 115.2-3.2 4.8 0 9.6 8 11.2 12.8 1.6 4.8 1.6 11.2 1.6 17.6v704c1.6 17.6-6.4 24-25.6 24H462.4c-4.8 0-9.6-3.2-12.8-4.8 1.6-4.8 3.2-11.2 6.4-14.4l33.6-33.6c72-65.6 132.8-140.8 184-225.6 30.4-51.2 56-104 73.6-161.6 11.2-38.4 16-78.4 3.2-116.8-14.4-43.2-68.8-68.8-116.8-54.4-22.4 6.4-44.8 17.6-67.2 27.2-6.4 3.2-14.4 4.8-20.8 8-1.6 0-4.8-3.2-6.4-4.8z" fill="#E41E26" p-id="19766"></path><path d="M512 676.8c-4.8-3.2-9.6-4.8-12.8-9.6-48-44.8-96-89.6-142.4-136-19.2-19.2-19.2-20.8 0-38.4l132.8-128c22.4-20.8 22.4-20.8 44.8 0 46.4 43.2 91.2 88 137.6 131.2 11.2 11.2 12.8 19.2 1.6 30.4-35.2 33.6-70.4 67.2-105.6 102.4-12.8 12.8-27.2 25.6-40 38.4-4.8 3.2-11.2 6.4-16 9.6z" fill="#E41E26" p-id="19767"></path></svg>