<?xml version="1.0" standalone="no"?><!DOCTYPE svg PUBLIC "-//W3C//DTD SVG 1.1//EN" "http://www.w3.org/Graphics/SVG/1.1/DTD/svg11.dtd"><svg t="1562315405029" class="icon" viewBox="0 0 1024 1024" version="1.1" xmlns="http://www.w3.org/2000/svg" p-id="20895" xmlns:xlink="http://www.w3.org/1999/xlink" width="200" height="200"><defs><style type="text/css"></style></defs><path d="M772.11136 504.80128l1.45408 14.32064 1.45408 14.30016 1.45408 14.32064 1.45408 14.30016 1.45408 14.32064 1.45408 14.32064 1.45408 14.32064 1.45408 14.30016 1.45408 14.32064 1.45408 14.32064 1.44896 14.30016 1.45408 14.32064 1.45408 14.32064 1.45408 14.32064 1.45408 14.30016 1.45408 14.32064 1.45408 14.32064 1.45408 14.30016 1.45408 14.32064 1.45408 14.32064 1.45408 14.32064 1.42848 14.06976a563.73248 563.73248 0 0 0-34.46784-28.3904 484.99712 484.99712 0 0 0-42.368-28.64128 439.22944 439.22944 0 0 0-55.64416-28.6208 417.78176 417.78176 0 0 0-38.60992-14.32064 395.97568 395.97568 0 0 0-62.15168-14.30016 385.03424 385.03424 0 0 0-110.75584 0 400.61952 400.61952 0 0 0-62.8736 14.30016 422.6048 422.6048 0 0 0-38.64064 14.32064c-10.24 4.35712-20.39808 9.1136-30.4384 14.32064a464.34304 464.34304 0 0 0-25.43616 14.30016 476.65664 476.65664 0 0 0-22.38976 14.32064 502.27712 502.27712 0 0 0-20.07552 14.32064 522.20928 522.20928 0 0 0-18.2016 14.32064 540.6976 540.6976 0 0 0-16.35328 14.06976l1.37216-14.06976 1.39264-14.32064 1.39776-14.32064 1.39264-14.32064 1.38752-14.30016 1.39264-14.32064 1.39776-14.32064 1.38752-14.30016 1.39264-14.32064 1.39776-14.32064 1.39264-14.32064 1.38752-14.30016 1.39776-14.32064 1.39264-14.32064 1.38752-14.30016 1.39264-14.32064 1.39776-14.32064 1.39264-14.32064 1.38752-14.30016 1.39776-14.32064 1.38752-14.30016 1.39264-14.32064H6.4V1018.88h1011.2V504.7808h-245.48864z" fill="#793579" p-id="20896"></path><path d="M256.33792 504.80128l1.39776-14.32064 1.39776-14.32064 1.38752-14.30016 1.39264-14.32064 1.39776-14.32064 1.38752-14.30016 1.39264-14.32064 1.39776-14.32064 1.39264-14.32064 1.38752-14.30016 1.39776-14.32064 1.39264-14.32064 1.38752-14.30016 1.39264-14.32064 1.39776-14.32064 1.39264-14.32064 1.39264-14.30016 1.39264-14.32064 1.38752-14.30016 1.39264-14.32064 1.08544-11.1104h456.56064l1.13152 11.1104 1.45408 14.32064 1.44896 14.30016 1.4592 14.32064 1.44896 14.30016 1.45408 14.32064 1.45408 14.32064 1.45408 14.32064 1.45408 14.30016 1.45408 14.32064 1.45408 14.32064 1.45408 14.30016 1.45408 14.32064 1.45408 14.32064 1.45408 14.32064 1.45408 14.30016 1.45408 14.32064 1.45408 14.32064 1.50528 14.30016 1.45408 14.32064 1.45408 14.32064h245.48864V5.12H6.39488V504.80128h249.94304z" fill="#DE0319" p-id="20897"></path><path d="M6.4 5.12h1011.2v12.99968H6.4z" fill="#E50012" p-id="20898"></path><path d="M6.4 18.11968h1011.2v14.32064H6.4z" fill="#E30114" p-id="20899"></path><path d="M6.4 32.44032h1011.2v14.30016H6.4z" fill="#E20215" p-id="20900"></path><path d="M6.4 46.74048h1011.2v14.32064H6.4z" fill="#E00317" p-id="20901"></path><path d="M6.4 61.06112h1011.2v14.32064H6.4z" fill="#DE0319" p-id="20902"></path><path d="M6.4 75.38176h1011.2v14.30016H6.4z" fill="#DC041A" p-id="20903"></path><path d="M6.4 89.68192h1011.2v14.32064H6.4z" fill="#DB051C" p-id="20904"></path><path d="M6.4 104.00256h1011.2v14.32064H6.4z" fill="#D9061D" p-id="20905"></path><path d="M6.4 118.31808h1011.2v14.32064H6.4z" fill="#D7071F" p-id="20906"></path><path d="M6.4 132.63872h1011.2v14.30016H6.4z" fill="#D60821" p-id="20907"></path><path d="M6.4 146.93888h1011.2v14.32064H6.4z" fill="#D40822" p-id="20908"></path><path d="M6.4 161.25952h1011.2v14.32064H6.4z" fill="#D20924" p-id="20909"></path><path d="M6.4 175.58016h1011.2v14.30016H6.4z" fill="#D00A26" p-id="20910"></path><path d="M6.4 189.88032h1011.2v14.32064H6.4z" fill="#CF0B27" p-id="20911"></path><path d="M6.4 218.5216h277.84192l1.09056-11.1104H741.888l1.13152 11.1104h274.58048v-14.32064H6.4z" fill="#CD0C29" p-id="20912"></path><path d="M284.24192 218.5216H6.4v14.32064h276.44928zM744.46848 232.84224h273.13152V218.5216h-274.58048z" fill="#CB0D2A" p-id="20913"></path><path d="M745.92256 247.1424h271.67744v-14.30016h-273.13152zM282.84928 232.84224H6.4v14.30016h275.06176z" fill="#CA0D2C" p-id="20914"></path><path d="M281.46176 247.1424H6.4v14.31552h273.65888zM747.38176 261.45792h270.21824V247.1424h-271.67744z" fill="#C80E2E" p-id="20915"></path><path d="M280.05888 261.45792H6.4v14.30016h272.27136zM748.83072 275.75808h268.76928v-14.30016h-270.21824z" fill="#C60F2F" p-id="20916"></path><path d="M278.67136 275.75808H6.4v14.32064h270.86848zM750.28992 290.07872h267.31008v-14.32064h-268.76928z" fill="#C41031" p-id="20917"></path><path d="M751.73888 304.39936h265.86112v-14.32064h-267.31008zM277.26848 290.07872H6.4v14.32064h269.47072z" fill="#C31133" p-id="20918"></path><path d="M275.87072 304.39936H6.4v14.32064h268.07808zM753.19808 318.72h264.40192v-14.32064h-265.86112z" fill="#C11234" p-id="20919"></path><path d="M274.47808 318.72H6.4v14.30016h266.69056zM754.65216 333.02016h262.94784V318.72h-264.40192z" fill="#BF1336" p-id="20920"></path><path d="M756.11136 347.3408h261.48864v-14.32064h-262.94784zM273.09056 333.02016H6.4v14.32064h265.28768z" fill="#BE1337" p-id="20921"></path><path d="M271.68768 347.3408H6.4v14.32064h263.88992zM757.56032 361.66144h260.03968V347.3408h-261.48864z" fill="#BC1439" p-id="20922"></path><path d="M270.28992 361.66144H6.4v14.30016h262.5024zM759.01952 375.9616h258.58048v-14.30016h-260.03968z" fill="#BA153B" p-id="20923"></path><path d="M268.9024 375.9616H6.4v14.32064h261.10976zM760.46848 390.28224h257.13152V375.9616h-258.58048z" fill="#B8163C" p-id="20924"></path><path d="M267.50976 390.28224H6.4v14.31552h259.712zM761.92768 404.59776h255.67232v-14.31552h-257.13152z" fill="#B7173E" p-id="20925"></path><path d="M763.38176 418.9184h254.21824v-14.32064h-255.67232zM266.112 404.59776H6.4v14.32064h258.30912z" fill="#B51840" p-id="20926"></path><path d="M264.70912 418.9184H6.4v14.30016h256.9216zM764.84096 433.21856h252.75904V418.9184h-254.21824z" fill="#B31841" p-id="20927"></path><path d="M766.28992 447.5392h251.31008v-14.32064h-252.75904zM263.3216 433.21856H6.4v14.32064h255.51872z" fill="#B21943" p-id="20928"></path><path d="M261.91872 447.5392H6.4v14.32064h254.1312zM767.74912 461.85984h249.85088V447.5392h-251.31008z" fill="#B01A44" p-id="20929"></path><path d="M769.19808 476.16h248.40192v-14.30016h-249.85088zM260.5312 461.85984H6.4V476.16h252.73856z" fill="#AE1B46" p-id="20930"></path><path d="M259.13856 476.16H6.4v14.32064h251.3408zM770.65216 490.48064h246.94784V476.16h-248.40192z" fill="#AC1C48" p-id="20931"></path><path d="M772.11136 504.80128h245.48864v-14.32064h-246.94784zM257.7408 490.48064H6.4v14.32064h249.93792z" fill="#AB1D49" p-id="20932"></path><path d="M773.56032 519.12192h244.03968v-14.32064h-245.48864zM256.33792 504.80128H6.4v14.32064h248.5504z" fill="#A91D4B" p-id="20933"></path><path d="M254.9504 519.12192H6.4v14.30016h247.15776zM775.01952 533.42208h242.58048v-14.30016h-244.03968z" fill="#A71E4D" p-id="20934"></path><path d="M776.46848 547.7376h241.13152v-14.31552h-242.58048zM253.55776 533.42208H6.4v14.31552h245.76z" fill="#A61F4E" p-id="20935"></path><path d="M777.92768 562.03776h239.67232v-14.30016h-241.13152zM252.16 547.7376h-245.76v14.30016h244.37248z" fill="#A42050" p-id="20936"></path><path d="M779.38176 576.3584h238.21824v-14.32064h-239.67232zM250.77248 562.03776H6.4v14.32064h242.9696z" fill="#A22152" p-id="20937"></path><path d="M249.3696 576.3584H6.4v14.32064h241.57184zM780.84096 590.67904h236.75904v-14.32064h-238.21824z" fill="#A02253" p-id="20938"></path><path d="M247.97184 590.67904H6.4v14.32064h240.1792zM782.28992 604.99968h235.31008v-14.32064h-236.75904z" fill="#9F2355" p-id="20939"></path><path d="M246.5792 604.99968H6.4v14.30016h238.79168zM783.74912 619.29984h233.85088v-14.30016h-235.31008z" fill="#9D2356" p-id="20940"></path><path d="M785.19808 633.62048h232.40192v-14.32064h-233.85088zM245.19168 619.29984H6.4v14.32064h237.3888z" fill="#9B2458" p-id="20941"></path><path d="M786.6624 647.94112h230.9376v-14.32064h-232.40192zM243.7888 633.62048H6.4v14.32064h235.99104z" fill="#9A255A" p-id="20942"></path><path d="M242.39104 647.94112H6.4v14.30016h234.5984zM788.11136 662.24128h229.48864v-14.30016h-230.9376z" fill="#98265B" p-id="20943"></path><path d="M789.56032 676.56192h228.03968v-14.32064h-229.48864zM240.9984 662.24128H6.4v14.32064h233.21088z" fill="#96275D" p-id="20944"></path><path d="M791.01952 690.88256h226.58048v-14.32064h-228.03968zM239.61088 676.56192H6.4v14.32064h231.808z" fill="#94285F" p-id="20945"></path><path d="M792.46848 705.19808h225.13152v-14.31552h-226.58048zM460.08832 705.19808h110.75072a385.36192 385.36192 0 0 0-110.75072 0zM238.208 690.88256H6.4v14.31552h230.41024z" fill="#932860" p-id="20946"></path><path d="M793.92768 719.49824h223.67232v-14.30016h-225.13152zM236.81024 705.19808H6.4v14.30016h229.0176zM632.99072 719.49824a397.12768 397.12768 0 0 0-62.15168-14.30016H460.08832a400.68096 400.68096 0 0 0-62.87872 14.30016h235.78112z" fill="#912962" p-id="20947"></path><path d="M358.56896 733.81888h313.03168a418.16576 418.16576 0 0 0-38.60992-14.32064H397.2096a426.79296 426.79296 0 0 0-38.64064 14.32064zM235.4176 719.49824H6.4v14.32064h227.61984zM795.38176 733.81888h222.21824v-14.32064h-223.67232z" fill="#8F2A63" p-id="20948"></path><path d="M328.13056 748.13952h373.73952a441.74336 441.74336 0 0 0-30.26944-14.32064H358.56896c-10.24 4.36224-20.39808 9.1136-30.4384 14.32064zM234.01984 733.81888H6.4v14.32064h226.23232zM796.84096 748.13952h220.75904v-14.32064h-222.21824z" fill="#8E2B65" p-id="20949"></path><path d="M302.69952 762.43968h424.5504a467.4048 467.4048 0 0 0-25.37984-14.30016H328.13056a466.1248 466.1248 0 0 0-25.43104 14.30016zM798.28992 762.43968h219.31008v-14.30016h-220.75904zM232.63232 748.13952H6.4v14.30016h224.83968z" fill="#8C2C67" p-id="20950"></path><path d="M280.30976 776.76032h469.31968a493.7728 493.7728 0 0 0-22.37952-14.32064h-424.5504a478.16192 478.16192 0 0 0-22.38976 14.32064zM231.23968 762.43968H6.4v14.32064h223.44192zM799.74912 776.76032h217.85088v-14.32064h-219.31008z" fill="#8A2D68" p-id="20951"></path><path d="M260.22912 791.08096h509.3888a522.15808 522.15808 0 0 0-19.98848-14.32064H280.30976a502.4256 502.4256 0 0 0-20.08064 14.32064zM801.19808 791.08096h216.40192v-14.32064h-217.85088zM229.84192 776.76032H6.4v14.32064h222.03904z" fill="#882E6A" p-id="20952"></path><path d="M802.6624 805.4016h214.9376v-14.32064h-216.40192zM260.22912 791.08096a528.41984 528.41984 0 0 0-18.2016 14.32064h545.66912c-5.9904-4.95104-12.01152-9.728-18.07872-14.32064h-509.3888zM228.43904 791.08096H6.4v14.32064h220.65152z" fill="#872E6C" p-id="20953"></path><path d="M804.09088 819.47136a578.87744 578.87744 0 0 0-16.38912-14.06976H242.02752a547.9424 547.9424 0 0 0-16.34816 14.06976l1.37216-14.06976H6.4v14.30016h1011.2v-14.30016h-214.9376l1.42848 14.06976z" fill="#852F6D" p-id="20954"></path><path d="M6.4 819.70176h1011.2v14.32064H6.4z" fill="#83306F" p-id="20955"></path><path d="M6.4 834.0224h1011.2v14.32064H6.4z" fill="#823170" p-id="20956"></path><path d="M6.4 848.33792h1011.2v14.30016H6.4z" fill="#803272" p-id="20957"></path><path d="M6.4 862.63808h1011.2v14.32064H6.4z" fill="#7E3374" p-id="20958"></path><path d="M6.4 876.95872h1011.2v14.32064H6.4z" fill="#7C3375" p-id="20959"></path><path d="M6.4 891.27936h1011.2v14.30016H6.4z" fill="#7B3477" p-id="20960"></path><path d="M6.4 905.57952h1011.2v14.32064H6.4z" fill="#793579" p-id="20961"></path><path d="M6.4 919.90016h1011.2v14.32064H6.4z" fill="#77367A" p-id="20962"></path><path d="M6.4 934.2208h1011.2v14.30016H6.4z" fill="#76377C" p-id="20963"></path><path d="M6.4 948.52096h1011.2v14.32064H6.4z" fill="#74387D" p-id="20964"></path><path d="M6.4 962.8416h1011.2v14.32064H6.4z" fill="#72387F" p-id="20965"></path><path d="M6.4 977.16224h1011.2v14.32064H6.4z" fill="#703981" p-id="20966"></path><path d="M6.4 991.47776h1011.2v14.30016H6.4z" fill="#6F3A82" p-id="20967"></path><path d="M6.4 1005.77792h1011.2V1018.88H6.4z" fill="#6D3B84" p-id="20968"></path></svg>