<?xml version="1.0" standalone="no"?><!DOCTYPE svg PUBLIC "-//W3C//DTD SVG 1.1//EN" "http://www.w3.org/Graphics/SVG/1.1/DTD/svg11.dtd"><svg t="1562315470357" class="icon" viewBox="0 0 1024 1024" version="1.1" xmlns="http://www.w3.org/2000/svg" p-id="21730" xmlns:xlink="http://www.w3.org/1999/xlink" width="200" height="200"><defs><style type="text/css"></style></defs><path d="M865.745455 528.290909c32.581818 27.927273 60.509091 60.509091 93.090909 93.090909 18.618182 18.618182 18.618182 51.2 13.963636 69.818182-13.963636 32.581818-27.927273 60.509091-51.2 88.436364l-74.472727-74.472728-23.272728-23.272727-79.127272-69.818182-148.945455 144.290909c-41.890909 41.890909-107.054545 37.236364-148.945454 0l-172.218182-167.563636c-41.890909-41.890909-41.890909-102.4 0-144.290909l176.872727-176.872727c41.890909-41.890909 107.054545-41.890909 148.945455 0l148.945454 144.290909 69.818182-65.163637c-55.854545-93.090909-158.254545-153.6-279.272727-158.254545v-139.636364c195.490909 4.654545 363.054545 121.018182 432.872727 288.581818 13.963636 32.581818 0 60.509091-18.618182 79.127273-27.927273 27.927273-60.509091 55.854545-88.436363 83.781818-13.963636 4.654545-13.963636 13.963636 0 27.927273z m-232.727273-9.309091c4.654545-4.654545 4.654545-9.309091 4.654545-13.963636 0-4.654545 0-9.309091-4.654545-9.309091l-93.090909-93.090909c-4.654545-4.654545-9.309091-4.654545-13.963637-4.654546-4.654545 0-9.309091 0-13.963636 4.654546l-93.090909 93.090909c-4.654545 4.654545-4.654545 9.309091-4.654546 9.309091 0 4.654545 0 9.309091 4.654546 13.963636l93.090909 93.090909c4.654545 4.654545 9.309091 4.654545 13.963636 4.654546 4.654545 0 9.309091 0 13.963637-4.654546l93.090909-93.090909z m-107.054546 321.163637c107.054545 0 200.145455-46.545455 260.654546-121.018182l102.4 97.745454c-88.436364 97.745455-218.763636 162.909091-363.054546 162.909091-265.309091 0-479.418182-209.454545-479.418181-465.454545 0-242.036364 195.490909-442.181818 442.181818-465.454546v139.636364c-167.563636 18.618182-297.890909 158.254545-297.890909 325.818182 0 176.872727 148.945455 325.818182 335.127272 325.818182z" fill="#157FA8" p-id="21731"></path></svg>