<?xml version="1.0" standalone="no"?><!DOCTYPE svg PUBLIC "-//W3C//DTD SVG 1.1//EN" "http://www.w3.org/Graphics/SVG/1.1/DTD/svg11.dtd"><svg t="1562315495058" class="icon" viewBox="0 0 1024 1024" version="1.1" xmlns="http://www.w3.org/2000/svg" p-id="22228" xmlns:xlink="http://www.w3.org/1999/xlink" width="200" height="200"><defs><style type="text/css"></style></defs><path d="M747.078192 643.026148c63.185268-24.15737 105.937656-59.455698 122.675508-100.350921V481.359316c-16.737853-40.911478-59.490241-76.209807-122.675508-102.22739-22.289029-9.298017-46.447415-16.736837-72.464998-22.298172-11.149086-42.75442-27.884907-79.911945-46.472814-111.517279 46.472814 18.596034 87.358893 48.323883 118.937812 85.499696 7.446948 9.280746 13.033682 16.710422 20.456247 26.017583 1.868341 0 5.586735 1.851069 7.429676 1.851069l29.738009 13.017427c14.876624 5.578607 27.859509 13.008283 40.893191 20.447103l18.571651 11.140959c-22.299189-65.044465-63.184252-120.798024-117.088774-161.675976-55.736288-44.621744-124.508291-74.35061-200.701842-79.921089v-22.298173c70.613928-3.727538 139.376787-20.438976 200.701842-48.315755 37.192068-16.743949 72.49954-35.323727 104.09573-59.490241L780.543738 0c-9.306145 7.437804-20.430848 13.008283-33.46453 18.596034-59.455698 31.588062-128.227701 52.035166-200.701842 57.605645V0H477.613491v76.201679c-72.473125-5.570479-141.245128-26.017583-202.569167-57.605645C263.903365 13.008283 252.72888 7.437804 241.587921 0L172.841318 31.588062C204.413124 55.754576 237.885782 74.334354 275.044324 91.078303c61.324039 27.87678 130.096041 44.588218 202.569167 48.315755v22.298173c-76.200663 5.570479-146.831862 35.298329-202.569167 79.921089-53.920777 40.877952-94.781458 96.631511-117.07963 161.675976l7.421548-3.71941 24.15737-14.860369 27.87678-13.008283c13.008283-5.578607 26.017583-11.165342 39.025866-14.868496 5.570479-9.307161 11.175501-16.736837 18.59705-26.017583 31.588062-37.174797 72.474141-66.903662 118.929684-85.499696-18.578763 31.604317-35.306456 68.762859-46.455543 111.517279-26.017583 5.562352-50.175969 13.000156-72.474141 22.298172C213.701998 405.148493 170.973993 438.596768 154.245284 477.622634v66.91179c16.728709 39.03501 59.456714 74.333338 120.79904 98.490708 22.298173 9.306145 46.456559 18.596034 72.474141 24.15737 11.149086 42.75442 27.87678 79.93836 46.455543 109.658081-46.455543-18.596034-87.341622-48.332011-118.929684-85.474297-7.421549-7.445932-13.025555-16.736837-18.59705-24.183784l-9.280746-3.727538c-14.868496-5.562352-29.74512-11.123688-44.613617-18.569619L176.535329 631.877062 157.964694 620.710704c22.298173 63.210667 63.158853 118.964226 117.07963 161.71763 55.737304 44.589234 126.368504 72.474141 202.569167 79.896706v20.455231c-72.473125 5.562352-141.245128 22.290045-202.569167 50.175969-37.158542 14.869512-70.6312 35.324743-102.203006 57.622916l68.746603 33.42186c11.140959-7.405293 22.315444-12.992028 33.456403-20.438976 61.324039-31.578919 130.096041-50.174953 202.569167-55.736288v76.175264h68.763875v-76.175264c72.474141 5.562352 141.245128 24.15737 200.701842 55.736288 13.033682 7.446948 24.158386 13.033682 33.46453 20.438976l70.630184-33.42186c-31.59619-22.298173-66.903662-42.753404-104.09573-57.622916-61.324039-27.884907-130.087914-44.613617-200.701842-50.175969v-20.455231c76.193551-7.422565 144.964538-35.307472 200.701842-79.896706 53.904522-42.753404 94.789585-98.506963 117.088774-161.71763l-18.571651 11.166358-26.016567 13.009299c-14.876624 7.445932-29.74512 13.008283-44.613617 18.569619-1.842942 1.884596-5.562352 1.884596-7.429676 3.727538-7.422565 9.290905-13.009299 16.737853-20.456247 24.183784-31.578919 37.142286-72.464998 66.878263-118.937812 85.474297 18.587906-29.719722 35.324743-66.903662 46.472814-109.658081 26.017583-5.562352 50.174953-14.851225 72.463982-24.15737z m-57.595486-215.570339c20.429832 5.570479 39.025866 12.992028 57.595486 24.15737 18.59705 9.281762 33.46453 20.438976 46.472814 33.439132 18.579779 22.323572 16.712454 37.192068-3.718394 57.6219-7.421549 7.422565-16.711438 13.009299-25.992184 20.438976-5.611118 1.876468-11.174485 5.578607-16.762236 9.280745-18.569619 9.307161-37.165653 16.737853-57.595486 24.183785 3.726522-27.884907 5.562352-55.762703 5.562352-85.49868 0-27.868652-1.83583-57.605645-5.562352-83.623228zM334.509166 596.577717c-20.455231-7.445932-40.887095-14.876624-59.464842-24.183785-1.860213-1.833798-5.579623-3.702139-7.421549-5.562351-22.315444-13.008283-59.482113-37.165653-48.333027-65.036338 9.289889-22.3063 31.604317-39.032978 55.754576-50.18308 11.157214-5.578607 22.298173-11.165342 31.588062-14.868496 9.306145-3.718394 18.596034-5.578607 27.87678-9.288874a630.182449 630.182449 0 0 0-5.563368 83.623228c0.001016 29.736993 1.83583 57.614788 5.563368 85.499696z m118.946955-317.805855c11.149086-16.711438 33.439132-46.464686 57.613773-46.464687 3.710266 0 7.429676 0 11.132831 1.868341 33.463514 13.008283 53.894363 53.886235 68.76997 83.623228 3.71941 7.43882 5.578607 16.727693 9.281762 24.166513-27.86154-1.867325-57.596501-3.71941-89.184563-3.71941-29.738009 0-59.473986 1.851069-89.219106 3.71941 9.306145-20.448119 18.587906-42.746292 31.605333-63.193395z m85.474297 501.797275c-11.123688 7.421549-18.570635 11.140959-27.859509 11.140959-9.307161 0-20.448119-5.578607-31.597205-14.868497-9.281762-7.421549-14.868496-16.710422-22.324588-24.157369-14.843098-22.315444-25.992184-46.47383-35.298328-72.491413a716.611744 716.611744 0 0 0 89.219106 5.586735c31.588062 0 61.323023-1.858181 89.184563-5.586735-12.982885 37.192068-29.718706 74.333338-61.324039 100.37632z m78.060876-167.263727c-35.306456 5.563368-70.613928 7.405293-105.920385 7.405294-35.299344 0-70.6312-1.841926-105.930544-7.405294-5.578607-33.463514-9.306145-68.769971-9.306144-102.226373s3.727538-66.903662 9.306144-100.350921c35.299344-5.578607 70.6312-9.289889 105.930544-9.289889 37.174797 0 72.474141 3.710266 107.780598 9.289889 11.14807 66.894518 11.14807 135.64925-1.860213 202.577294z" p-id="22229"></path></svg>