<?xml version="1.0" standalone="no"?><!DOCTYPE svg PUBLIC "-//W3C//DTD SVG 1.1//EN" "http://www.w3.org/Graphics/SVG/1.1/DTD/svg11.dtd"><svg t="1562315551268" class="icon" viewBox="0 0 1056 1024" version="1.1" xmlns="http://www.w3.org/2000/svg" p-id="23179" xmlns:xlink="http://www.w3.org/1999/xlink" width="206.25" height="200"><defs><style type="text/css"></style></defs><path d="M903.88315906 828.55461219c35.92548-93.34430812 37.16428969-185.38786594-5.57464312-276.6261975-29.73143156-63.67481625-76.80619875-110.99734594-136.95040782-147.23252813C631.90249813 326.5889375 592.07476813 177.8078975 646.08686937 33.85821406c165.50497031 44.90685 283.56353156 144.6310275 343.27415719 305.49046313 65.96661469 177.89306719 31.96128937 341.91146625-85.4778675 489.205935zM407.058545 990.8386775c-161.60272031-43.72998094-276.50231625-140.79071812-340.17713344-296.07550875C-2.36804781 526.34699562 34.98206281 309.24560188 148.02344469 196.88556594c-7.74256031 37.16428969-21.49334719 76.31067469-23.35156219 116.20034625C118.72559656 446.13407 174.47203063 548.58362844 288.56640031 617.52338656c128.34068063 77.611425 172.99976906 222.92379844 118.49214469 373.31529094z" p-id="23180"></path><path d="M565.56424063 990.46703469c196.35133125-115.76676281 276.31649531-354.54732469 154.85120812-571.52483719 104.18389219 16.84781156 198.76701 178.07888906 181.05203156 308.6494275-22.36051406 166.61989969-163.83257812 278.97993562-335.90323969 262.87540969zM482.93563625 35.09702375C264.59543375 210.32665063 230.21846562 340.33972438 329.69488156 603.15319437c-100.83910687-10.65376312-197.46625969-179.62740094-177.70724625-309.70241531C182.89593688 89.54270844 368.15992156 15.27606969 482.93563625 35.09702375zM526.85143906 669.18174969c-10.52988187-6.6895725-21.05976469-11.21122781-28.67844375-18.58214532-37.16428969-35.92548-72.96588938-72.84200813-109.69659562-109.01525062-20.2545375-19.88289469-20.44035937-37.90757531 0.43358343-58.0382325 37.16428969-35.73965906 73.4614125-72.34648406 109.38689344-109.32495188 18.58214531-19.26349031 35.92548-21.12170438 55.746435-1.23880968 37.16428969 38.27921812 75.62932969 76.0009725 113.59884563 113.84660718 17.09557313 17.0336325 17.34333563 33.81950344 0 50.97701813-38.77474219 38.58892125-77.17784156 77.48754469-116.20034625 115.76676281a150.3914925 150.3914925 0 0 1-24.59037188 15.60900188z" p-id="23181"></path></svg>