<?xml version="1.0" standalone="no"?><!DOCTYPE svg PUBLIC "-//W3C//DTD SVG 1.1//EN" "http://www.w3.org/Graphics/SVG/1.1/DTD/svg11.dtd"><svg t="1562315572255" class="icon" viewBox="0 0 1024 1024" version="1.1" xmlns="http://www.w3.org/2000/svg" p-id="24065" xmlns:xlink="http://www.w3.org/1999/xlink" width="200" height="200"><defs><style type="text/css"></style></defs><path d="M991.81689893 714.58885849c-29.28136829 35.79761181-32.86073295 39.0908395-48.18894119 44.32741379 21.93320788-28.40838475 51.00924558-53.10228613 48.10945783-93.82251822-11.40706994 17.63717648-20.42966253 37.16471154-41.97738022 44.56321264-1.02135056-0.70739525-2.04535105-1.40684077-3.05610322-2.1129104 5.44322922-10.04261884 10.88778404-20.08523897 16.33101325-30.12785781-9.13784273 4.6576775-16.66616403 10.55395628-23.62353569 17.05827838-17.93258622 16.74432178-34.56033354 35.05180111-53.56460978 50.43962155-74.59569017 60.39480987-158.16760903 93.20387909-255.92186392 78.91689128-140.32377893-20.50782027-251.46156857-138.92753526-251.74770554-293.91186949-0.1563155-83.97728022 32.59579017-155.60297337 93.62911032-213.77624553 89.10655284-84.91120027 221.37080317-105.31039454 331.20375389-50.23296664 22.34651642 11.20306496 43.09940832 25.58808037 64.6100336 38.51988985 16.61582592-26.72732973 22.67769426-32.2023515 52.04914298-48.54396313 8.74705401-4.86300679 17.6385008-9.87438064 25.26485102-16.2528555 13.73723236-11.49714909 14.88575578-26.81608455 5.94529387-42.14561842-12.31317036-21.11718662-30.64051955-27.0028696-53.41756704-23.11219827-32.23017114 5.51211419-61.15121892-4.08805218-89.08800729-18.92611845-9.80682127-5.19815888-13.67762017-12.4403432-12.24296106-23.59306746 2.69180852-20.95027404-4.34372091-35.0610739-24.2037594-41.80251787-14.5135126-4.92394331-30.77696518-8.25426211-45.8601018-7.11368716-22.95455845 1.7380186-35.79761181-7.49917735-43.1192795-27.76060299-1.07963845-3.0163622-3.16473053-5.72804188-3.89994281-8.79474348-2.09436486-8.6874418-7.54686686-10.53408641-15.9388989-10.45592866-109.20238889 0.92199734-206.05319201 36.13143956-289.5191348 106.19529947-37.22432372 31.25915869-71.87208909 65.57177327-107.82734199 98.36229565-36.84015785 33.60654365-77.29544715 60.23716877-128.264953 67.18526765-25.92190685 3.52769964-46.26413885-9.21732609-52.61214416-34.54046368-1.41478923-5.63001296-2.2202121-11.40839425-3.71448468-19.30895873-22.13853718 26.84655281-40.36785878 53.38709878-49.62360029 85.27417066-6.48577525 22.35578919-3.607183 43.94457351 6.41689028 64.44312102 19.52488642 39.92540631 59.29397595 58.4567605 107.72798877 48.66053761 22.97442832-4.64972903 45.2215928-12.97155052 68.71663134-19.89845393-0.08743052 2.01488281-0.18678375 4.77557628-0.33515078 7.53626977-2.47455651 46.26413885-4.37286484 92.75480247 4.83518848 138.35791123 26.3153455 130.31957681 96.74350143 230.845121 209.6590494 300.67318464 86.65054318 53.58315532 181.60568659 74.41685488 282.93665494 64.44179541 45.44811758-4.47089247 90.08948799-13.58091686 129.67046944-37.95953732 49.74282467-30.62992246 90.91610634-70.78185355 121.96728579-120.07957583 13.43387414-21.33311431 21.47088426-46.05748394 31.95595555-69.24783996C994.00929269 715.54264969 992.91773285 715.0617805 991.81689893 714.58885849z" p-id="24066"></path><path d="M809.78995535 418.0249215c-72.03767737-0.27553989-144.07667904-0.25566871-216.11568202 0-27.98580346 0.09802891-46.88277797 19.23874946-47.04041778 47.26561825-0.24507164 43.86641447-0.21460338 87.74077871-0.02781833 131.60719319 0.12717155 30.06956992 18.20812611 48.07104113 48.12005623 48.17966713 35.41477152 0.11789877 70.82954305 0.01987117 106.24431456 0.02781832 35.82808006 0 71.64556302 0.19738213 107.463046-0.05828658 29.28269391-0.21592768 46.94106455-17.12848766 47.26694256-46.16478562 0.49014196-45.06660162 0.44245247-90.15042448 0.00927277-135.22497327C855.45532494 436.79207455 836.62723538 418.13222319 809.78995535 418.0249215z" p-id="24067"></path></svg>