<?xml version="1.0" standalone="no"?><!DOCTYPE svg PUBLIC "-//W3C//DTD SVG 1.1//EN" "http://www.w3.org/Graphics/SVG/1.1/DTD/svg11.dtd"><svg t="1562315721906" class="icon" viewBox="0 0 1024 1024" version="1.1" xmlns="http://www.w3.org/2000/svg" p-id="25696" xmlns:xlink="http://www.w3.org/1999/xlink" width="200" height="200"><defs><style type="text/css"></style></defs><path d="M815.36 439.381333c19.114667 59.989333 17.877333 135.296-1.066667 194.773334-34.730667 109.184-120.874667 189.013333-239.616 213.333333-65.066667 13.312-136.064 2.986667-191.445333-21.888-110.208-49.450667-200.021333-157.44-187.093333-328.234667 24.064 49.92 59.818667 90.282667 110.506666 115.968 50.517333 25.642667 127.146667 32.682667 187.093334 8.789334a231.552 231.552 0 0 0 119.253333-107.221334c23.765333-44.629333 40.96-123.306667 14.208-186.026666 7.765333 66.986667-20.650667 121.301333-54.698667 155.392a177.536 177.536 0 0 1-129.109333 51.413333c-98.986667-1.322667-180.096-78.805333-180.48-181.632-0.256-53.674667 20.138667-92.672 48.085333-123.648 31.701333-35.029333 80.64-64.597333 152.106667-59.050667 38.101333 2.901333 66.56 17.066667 90.794667 34.986667 7.082667 5.248 14.549333 15.146667 22.997333 18.602667 13.696 5.632 31.274667 7.04 44.842667 12.032 92.416 34.133333 161.92 102.698667 193.664 202.410666" fill="#DC0917" p-id="25697"></path></svg>