<?xml version="1.0" standalone="no"?><!DOCTYPE svg PUBLIC "-//W3C//DTD SVG 1.1//EN" "http://www.w3.org/Graphics/SVG/1.1/DTD/svg11.dtd"><svg t="1562315752218" class="icon" viewBox="0 0 1024 1024" version="1.1" xmlns="http://www.w3.org/2000/svg" p-id="26101" xmlns:xlink="http://www.w3.org/1999/xlink" width="200" height="200"><defs><style type="text/css"></style></defs><path d="M733.995 527.701s2.986 53.76-31.531 109.782C671.445 687.787 610.859 740.736 512 742.144c-98.901-1.408-159.445-54.357-190.464-104.661-34.56-56.022-31.53-109.782-31.53-109.782-2.006-101.674-36.694-153.813-36.694-153.813 165.675 29.44 156.672 129.408 156.672 129.408v64.043c0 57.941 59.99 53.888 59.99 53.888h84.053s59.989 4.053 59.989-53.888v-64s-9.003-99.968 156.715-129.451c0 0-34.731 52.139-36.736 153.813z m92.501-206.378s-68.565-1.28-134.187 23.381c-59.178 22.272-115.456 65.92-126.08 146.39v81.322H457.813v-81.323c-10.666-80.469-66.986-124.16-126.122-146.346C266.069 320 197.547 321.28 197.547 321.28c-22.742 0.597-28.587 16.64-26.454 28.459a25.088 25.088 0 0 0 9.174 14.25c65.066 52.864 56.49 127.232 63.744 186.966 9.301 76.928 45.056 120.064 45.056 120.064 79.36 116.693 203.264 119.338 222.976 119.04 19.712 0.298 143.616-2.347 223.018-119.04 0 0 35.712-43.094 45.014-120.064 7.253-59.734-1.323-134.102 63.744-186.966 0 0 7.552-5.461 9.13-14.25 2.134-11.776-3.669-27.862-26.453-28.459zM512.341 468.736h23.382v-45.739c8.661-70.698 57.301-110.208 104.746-128.085 47.36-17.92 93.526-14.25 93.526-14.25v24.405h49.792l-1.024-71.168h-65.067c-152.49 0-205.355 111.829-205.355 111.829h-0.682s-52.907-111.787-205.355-111.787h-65.067l-1.024 71.126h49.792V280.66s46.166-3.669 93.526 14.251c47.445 17.92 96.085 57.387 104.746 128.085v45.739h24.064z" fill="#00693E" p-id="26102"></path></svg>