<?xml version="1.0" standalone="no"?><!DOCTYPE svg PUBLIC "-//W3C//DTD SVG 1.1//EN" "http://www.w3.org/Graphics/SVG/1.1/DTD/svg11.dtd"><svg t="1562315763739" class="icon" viewBox="0 0 2560 1024" version="1.1" xmlns="http://www.w3.org/2000/svg" p-id="26605" xmlns:xlink="http://www.w3.org/1999/xlink" width="500" height="200"><defs><style type="text/css"></style></defs><path d="M153.6 432.64h46.08v46.08H153.6z" fill="#E74225" p-id="26606"></path><path d="M153.6 488.96h46.08v46.08H153.6z" fill="#E096A5" p-id="26607"></path><path d="M153.6 545.28h46.08v46.08H153.6z" fill="#E74225" p-id="26608"></path><path d="M209.92 432.64H256v46.08h-46.08z" fill="#E73E23" p-id="26609"></path><path d="M209.92 488.96H256v46.08h-46.08z" fill="#E73C22" p-id="26610"></path><path d="M209.92 545.28H256v46.08h-46.08z" fill="#E73E23" p-id="26611"></path><path d="M263.68 432.64h46.08v46.08h-46.08z" fill="#F9C053" p-id="26612"></path><path d="M263.68 488.96h46.08v46.08h-46.08z" fill="#E73E23" p-id="26613"></path><path d="M263.68 545.28h46.08v46.08h-46.08z" fill="#B50080" p-id="26614"></path><path d="M320 432.64h46.08v46.08H320z" fill="#E73E23" p-id="26615"></path><path d="M320 488.96h46.08v46.08H320z" fill="#E096A5" p-id="26616"></path><path d="M320 545.28h46.08v46.08H320z" fill="#E84426" p-id="26617"></path><path d="M545.28 432.64h46.08v46.08h-46.08z" fill="#E73C22" p-id="26618"></path><path d="M545.28 488.96h46.08v46.08h-46.08z m0 56.32h46.08v46.08h-46.08z" fill="#E74225" p-id="26619"></path><path d="M601.6 432.64h46.08v46.08H601.6z" fill="#E84A2A" p-id="26620"></path><path d="M601.6 488.96h46.08v46.08H601.6z" fill="#E74225" p-id="26621"></path><path d="M601.6 545.28h46.08v46.08H601.6z" fill="#B50080" p-id="26622"></path><path d="M655.36 432.64h46.08v46.08h-46.08z" fill="#F9C053" p-id="26623"></path><path d="M655.36 488.96h46.08v46.08h-46.08z" fill="#E73820" p-id="26624"></path><path d="M655.36 545.28h46.08v46.08h-46.08z" fill="#B50080" p-id="26625"></path><path d="M711.68 432.64h46.08v46.08h-46.08z" fill="#900000" p-id="26626"></path><path d="M711.68 488.96h46.08v46.08h-46.08z" fill="#E096A5" p-id="26627"></path><path d="M711.68 545.28h46.08v46.08h-46.08z" fill="#E7351F" p-id="26628"></path><path d="M376.32 768h46.08v46.08h-46.08z m56.32 0h46.08v46.08h-46.08z" fill="#E73E23" p-id="26629"></path><path d="M488.96 768h46.08v46.08h-46.08z" fill="#009F46" p-id="26630"></path><path d="M376.32 711.68h46.08v46.08h-46.08z" fill="#E73E23" p-id="26631"></path><path d="M432.64 711.68h46.08v46.08h-46.08z" fill="#E096A5" p-id="26632"></path><path d="M488.96 711.68h46.08v46.08h-46.08z m-112.64-53.76h46.08V704h-46.08z" fill="#E73E23" p-id="26633"></path><path d="M432.64 657.92h46.08V704h-46.08z" fill="#E7351F" p-id="26634"></path><path d="M488.96 657.92h46.08V704h-46.08z" fill="#B50080" p-id="26635"></path><path d="M376.32 601.6h46.08v46.08h-46.08z" fill="#E84D2C" p-id="26636"></path><path d="M432.64 601.6h46.08v46.08h-46.08z" fill="#900000" p-id="26637"></path><path d="M488.96 601.6h46.08v46.08h-46.08z" fill="#E84A2A" p-id="26638"></path><path d="M545.28 711.68h46.08v46.08h-46.08z m56.32 0h46.08v46.08H601.6z" fill="#E84426" p-id="26639"></path><path d="M545.28 657.92h46.08V704h-46.08z" fill="#E096A5" p-id="26640"></path><path d="M601.6 657.92h46.08V704H601.6z" fill="#E84A2A" p-id="26641"></path><path d="M655.36 657.92h46.08V704h-46.08z" fill="#F29600" p-id="26642"></path><path d="M545.28 601.6h46.08v46.08h-46.08z" fill="#E74225" p-id="26643"></path><path d="M601.6 601.6h46.08v46.08H601.6z" fill="#E73C22" p-id="26644"></path><path d="M655.36 601.6h46.08v46.08h-46.08z" fill="#E73E23" p-id="26645"></path><path d="M376.32 376.32h46.08v46.08h-46.08z" fill="#900000" p-id="26646"></path><path d="M432.64 376.32h46.08v46.08h-46.08z" fill="#E096A5" p-id="26647"></path><path d="M488.96 376.32h46.08v46.08h-46.08z" fill="#E73E23" p-id="26648"></path><path d="M376.32 320h46.08v46.08h-46.08z" fill="#E84A2A" p-id="26649"></path><path d="M432.64 320h46.08v46.08h-46.08z" fill="#900000" p-id="26650"></path><path d="M488.96 320h46.08v46.08h-46.08z" fill="#E84426" p-id="26651"></path><path d="M376.32 266.24h46.08v46.08h-46.08z" fill="#E096A5" p-id="26652"></path><path d="M432.64 266.24h46.08v46.08h-46.08z" fill="#E73E23" p-id="26653"></path><path d="M488.96 266.24h46.08v46.08h-46.08z" fill="#B50080" p-id="26654"></path><path d="M209.92 376.32H256v46.08h-46.08z" fill="#E84426" p-id="26655"></path><path d="M263.68 376.32h46.08v46.08h-46.08z" fill="#E74225" p-id="26656"></path><path d="M320 376.32h46.08v46.08H320z" fill="#E73820" p-id="26657"></path><path d="M209.92 320H256v46.08h-46.08z" fill="#E74225" p-id="26658"></path><path d="M263.68 320h46.08v46.08h-46.08z" fill="#E73E23" p-id="26659"></path><path d="M320 320h46.08v46.08H320z" fill="#B50080" p-id="26660"></path><path d="M263.68 266.24h46.08v46.08h-46.08z" fill="#E84426" p-id="26661"></path><path d="M320 266.24h46.08v46.08H320z m335.36 110.08h46.08v46.08h-46.08z" fill="#E73C22" p-id="26662"></path><path d="M655.36 320h46.08v46.08h-46.08z" fill="#E84A2A" p-id="26663"></path><path d="M601.6 376.32h46.08v46.08H601.6z" fill="#E73E23" p-id="26664"></path><path d="M601.6 320h46.08v46.08H601.6z" fill="#B50080" p-id="26665"></path><path d="M601.6 266.24h46.08v46.08H601.6z" fill="#E73C22" p-id="26666"></path><path d="M545.28 376.32h46.08v46.08h-46.08z" fill="#E096A5" p-id="26667"></path><path d="M545.28 320h46.08v46.08h-46.08z" fill="#E73E23" p-id="26668"></path><path d="M545.28 266.24h46.08v46.08h-46.08z" fill="#E84426" p-id="26669"></path><path d="M320 711.68h46.08v46.08H320z" fill="#E84A2A" p-id="26670"></path><path d="M320 657.92h46.08V704H320z" fill="#F29600" p-id="26671"></path><path d="M320 601.6h46.08v46.08H320z" fill="#E74225" p-id="26672"></path><path d="M263.68 711.68h46.08v46.08h-46.08z" fill="#E84A2A" p-id="26673"></path><path d="M263.68 657.92h46.08V704h-46.08z" fill="#900000" p-id="26674"></path><path d="M263.68 601.6h46.08v46.08h-46.08z" fill="#E7351F" p-id="26675"></path><path d="M209.92 657.92H256V704h-46.08z" fill="#E84729" p-id="26676"></path><path d="M209.92 601.6H256v46.08h-46.08z" fill="#E73C22" p-id="26677"></path><path d="M376.32 209.92h46.08V256h-46.08z" fill="#E84426" p-id="26678"></path><path d="M432.64 209.92h46.08V256h-46.08z" fill="#E84A2A" p-id="26679"></path><path d="M488.96 209.92h46.08V256h-46.08z" fill="#E73820" p-id="26680"></path><path d="M926.72 294.4h87.04v53.76c-30.72-5.12-28.16-38.4-28.16-38.4h-51.2c0 48.64 53.76 58.88 76.8 61.44V384h-84.48v25.6h302.08v-28.16h-87.04v-12.8c28.16-2.56 81.92-12.8 81.92-61.44h-51.2s2.56 35.84-30.72 38.4v-53.76h87.04v-25.6H926.72v28.16z m130.56 2.56h46.08V384h-46.08v-87.04zM936.96 560.64h240.64c10.24 0 20.48-2.56 25.6-7.68 5.12-5.12 7.68-10.24 10.24-15.36 2.56-5.12 2.56-12.8 2.56-23.04v-81.92H936.96v128z m48.64-99.84h184.32v23.04H985.6V460.8z m0 46.08h184.32v23.04H985.6v-23.04zM2219.52 268.8h179.2v30.72h-179.2z m-10.24 87.04v38.4h115.2v125.44c0 7.68 0 12.8-2.56 15.36 0 2.56-2.56 2.56-7.68 2.56h-66.56v28.16h87.04c12.8 0 20.48-2.56 25.6-5.12 5.12-2.56 10.24-7.68 12.8-12.8 2.56-5.12 5.12-15.36 5.12-25.6v-128h28.16v-38.4h-197.12z m-115.2-30.72v28.16c97.28-17.92 97.28-87.04 97.28-87.04h-46.08c-15.36 58.88-51.2 58.88-51.2 58.88z m0 84.48v25.6c12.8-2.56 25.6-5.12 35.84-10.24V563.2h43.52V394.24c17.92-23.04 17.92-46.08 17.92-46.08h-46.08c-15.36 58.88-51.2 61.44-51.2 61.44zM1712.64 394.24h25.6v38.4h-25.6v28.16h25.6v66.56c0 10.24 2.56 20.48 5.12 25.6 2.56 5.12 7.68 7.68 12.8 7.68 5.12 2.56 10.24 2.56 15.36 2.56h43.52v-20.48H1792c-5.12 0-7.68 0-10.24-2.56-2.56-2.56-2.56-5.12-2.56-10.24V460.8h38.4v-30.72h-35.84v-38.4h35.84V358.4h-104.96v35.84z m122.88-125.44v273.92c0 5.12 2.56 7.68 7.68 12.8 5.12 2.56 10.24 5.12 15.36 5.12h64v-20.48h-35.84v-128h104.96c5.12 0 10.24-2.56 15.36-7.68 5.12-5.12 7.68-7.68 10.24-12.8 2.56-5.12 2.56-5.12 2.56-23.04v-102.4h-184.32z m133.12 102.4c0 2.56 0 5.12-2.56 7.68-2.56 2.56-5.12 2.56-7.68 2.56h-71.68v-25.6h79.36v15.36z m0-38.4h-79.36v-30.72h79.36v30.72z" fill="#231815" p-id="26681"></path><path d="M1958.4 496.64c64-2.56 56.32-58.88 56.32-58.88h-43.52c0 33.28-15.36 35.84-20.48 35.84-5.12-20.48-2.56-40.96-2.56-40.96h-40.96c0 138.24 110.08 130.56 110.08 130.56v-28.16c-33.28-2.56-51.2-20.48-58.88-38.4z m-192-179.2h51.2v-25.6h-38.4c5.12-15.36 5.12-25.6 5.12-25.6h-43.52c0 56.32-28.16 58.88-28.16 58.88v25.6c25.6-2.56 40.96-15.36 53.76-33.28zM1397.76 550.4h120.32c12.8 0 20.48-2.56 25.6-10.24 2.56-7.68 5.12-15.36 5.12-20.48v-76.8h-151.04V550.4z m48.64-79.36h61.44v43.52c0 2.56 0 5.12-2.56 5.12-2.56 2.56-5.12 2.56-7.68 2.56h-51.2v-51.2z" fill="#231815" p-id="26682"></path><path d="M1630.72 307.2v-28.16h-130.56v-12.8h-51.2v12.8H1318.4v28.16h51.2l10.24 40.96h-56.32v217.6h40.96V378.88h51.2c-2.56 12.8-10.24 35.84-30.72 35.84v17.92s51.2 7.68 71.68-53.76h35.84c2.56 17.92 15.36 51.2 64 56.32v-20.48s-20.48-2.56-20.48-33.28h48.64v153.6c0 2.56 0 7.68-2.56 7.68-2.56 2.56-5.12 2.56-7.68 2.56h-20.48l-2.56 20.48h43.52c5.12 0 10.24 0 15.36-2.56s10.24-5.12 12.8-10.24c2.56-5.12 2.56-10.24 2.56-17.92V348.16h-64l10.24-40.96h58.88z m-117.76 40.96h-81.92l-15.36-40.96h110.08l-12.8 40.96zM924.16 762.88v-17.92h25.6c20.48 0 17.92-38.4 17.92-38.4v-94.72h25.6v97.28c0 30.72-2.56 56.32-43.52 56.32h-25.6z m107.52-143.36h30.72v17.92h-30.72v-17.92z m2.56 38.4h30.72v97.28h-30.72v-97.28z m99.84-2.56v10.24c5.12-10.24 15.36-15.36 28.16-15.36 17.92 2.56 28.16 10.24 30.72 20.48 0 5.12 2.56 10.24 2.56 15.36v64h-28.16V691.2c0-15.36-5.12-23.04-17.92-23.04-10.24 0-15.36 7.68-17.92 23.04v58.88h-28.16v-99.84h30.72z m240.64 99.84H1344V611.84h30.72v56.32c5.12-10.24 15.36-15.36 33.28-15.36 17.92 2.56 30.72 10.24 35.84 20.48 0 5.12 2.56 10.24 2.56 15.36v64h-33.28v-58.88c0-15.36-7.68-23.04-20.48-23.04s-17.92 7.68-20.48 23.04v61.44z m253.44-99.84v10.24c5.12-10.24 15.36-15.36 33.28-15.36 17.92 2.56 30.72 10.24 35.84 20.48 0 5.12 2.56 10.24 2.56 15.36v64h-33.28V691.2c0-15.36-7.68-23.04-20.48-23.04s-17.92 7.68-20.48 23.04v58.88h-30.72v-99.84h33.28z m337.92 99.84h-43.52V619.52h43.52c28.16 0 40.96 12.8 43.52 35.84 0 15.36-7.68 23.04-20.48 28.16 15.36 5.12 25.6 17.92 25.6 35.84-2.56 23.04-17.92 35.84-48.64 35.84z m-17.92-81.92h20.48c10.24 0 15.36-5.12 15.36-15.36 0-10.24-5.12-15.36-15.36-15.36h-20.48v30.72z m0 58.88h20.48c12.8 0 20.48-5.12 20.48-17.92s-5.12-17.92-20.48-17.92h-20.48v35.84z m248.32-76.8v10.24c5.12-10.24 15.36-15.36 33.28-15.36 17.92 2.56 30.72 10.24 35.84 20.48 0 5.12 2.56 10.24 2.56 15.36v64h-33.28V691.2c0-15.36-7.68-23.04-20.48-23.04s-17.92 7.68-20.48 23.04v58.88h-30.72v-99.84h33.28z m133.12-43.52v87.04l38.4-40.96h30.72l-38.4 43.52 40.96 53.76h-30.72l-40.96-53.76v53.76h-33.28V611.84h33.28z m-535.04 43.52v10.24c-5.12-10.24-15.36-12.8-28.16-12.8-28.16 2.56-43.52 17.92-46.08 51.2 2.56 30.72 17.92 48.64 43.52 48.64 12.8 0 23.04-5.12 30.72-12.8 2.56 23.04-5.12 33.28-23.04 33.28-7.68 0-12.8-2.56-17.92-7.68h-30.72c2.56 17.92 20.48 28.16 48.64 28.16 35.84 0 53.76-15.36 53.76-46.08v-89.6h-30.72z m-20.48 76.8c-12.8 0-20.48-10.24-20.48-30.72 0-20.48 7.68-30.72 20.48-30.72s20.48 10.24 20.48 30.72c0 23.04-7.68 30.72-20.48 30.72zM1300.48 673.28c-5.12-5.12-7.68-5.12-12.8-7.68-5.12-2.56-12.8 0-20.48 0-5.12 0-10.24 0-12.8 2.56-2.56 2.56-5.12 5.12-5.12 7.68 0 2.56 0 5.12 2.56 7.68 2.56 2.56 7.68 5.12 17.92 7.68 17.92 5.12 30.72 10.24 33.28 15.36 5.12 5.12 7.68 10.24 7.68 15.36 0 10.24-5.12 17.92-12.8 25.6-7.68 5.12-20.48 10.24-33.28 10.24-7.68 0-15.36 0-20.48-2.56-5.12 0-12.8-2.56-15.36-5.12 0-2.56 2.56-7.68 2.56-17.92v-2.56h2.56c2.56 7.68 7.68 12.8 12.8 15.36 5.12 2.56 12.8 5.12 20.48 5.12 5.12 0 10.24 0 12.8-2.56 2.56-2.56 5.12-5.12 5.12-10.24s-7.68-10.24-23.04-15.36c-2.56 0-5.12 0-5.12-2.56-10.24-2.56-20.48-7.68-23.04-12.8-5.12-5.12-7.68-10.24-7.68-15.36 0-10.24 5.12-17.92 12.8-23.04 7.68-5.12 20.48-7.68 33.28-7.68 7.68 0 12.8 0 17.92 2.56 5.12 2.56 12.8 2.56 17.92 5.12-2.56 0-7.68 2.56-7.68 5.12zM1530.88 742.4c-2.56 5.12-7.68 7.68-12.8 10.24-5.12 2.56-10.24 5.12-17.92 5.12-10.24 0-17.92-2.56-23.04-7.68-5.12-5.12-7.68-12.8-7.68-20.48 0-5.12 2.56-10.24 5.12-15.36 2.56-5.12 10.24-7.68 17.92-10.24 2.56 0 7.68-2.56 10.24-2.56 12.8-2.56 20.48-5.12 23.04-7.68v-5.12c0-5.12-2.56-7.68-5.12-10.24-5.12-2.56-10.24-5.12-15.36-5.12-5.12 0-10.24 0-12.8 2.56-5.12 2.56-7.68 5.12-12.8 7.68 0-2.56-2.56-2.56-2.56-5.12s-2.56-2.56-2.56-5.12c7.68-5.12 12.8-7.68 20.48-10.24 7.68-2.56 12.8-2.56 20.48-2.56 12.8 0 23.04 2.56 30.72 7.68 7.68 5.12 10.24 12.8 10.24 23.04v38.4c0 7.68 0 12.8 2.56 15.36 2.56 2.56 5.12 2.56 12.8 2.56v5.12c-2.56 2.56-7.68 2.56-12.8 2.56h-12.8c-5.12 0-10.24 0-12.8-2.56 0-2.56-2.56-7.68-2.56-10.24z m-2.56-40.96c-10.24 2.56-17.92 5.12-23.04 7.68-5.12 2.56-7.68 10.24-7.68 15.36 0 5.12 0 10.24 2.56 12.8 5.12 5.12 10.24 5.12 12.8 5.12 5.12 0 7.68-2.56 10.24-5.12 2.56-2.56 5.12-7.68 5.12-12.8v-23.04zM2099.2 742.4c-2.56 5.12-7.68 7.68-12.8 10.24-5.12 2.56-10.24 5.12-17.92 5.12-10.24 0-17.92-2.56-23.04-7.68-5.12-5.12-7.68-12.8-7.68-20.48 0-5.12 2.56-10.24 5.12-15.36 2.56-5.12 10.24-7.68 17.92-10.24 2.56 0 7.68-2.56 10.24-2.56 12.8-2.56 20.48-5.12 23.04-7.68v-5.12c0-5.12-2.56-7.68-5.12-10.24-5.12-2.56-10.24-5.12-15.36-5.12-5.12 0-10.24 0-12.8 2.56-5.12 2.56-7.68 5.12-12.8 7.68 0-2.56-2.56-2.56-2.56-5.12s-2.56-2.56-2.56-5.12c7.68-5.12 12.8-7.68 20.48-10.24 7.68-2.56 12.8-2.56 20.48-2.56 12.8 0 23.04 2.56 30.72 7.68 7.68 5.12 10.24 12.8 10.24 23.04v38.4c0 7.68 0 12.8 2.56 15.36 2.56 2.56 5.12 2.56 12.8 2.56v5.12c-2.56 2.56-7.68 2.56-12.8 2.56h-12.8c-5.12 0-10.24 0-12.8-2.56 0-2.56 0-7.68-2.56-10.24z m0-40.96c-10.24 2.56-17.92 5.12-23.04 7.68-5.12 2.56-7.68 10.24-7.68 15.36 0 5.12 0 10.24 2.56 12.8 2.56 5.12 7.68 5.12 12.8 5.12s7.68-2.56 10.24-5.12c2.56-2.56 5.12-7.68 5.12-12.8v-23.04z" fill="#231815" p-id="26683"></path></svg>