<?xml version="1.0" standalone="no"?><!DOCTYPE svg PUBLIC "-//W3C//DTD SVG 1.1//EN" "http://www.w3.org/Graphics/SVG/1.1/DTD/svg11.dtd"><svg t="1562315815789" class="icon" viewBox="0 0 1024 1024" version="1.1" xmlns="http://www.w3.org/2000/svg" p-id="27699" xmlns:xlink="http://www.w3.org/1999/xlink" width="200" height="200"><defs><style type="text/css"></style></defs><path d="M983.466667 490.666667c-2.133333-57.6-14.933333-113.066667-36.266667-162.133334H556.8l162.133333 162.133334h264.533334zM718.933333 533.333333L512 740.266667H98.133333c81.066667 145.066667 234.666667 243.2 413.866667 243.2 253.866667 0 460.8-200.533333 471.466667-450.133334H718.933333z" fill="#F0BE38" p-id="27700"></path><path d="M40.533333 533.333333c2.133333 57.6 14.933333 113.066667 36.266667 162.133334h390.4L305.066667 533.333333H40.533333zM512 40.533333C258.133333 40.533333 51.2 238.933333 40.533333 490.666667h264.533334l206.933333-206.933334h413.866667C844.8 138.666667 689.066667 40.533333 512 40.533333z" fill="#F0BE38" p-id="27701"></path></svg>