<?xml version="1.0" standalone="no"?><!DOCTYPE svg PUBLIC "-//W3C//DTD SVG 1.1//EN" "http://www.w3.org/Graphics/SVG/1.1/DTD/svg11.dtd"><svg t="1562315843067" class="icon" viewBox="0 0 1024 1024" version="1.1" xmlns="http://www.w3.org/2000/svg" p-id="28188" xmlns:xlink="http://www.w3.org/1999/xlink" width="200" height="200"><defs><style type="text/css"></style></defs><path d="M845.50542222 675.4516389l1.16508445-1.26217557c-1.21363001-2.28162333-2.28162333-4.61179221-3.64088889-6.79632555-9.51485667-15.3402789-19.07825778-30.68055666-28.73875001-45.92374557a10.00030777 10.00030777 0 0 1-1.21362887-9.36921998 308.0192 308.0192 0 0 0 13.93246777-138.01396224c-10.29157888-80.58500779-46.2635611-147.57736334-107.0906789-201.21979221a316.90296889 316.90296889 0 0 0-68.78852665-45.53538333 308.60174222 308.60174222 0 0 0-100.97398557-30.19510556 313.01935445 313.01935445 0 0 0-110.14902556 5.92251221 313.11644445 313.11644445 0 0 0-123.79022222 59.22512669 311.75717888 311.75717888 0 0 0-93.59511666 119.80951666c-32.3796389 72.67214222-36.79724999 147.38318222-13.93246777 223.30785222a305.44630557 305.44630557 0 0 0 99.22635776 149.51917c57.52604445 47.81700779 123.93585778 72.38087111 198.54980779 74.17704334a307.82501888 307.82501888 0 0 0 123.98440334-22.76769223 314.1844389 314.1844389 0 0 0 153.40278443-130.73218333c0.97090333-1.60199111 1.55344555-3.44670777 2.42726001-5.58269667-8.88376889-2.57289443-16.99081443-5.09724445-25.24349667-7.18468779-45.53538333-11.74793443-91.45912889-21.8938789-138.15959666-27.67075556a1820.63862557 1820.63862557 0 0 0-105.82850446-9.9517622 778.85895111 778.85895111 0 0 0-155.24750222 5.82542222c-33.01072555 4.46615666-65.58454557 11.06830222-97.43018667 21.06861-4.17488555 1.31072-8.49540779 2.2330789-14.07810332 3.64088888 1.79617223-3.0098011 2.66998557-4.70888334 3.78652444-6.31087445 13.78683221-20.14625223 27.81639111-40.09832334 41.36049778-60.39020999 9.66049223-14.56355555 20.5831589-28.15620779 26.79694222-45.04993223 15.43736889-42.3314011 31.94273223-84.32298667 48.39955001-126.26602667 2.86416555-7.28177778 3.64088889-13.20428999-2.33016889-18.98116665-1.65053667-1.60199111-2.76707555-3.73797888-4.07779556-5.72833223l-10.04885333-15.3402789c3.15543666-0.97090333 5.33996999-1.84471666 7.52450333-2.42725888 19.90352555-5.33996999 39.66141667-11.01975666 59.61348778-15.82572999 26.2144-6.26232889 52.33171001-12.62174777 78.78883556-17.42772224a1518.00794112 1518.00794112 0 0 1 90.77949554-13.34992555 472.58737778 472.58737778 0 0 1 100.14871779-1.50490112c7.91286557 0.72817778 15.68009443 2.42725888 24.27259221 3.83507002-1.21363001 3.0098011-1.94180779 5.04869888-2.9127111 6.89341667-19.2724389 36.16616334-38.54487666 72.33232555-57.86586112 108.40139776-8.2526811 15.53445888-16.50536334 31.02037333-24.85513444 46.45774222-2.91271111 5.24288-7.76723001 7.96140999-14.12664889 10.67994112l5.82542222-24.07841223 24.75804445-102.81870222c1.45635555-6.11669333 1.11653888-6.45651001-5.43706112-6.21378332-22.96187221 0.97090333-45.63247445 4.36906667-68.01180445 9.22358556a381.61370112 381.61370112 0 0 0-102.81870222 37.67106332 10.67994112 10.67994112 0 0 0-4.85451776 5.72833224c-10.43721443 37.67106333-20.72879445 75.43921778-30.97182891 113.15882666-0.87381333 3.34961778-1.50490112 6.69923555-2.37871331 10.48576 149.8104411 6.26232889 288.16421888 47.18592 413.84770332 128.88746667M515.20398222 900.3614811c-201.99651555 2.08744334-383.36132779-155.00477667-391.17710222-375.39991665a387.00221667 387.00221667 0 0 1 373.74938112-400.98323002c212.14245888-8.34977223 392.53636779 156.41258667 402.05122333 371.51630223 9.61194667 216.99697778-162.1409189 402.97358222-384.62350223 404.86684444" fill="#C90008" p-id="28189"></path></svg>