<?xml version="1.0" standalone="no"?><!DOCTYPE svg PUBLIC "-//W3C//DTD SVG 1.1//EN" "http://www.w3.org/Graphics/SVG/1.1/DTD/svg11.dtd"><svg t="1562315880233" class="icon" viewBox="0 0 1024 1024" version="1.1" xmlns="http://www.w3.org/2000/svg" p-id="28851" xmlns:xlink="http://www.w3.org/1999/xlink" width="200" height="200"><defs><style type="text/css"></style></defs><path d="M915.55660601 475.7081555c-26.72805725 0-53.46783008-0.0920559-80.19588862 0-5.18526657 0-9.21899605-0.90214948-11.349674-6.25646464a15.17753306 15.17753306 0 0 0-3.83120543-4.87729721c-16.52824652-15.84201049-33.27240518-31.45471681-49.61151837-47.4925547-10.59146811-10.37053315-20.38623205-21.54446451-30.93753065-31.92001916-14.94655635-14.77583394-30.29815821-29.13992574-45.38698172-43.77851146-12.30538371-11.93213855-24.66767532-23.85758175-36.65170024-36.03074001-10.76888459-10.86763585-20.9419152-22.34786273-31.82796199-33.08327315-14.37748251-14.2067601-30.2194917-27.0611329-43.53079765-42.19682128-10.34375303-11.76811149-21.648236-20.4314231-36.72367141-23.69355469-24.02663031-5.21037284-44.05300663 1.72563246-60.62644419 20.09834746-8.97797632 10.06758531-19.31336017 18.7693926-28.78843919 28.3482431-16.23366657 16.42447374-32.15266972 33.17365522-48.46667532 49.53954722-9.51859622 9.54537632-19.74351323 18.39782128-29.25039258 27.96328237-15.35160185 15.42357299-30.19271287 31.34257614-45.57779019 46.74104416-9.87845196 9.90523207-20.57536541 18.9920014-30.47390212 28.90392753-14.7825293 14.84110974-29.1466211 30.10735103-43.74503728 45.15265734-6.68829024 6.91089903-13.18744844 14.03603769-20.31426092 20.46322473-16.31233308 14.71055814-18.86814386 42.44788404-12.32379462 59.66906065 5.48486674 14.5080341 16.57343756 24.50866977 26.97577233 35.06666241 11.08857082 11.26431345 22.41816005 22.26584855 33.7092523 33.37617796 21.76539948 21.26829678 43.53079766 42.42612544 65.22422599 63.77308744 10.56636183 10.42241953 20.70591699 21.29172923 31.22541397 31.76268616a19364.78784571 19364.78784571 0 0 0 74.2540874 73.58626231c10.89776364 10.79399086 21.57459231 21.83736933 32.77530379 32.29828584 15.61270633 14.60009002 34.41055287 17.16929151 54.80850051 13.82849213 13.74313157-2.22943051 23.71363945-10.04247903 33.11507347-19.45730246 79.4443755-79.50295594 159.26701767-158.64270975 238.16240407-238.68461176 10.50610625-10.66343925 20.56197469-14.07620721 34.82229502-13.91385527 48.19218143 0.54898909 96.41114298-0.12720522 144.61504127-0.2744939 31.70243189-0.11716219 39.49706819 10.7086303 35.89349308 40.34063721a364.44992138 364.44992138 0 0 1-13.80840867 64.30868582 724.19661433 724.19661433 0 0 1-29.47300138 78.25434142c-7.86493491 17.79025045-18.32585012 34.59299215-29.1332304 50.78816304a877.63564659 877.63564659 0 0 1-43.53749301 59.93183896c-9.67592793 12.14470432-21.28838155 22.80814229-32.45561757 33.69419035-10.4341351 10.15294586-21.01388635 20.31426092-32.27150572 29.44119975-21.40554373 17.4956718-43.68143532 33.94190414-68.20516705 46.7209581-23.11276527 12.03088981-46.4330735 23.95633301-70.35593233 34.06910936a320.13246258 320.13246258 0 0 1-58.04552712 18.86814385c-39.67281213 8.29676181-79.57492709 15.59596925-120.43777328 15.50893485a561.33941095 561.33941095 0 0 1-100.1502925-9.59056736c-26.61591658-4.84549558-52.60417758-11.4936163-77.70367978-21.51601057-17.89569707-7.14020189-35.77130938-14.3640918-53.47619926-22.00139769a110.34508171 110.34508171 0 0 1-16.94668272-9.79476394c-21.76539948-14.34735472-43.85048388-28.13400349-64.74553422-43.53079767a428.24978891 428.24978891 0 0 1-49.67009881-42.19682258c-15.65957121-15.79849329-29.31064816-33.64899932-43.13914159-51.14801748-10.47263209-13.26276725-20.21550965-27.16490437-29.60355297-41.22604833-5.79953147-8.61979441-10.27178189-18.06474564-15.2930214-27.18164276a448.30294533 448.30294533 0 0 1-46.43307479-123.52081457c-13.67116043-64.49447147-16.38430422-129.58647203-4.78524131-195.2023541a513.09032292 513.09032292 0 0 1 27.10632393-97.3199865c8.5712557-22.0013977 19.57446466-43.22952366 31.25219406-63.85008009a580.04018007 580.04018007 0 0 1 37.13541225-56.58769319c13.05689553-17.76347164 26.72805725-35.27922819 42.07966038-51.02248743 15.35160185-15.74493306 32.370257-29.18009527 49.33702319-42.95000823 13.92557085-11.3496753 28.08713861-22.60729339 43.25462993-32.16605913 15.96084651-10.08934389 33.37115645-17.96766821 49.91948772-27.08121764a371.42777004 371.42777004 0 0 1 81.48969419-32.12756214c69.865525-19.00706464 140.90936591-26.76822677 213.04281711-14.29212196 37.37810581 6.47237808 74.16203149 14.83441439 109.62369765 29.15331645 26.48536369 10.69523961 52.44182435 22.0583043 76.32618492 37.72457085 18.03796553 11.76811149 36.05082478 23.70025005 53.06947865 36.82911674 17.41031123 13.45524826 34.16786061 27.93650225 50.24586931 42.99352544 9.38804332 8.7938645 17.09732037 19.43052236 25.17816741 29.54497252 10.68352402 13.3648649 22.03989337 26.3548121 31.22541395 40.70049169 13.88707387 21.77209355 27.67539777 43.74001577 38.74388253 66.93646903 16.08972427 34.31180291 28.34991694 70.2973506 36.55462283 107.29551591a221.73123499 221.73123499 0 0 1 4.67477447 34.21472549c1.44444321 22.08508441-12.9330393 37.52204811-35.49514164 37.8885979-26.97577103 0.43015306-53.97832348 0.09707742-80.97417926 0.09707743l-0.08703441 0.09038208z m0 0" fill="#ffffff" p-id="28852"></path><path d="M571.85611883 583.44888899c-11.60575826 1.33397638-27.46617968-12.26521419-28.2310809-24.66432764-0.56907385-9.04492595 0.62096023-18.23212037 1.45113726-27.31219563 0.45693317-5.45306641 2.44534396-10.91282688 2.13067925-16.26379436-0.18913333-3.09475685-3.65546279-8.4624627-5.5568379-8.41727037-3.34079809 0-8.70850266 2.90394967-9.53198563 5.62880904-3.36757821 12.04260539-6.63640513 24.37979071-7.433108 36.77053628-0.58246325 8.85244495 2.78511364 17.9626467 4.35508824 26.6125689-11.17393136-0.80172438-24.66767532-19.2581261-21.76539947-29.41107326 2.45203802-8.52941233 4.15089166-17.2998431 5.96355851-26.00834575 1.27539463-6.09076373 0.91553889-11.86518891-6.4991569-13.77995471-5.43967571-1.45113856-9.82656558 3.37929377-11.46014212 11.02831522-1.26869929 5.80287914-3.70065385 11.46181597-4.80532607 17.41031125-1.03437492 5.54679616-1.00090075 11.27100879-3.11986313 18.59030099-6.62970979-6.98287019-14.2067601-13.30795828-19.69162683-21.08920518-10.57975124-15.01852751-18.20868794-31.16515838-20.60884087-50.15883362-2.11728983-16.77596029-14.76913858-27.03435278-29.87302665-33.65067185-8.99638725-3.95004146-9.04157828-4.51241996-3.24874088-12.5664882 18.04466089-25.11958698 41.99429854-42.25540302 71.65141173-50.12033793 27.36742841-7.25067003 54.18084622-5.68906462 79.50295595 9.56378726 17.03873862 10.25839247 30.10735103 24.27601794 43.00691486 38.90288807 9.7227928 11.02831523 19.60794012 22.22902671 31.0095005 31.35596685 6.94939472 5.55683789 16.6454087 8.70850266 25.59660492 10.50610625 18.63381949 3.79940381 38.00576011 4.45216566 56.24624966 9.41482344 12.76901223 3.47302352 22.69432779 13.16234215 27.66870241 26.78496517 2.38006687 6.55773863 0.62096023 11.20907937-3.80442531 15.48215473-8.9378055 8.70850266-18.22207734 16.96676747-27.00255244 25.78573693-9.32946288 9.38804332-18.16851712 19.25477972-27.30884667 28.82024083-7.70258169 8.08084836-15.22105024 16.38430422-23.50442136 23.82745396-2.33989734 2.10222529-7.92351536 3.23367764-10.56636183 1.91309196-17.90741394-8.92441611-36.63998339-16.94668271-52.74309706-28.53905027-16.10980902-11.59571523-26.23764991-28.25451334-19.31336146-50.39483182 1.50302496-5.30242877 1.54319447-10.90613153 0.11046812-16.22362484-0.81009357-3.00270094-5.61039811-6.77532592-8.70180858-6.82218951-3.09308301-0.03849569-8.49258921 3.62868269-9.04157829 6.42551191-2.79850435 14.28207892-4.49903054 28.77672231-6.28324345 43.22952365-1.07287189 8.71185033 2.90227583 15.68467748 8.05574079 22.20392044a55.21689498 55.21689498 0 0 1 3.3458196 5.16518181z m4.35508824-83.19022037c4.02033876-5.22376226 8.70850266-8.70850266 8.24487542-11.30448296-0.64104499-3.65546279-4.71327014-8.82064332-7.9954865-9.38804461a7.92351536 7.92351536 0 0 0-8.96291308 9.31607347c0.4887335 3.35418749 4.53585238 6.16608256 8.71352416 11.3764541z m-72.75608397 0.10377278c4.09398375-5.25556389 8.02896196-8.10093312 8.60472987-11.52541792 0.90214948-5.30912412-3.41946459-9.00977665-8.53275871-9.09513851a7.95364315 7.95364315 0 0 0-6.43890262 2.54409393 7.93690606 7.93690606 0 0 0-2.01351706 6.62803595c0.50212421 3.36088285 4.38019452 6.22466301 8.38044852 11.44842655z m26.39498163-14.01762675c0 1.19003408-0.1439423 2.39345757-0.20252405 3.59688105 3.0796936 2.2947063 5.87819796 5.80622681 9.2909672 6.55773865 4.85721245 1.01931166 10.27178189-1.64194574 9.42821286-7.25067003-0.54898909-3.62868269-4.79863072-8.70850266-8.10762718-9.31774603-2.96253142-0.55568445-6.91089903 4.073899-10.40902883 6.41379636z m0 0" fill="#ffffff" p-id="28853"></path><path d="M354.72099181 485.63347234a63.37473599 63.37473599 0 0 1 36.92117264 17.52747213c10.48602149 10.04247903 21.30009712 19.86234926 30.97602634 30.66638314 8.80725391 9.83326093 16.37258735 20.80132059 24.34798908 31.36935624 4.97604848 6.6129727 10.16131505 13.15732064 14.51472946 20.18036034 10.1546197 16.44623234 23.44584091 29.47634906 42.07965911 35.37797947a135.72242549 135.72242549 0 0 0 33.64565162 6.29663414c15.12229899 0.7849873 30.34334924-0.4184362 45.52422997-1.07287188 15.17418538-0.65443441 29.72908436-0.21591345 43.18433132 7.96368615 4.84549558 2.90227583 5.55683789 5.06643054 1.24861582 9.46001449-10.37555467 10.55297114-20.1569279 21.68003762-30.28476879 32.46231291a2987.78805494 2987.78805494 0 0 1-31.6505455 33.27575286 139.40634225 139.40634225 0 0 1-15.25954593 14.30885774c-8.82566483 6.69163791-19.82385357 6.84562324-28.32983347-0.09205592-13.05689553-10.61824693-25.53802318-21.90934049-38.07103591-33.12846288-10.07595319-8.99638725-20.05985178-18.09152576-29.70899958-27.56493093-8.51267396-8.3268883-16.39769362-17.32997089-24.76642658-25.81921241-9.95879101-9.97050788-20.11173686-19.58785536-29.93830246-29.52321395-8.61644674-8.70850266-17.00526445-17.59107538-25.52463376-26.37154917-9.91192613-10.22491701-19.9209297-20.31426092-29.76088597-30.64462324-8.77545229-9.19890999-17.41198378-18.57189007-26.04182123-27.87792182a95.50397198 95.50397198 0 0 0-8.57794976-8.99638595c-4.35341441-3.59520722-3.80442532-6.28157091-0.28788459-10.31530037 8.8591403-10.17303061 32.73680681-17.25465207 45.76692353-17.48228109h-0.00669536z m0 0" fill="#ffffff" p-id="28854"></path></svg>