<?xml version="1.0" standalone="no"?><!DOCTYPE svg PUBLIC "-//W3C//DTD SVG 1.1//EN" "http://www.w3.org/Graphics/SVG/1.1/DTD/svg11.dtd"><svg t="1562316802510" class="icon" viewBox="0 0 1024 1024" version="1.1" xmlns="http://www.w3.org/2000/svg" p-id="29432" xmlns:xlink="http://www.w3.org/1999/xlink" width="200" height="200"><defs><style type="text/css"></style></defs><path d="M577.7733 784.120907c-20.634761 0-36.110831 0-56.745592-5.15869-20.634761 0-36.110831-5.15869-56.745592-10.317381-20.634761-5.15869-36.110831-15.476071-56.745592-20.63476-170.236776-79.959698-247.617128-257.934509-201.188917-448.806046-36.110831 59.324937-59.324937 131.546599-59.324937 196.030227v25.793451c5.15869 126.387909 74.801008 242.458438 190.871537 306.942065 41.269521 25.793451 85.118388 41.269521 131.546599 46.428212 20.634761 0 36.110831 5.15869 56.745592 5.15869 20.634761 0 36.110831 0 56.745592-5.15869 126.387909-20.634761 242.458438-95.435768 296.624685-237.299748-87.697733 90.277078-190.871537 147.02267-301.783375 147.02267z" fill="#ED1C24" p-id="29433"></path><path d="M464.282116 245.037783c20.634761-5.15869 36.110831-5.15869 56.745592-5.15869 20.634761 0 36.110831 0 56.745592 5.15869 141.86398 30.952141 252.775819 170.236776 206.347607 348.211587 69.642317-74.801008 105.753149-301.783375-79.959698-412.695214-41.269521-25.793451-85.118388-36.110831-126.387909-36.110831-20.634761 0-36.110831 0-56.745592 5.15869-20.634761 5.15869-36.110831 10.31738-56.745592 20.634761-85.118388 41.269521-152.18136 121.229219-167.657431 175.395466 51.586902-56.745592 113.491184-90.277078 167.657431-100.594459z" fill="#ED1C24" p-id="29434"></path><path d="M518.448363 415.274559l-54.166247 15.476071-54.166247 20.63476 54.166247 159.919396 54.166247-12.896726 59.324937-20.63476 51.586902-15.476071-51.586902-167.657431z" fill="#ED1C24" p-id="29435"></path></svg>