<?xml version="1.0" standalone="no"?><!DOCTYPE svg PUBLIC "-//W3C//DTD SVG 1.1//EN" "http://www.w3.org/Graphics/SVG/1.1/DTD/svg11.dtd"><svg t="1562317204237" class="icon" viewBox="0 0 1024 1024" version="1.1" xmlns="http://www.w3.org/2000/svg" p-id="30602" xmlns:xlink="http://www.w3.org/1999/xlink" width="200" height="200"><defs><style type="text/css"></style></defs><path d="M191.777 970.263c18.958-15.239 38.237-29.794 56.468-45.562 64.185-55.504 119.11-118.747 159.389-193.931 17.701-33.043 31.618-67.549 38.574-104.561 4.932-26.262 6.251-52.643-0.842-78.687-11.626-42.694-40.275-67.938-82.662-78.234-23.074-5.604-46.515-5.653-69.907-2.562-71.456 9.443-134.562 39.887-194.436 78.161-34.834 22.267-67.131 47.87-97.693 75.684-1.957 1.781-3.824 4.43-6.791-0.405 9.394-9.182 18.964-18.506 28.502-27.861 33.46-32.829 68.788-63.347 108.51-88.525 47.173-29.901 97.36-52.637 152.057-64.887 28.948-6.484 58.263-9.254 87.823-7.344 43.514 2.81 83.481 15.552 116.724 45.106 28.62 25.443 45.285 57.649 52.368 94.975 9.546 50.343 1.344 98.975-15.428 146.499-20.969 59.415-54.327 111.507-95.718 158.658-30.106 34.294-63.872 64.563-101.039 91.024-1.902 1.355-4.497 2.447-6.774 2.455-42.443 0.144-84.884 0.106-127.328 0.099-0.643-0.001-1.283-0.076-1.795-0.103z" p-id="30603"></path><path d="M627.334 970.181c23.296-16.793 47.379-32.986 70.187-50.817 62.149-48.586 116.147-104.916 158.589-171.753 23.022-36.254 41.637-74.551 51.241-116.711 6.321-27.764 8.356-55.687 0.113-83.425-11.793-39.677-39.262-63.286-78.287-74.214-22.639-6.34-45.853-7.921-69.213-5.324-14.267 1.586-28.445 3.991-42.665 6.013-1.261 0.178-2.538 0.241-4.124 0.386 6.074-9.7 11.765-19.158 17.916-28.308 1.174-1.748 4.036-2.815 6.314-3.3 29.301-6.257 58.977-8.881 88.861-7.050 41.558 2.549 80.506 13.383 114.085 39.3 31.546 24.347 51.043 56.427 59.344 95.18 8.982 41.933 4.618 83.271-7.445 123.979-16.625 56.1-45.516 105.633-82.089 150.881-38.903 48.124-84.718 88.621-136.543 122.349-2.259 1.471-5.158 2.763-7.764 2.774-45.798 0.166-91.595 0.118-137.395 0.113-0.635-0.002-1.266-0.084-1.125-0.075z" p-id="30604"></path><path d="M203.429 275.393c7.222-8.325 14.357-16.729 21.682-24.962 24.647-27.709 49.971-54.752 78.362-78.734 57.283-48.386 120.684-85.502 193.627-105.039 32.937-8.822 66.45-12.955 100.453-10.445 49.19 3.631 92.674 20.415 126.106 58.341 21.642 24.551 34.149 53.517 39.506 85.551 9.273 55.453-0.715 108.605-20.468 160.362-20.959 54.921-52.051 103.764-90.119 148.323-21.404 25.052-44.895 47.995-70.175 69.113-1.251 1.044-2.588 1.984-4.249 3.249-1.499-9.692-2.703-18.914-4.387-28.048-4.074-22.126-11.83-42.923-24.039-61.846-2.916-4.521-2.573-7.1 0.756-11.088 31.493-37.691 58.958-78.095 80.835-122.157 15.47-31.155 27.829-63.45 34.477-97.713 5.437-28.032 7.207-56.138-0.212-84.127-11.434-43.137-39.51-69.23-82.55-79.532-25.346-6.068-50.896-5.076-76.332-0.605-62.844 11.047-118.788 38.553-171.628 73.063-46.234 30.197-88.305 65.476-126.336 105.551-1.081 1.137-2.655 1.809-3.999 2.697-0.434-0.652-0.871-1.302-1.31-1.953z" p-id="30605"></path><path d="M344.873 603.554c-2.489 3.866-4.075 7.446-6.622 10.113-33.694 35.26-58.868 76.254-80.534 119.577-15.957 31.908-29.326 64.927-39.78 99.025-3.833 12.496-12.24 15.156-23.187 11.397-11.22-3.851-22.164-8.507-33.393-12.331-26.358-8.981-53.449-11.565-81.169-9.127-19.913 1.75-39.355 5.61-58.511 11.156-1.755 0.509-3.564 0.932-5.377 1.127-4.099 0.443-7.909-0.354-9.787-4.448-1.842-4.013-0.272-7.678 2.709-10.451 5.273-4.907 10.893-9.435 16.237-14.269 43.205-39.054 79.648-83.366 103.489-136.912 7.714-17.324 13.457-35.629 18.813-53.86 3.46-11.789 10.283-13.258 20.549-9.326 8.409 3.217 16.645 7.079 25.293 9.433 25.635 6.979 51.643 6.43 77.681 2.394 20.748-3.218 40.689-9.331 60.287-16.747 2.649-1.001 5.85-1.116 8.692-0.778 1.459 0.173 2.687 2.256 4.612 4.025z" p-id="30606"></path><path d="M778.985 574.595c-1.399 3.172-2.363 6.638-4.262 9.477-26.922 40.274-40.162 85.517-47.634 132.673-3.582 22.602-5.553 45.462-8.186 68.213-0.749 6.485-4.947 9.856-11.415 8.758-62.539-10.602-121.121 1.185-176.5 31.142-1.327 0.716-2.617 1.516-3.98 2.157-3.444 1.618-6.966 1.959-9.682-1.113-2.839-3.206-1.337-6.571 0.544-9.717 7.559-12.652 15.635-25.026 22.59-38.002 22.502-41.984 37.049-86.643 43.402-133.89 1.514-11.27 2.534-22.605 3.841-33.903 1.154-9.958 5.89-12.989 15.871-11.439 12.209 1.895 24.512 4.286 36.79 4.375 33.328 0.245 64.862-8.57 95.292-21.577 9.076-3.878 17.798-8.578 26.864-12.483 3.211-1.382 6.981-2.164 10.451-2.042 3.878 0.142 5.681 3.13 6.015 7.366z" p-id="30607"></path><path d="M560.62 239.54c-2.366 3.978-4.316 8.282-7.165 11.874-12.032 15.174-22.266 31.452-30.709 48.854-15.744 32.466-25.81 66.686-31.341 102.289-0.667 4.295-1.527 8.577-1.902 12.9-0.927 10.628-4.688 12.349-14.571 7.987-12.205-5.387-24.525-10.921-37.326-14.465-30.294-8.387-61.314-9.963-92.635-7.582-20.46 1.554-40.446 5.091-59.951 11.467-1.446 0.474-3.295-0.282-4.958-0.468 0.546-1.772 0.581-4.027 1.723-5.237 6.32-6.708 13.221-12.882 19.351-19.751 38.161-42.752 63.392-92.196 75.998-148.084 0.882-3.903 1.162-7.953 2.177-11.814 2.074-7.89 5.712-9.613 13.329-6.903 12.908 4.592 25.619 9.933 38.812 13.486 34.608 9.323 69.446 8.916 104.326 0.848 5.795-1.339 11.922-1.478 17.908-1.637 3.956-0.103 6.237 2.489 6.932 6.238z" p-id="30608"></path></svg>