<?xml version="1.0" standalone="no"?><!DOCTYPE svg PUBLIC "-//W3C//DTD SVG 1.1//EN" "http://www.w3.org/Graphics/SVG/1.1/DTD/svg11.dtd"><svg t="1562317238149" class="icon" viewBox="0 0 1024 1024" version="1.1" xmlns="http://www.w3.org/2000/svg" p-id="31244" xmlns:xlink="http://www.w3.org/1999/xlink" width="200" height="200"><defs><style type="text/css"></style></defs><path d="M336.512708 610.481965c2.605338-2.431376 3.979638-3.653203 5.28947-4.943592 18.450211-18.176988 36.919864-36.334533 55.32812-54.555523 32.917714-32.57593 65.788355-65.197908 98.695836-97.785094 9.211802-9.119705 15.402805-9.117658 24.686239-0.100284 0.812505 0.788969 1.600451 1.608637 2.405793 2.406816 18.790972 18.633383 37.555337 37.293371 56.390311 55.881728 5.320169 5.249561 11.438517 5.864568 15.280008 0.930185 1.989307-2.557242 3.01773-6.52153 3.035126-9.856485 0.199545-39.901779 0.132006-79.806627 0.12996-119.710452 0-14.923898-3.990894-20.920472-17.666358-26.261107-37.514405-14.651698-76.03779-17.869996-115.273397-8.91709-104.047728 23.735587-166.857239 129.102357-139.859351 228.901317C327.981405 587.658144 332.390831 598.469374 336.512708 610.481965z" p-id="31245"></path><path d="M495.919255 607.250364c-19.61985-19.398816-39.278585-38.758746-58.83806-58.21896-3.444449-3.428076-7.140631-4.78498-11.768021-3.016707-4.659113 1.779529-6.647397 5.340635-6.64535 10.163477 0 41.777499-0.069585 83.553974 0.071631 125.332497 0.033769 10.008958 4.795213 17.107633 14.33345 21.045315 37.029358 15.288195 75.093279 19.289322 114.40768 11.172457 104.569614-21.589714 168.415734-124.68986 145.514141-222.899626-3.146667-13.491269-8.18031-26.542516-12.808724-41.287335-2.864234 2.641153-3.979638 3.609201-5.02648 4.644787-51.596122 51.012837-103.190197 102.026698-154.771993 153.052838C511.032464 616.493889 505.290693 616.515379 495.919255 607.250364z" p-id="31246"></path><path d="M347.905176 356.465644c64.263629-55.404867 137.644917-73.534783 220.22675-53.734832 4.126994 0.989537 6.976902 0.283456 10.219759-2.400676 19.659759-16.269545 41.944298-27.484981 66.715471-33.666774 5.634324-1.403976 11.348466-2.493797 17.058514-3.735068-21.386076-61.893652-101.446483-120.538307-195.013509-97.507778-90.86652 22.36538-141.258211 114.568339-122.81721 193.686281C345.858564 357.969904 346.945315 357.292476 347.905176 356.465644z" p-id="31247"></path><path d="M292.829813 630.069069c-0.490164-1.218758-0.99363-2.432399-1.526773-3.631714-11.013845-24.725124-17.951861-50.545186-19.947308-77.538981-3.950985-53.416584 8.461719-102.70208 37.85005-147.640572 1.103124-1.688455 1.502213-4.742001 0.773619-6.587022-11.18269-28.377304-15.099906-57.593719-10.856255-87.859024 0.249687-1.76418 0.031722-3.592828 0.031722-5.411243-73.745584 3.381004-151.944598 65.808822-153.823388 162.915463-1.784646 92.314499 72.53399 161.073512 147.301857 166.764118C292.767392 630.426203 292.887119 630.212332 292.829813 630.069069z" p-id="31248"></path><path d="M742.509443 572.984956c-0.243547 0.25992-0.639566 0.481977-0.714268 0.786922-1.01819 4.022617-1.899256 8.082072-2.989077 12.08627-21.334911 78.223572-69.564355 132.596947-144.759965 162.940023-3.53757 1.426489-5.438872 3.26844-6.343475 7.015787-4.018523 16.661472-10.450003 32.429597-20.042475 46.620807-7.888667 11.669784-16.754592 22.680559-25.166169 33.9533 60.931744 40.594557 160.04202 33.874505 218.492246-39.902802C818.025347 724.488509 801.741475 623.385856 742.509443 572.984956z" p-id="31249"></path><path d="M838.722738 368.995005c-52.611242-71.92103-150.600997-85.715197-217.184461-46.246277 1.597381 1.006933 2.729158 1.629103 3.759627 2.388397 15.471366 11.42726 32.206516 21.509896 46.156226 34.567283 45.445028 42.531676 69.989027 95.418186 73.628928 157.721161 0.205685 3.539616 1.588171 5.364171 4.373611 7.128351 25.910113 16.409738 46.438659 37.892005 60.872393 65.062831 0.660032 1.239224 1.529843 2.362814 2.330068 3.580548C875.305935 541.860075 893.535111 443.927625 838.722738 368.995005z" p-id="31250"></path><path d="M462.619848 761.485121c-55.889915-11.482519-102.443184-38.708604-138.598638-83.126232-2.302439-2.827395-4.595668-3.659343-8.206916-3.439332-21.140483 1.290389-41.960671-0.883113-62.124919-7.488555-9.807367-3.214205-19.318998-7.330966-29.365818-11.192923-20.893866 76.347852 22.311145 171.730223 117.894084 198.684108 85.721337 24.172539 170.532955-26.067702 196.107423-90.683349-1.824555 0.156566-3.475148 0.298805-5.124717 0.441045C509.53332 766.703983 485.939973 766.276241 462.619848 761.485121z" p-id="31251"></path></svg>