<?xml version="1.0" standalone="no"?><!DOCTYPE svg PUBLIC "-//W3C//DTD SVG 1.1//EN" "http://www.w3.org/Graphics/SVG/1.1/DTD/svg11.dtd"><svg t="1562317257637" class="icon" viewBox="0 0 1024 1024" version="1.1" xmlns="http://www.w3.org/2000/svg" p-id="31519" xmlns:xlink="http://www.w3.org/1999/xlink" width="200" height="200"><defs><style type="text/css"></style></defs><path d="M651.054 490.536c0-63.433 1.734-126.932-0.662-190.279-1.392-36.713 9.516-50.497 48.149-49.479 93.795 2.485 187.719 1.697 281.555 0.237 30.687-0.474 43.342 10.138 40.427 40.772-1.468 15.503 2.852 32.163-1.314 46.612-3.18 11.061-15.218 27.27-23.914 27.652-30.054 1.322-32.255 17.744-32.117 41.322 0.681 117.322-0.918 234.677 1.095 351.967 0.655 38.196-12.947 49.754-49.909 49.227-119.91-1.706-239.871-1.438-359.792-0.192-30.574 0.321-51.509-10.932-70.003-34.081-42.286-52.937-85.923-104.8-129.294-156.863-12.053-14.474-25.087-28.126-46.78-38.746 0 60.588-1.683 121.237 0.651 181.732 1.341 34.749-8.074 49.425-45.539 48.163-72.921-2.452-146.004-1.68-218.98-0.311-33.91 0.635-49.725-9.565-49.386-46.738 1.414-153.819 1.231-307.663 0.112-461.484-0.256-35.427 13.317-49.066 48.382-48.784 119.93 0.978 239.889-0.681 359.785 1.499 17.883 0.329 40.293 11.568 52.384 25.107 51.185 57.33 99.196 117.49 148.531 176.473 11.468 13.715 23.577 26.887 35.39 40.305 3.743-1.366 7.487-2.734 11.229-4.11z" p-id="31520"></path></svg>