<?xml version="1.0" standalone="no"?><!DOCTYPE svg PUBLIC "-//W3C//DTD SVG 1.1//EN" "http://www.w3.org/Graphics/SVG/1.1/DTD/svg11.dtd"><svg t="1562317347652" class="icon" viewBox="0 0 1059 1024" version="1.1" xmlns="http://www.w3.org/2000/svg" p-id="32564" xmlns:xlink="http://www.w3.org/1999/xlink" width="206.8359375" height="200"><defs><style type="text/css"></style></defs><path d="M1036.255966 689.096647c-51.0699 40.334921-181.728643 117.24177-341.812329 16.779967-190.936625-119.823765-347.143319-32.396936-370.124274-17.800965V289.140432h333.302346V634.988754c12.104976 6.118988 24.284952 12.967975 36.821928 20.805959 121.634761 76.32685 226.015556 50.156902 291.805427 15.583969V289.140432L697.449631 0H288.683433L0 289.140432v388.756237c0 13.632973 4.532991 24.575952 13.299974 33.641934 8.593983 9.058982 220.369567 231.603545 239.906529 252.625504 19.569962 21.163958 47.150907 5.579989 60.169882-1.095997 147.329711-75.969851 288.575434-18.547964 332.829347 3.628992 10.618979 4.573991 21.453958 9.497981 32.362936 15.009971 216.409575 109.745785 380.959252-28.775944 380.959252-28.775943V699.498627c0-22.689955-8.085984-22.399956-23.271954-10.40298z" p-id="32565"></path></svg>