<?xml version="1.0" standalone="no"?><!DOCTYPE svg PUBLIC "-//W3C//DTD SVG 1.1//EN" "http://www.w3.org/Graphics/SVG/1.1/DTD/svg11.dtd"><svg t="1562317388299" class="icon" viewBox="0 0 1024 1024" version="1.1" xmlns="http://www.w3.org/2000/svg" p-id="33125" xmlns:xlink="http://www.w3.org/1999/xlink" width="200" height="200"><defs><style type="text/css"></style></defs><path d="M712.533333 825.6c-100.266667-6.4-170.666667-66.133333-236.8-130.133333-8.533333-8.533333-19.2-17.066667-29.866666-25.6-117.333333-100.266667-200.533333-100.266667-317.866667 2.133333-14.933333 12.8-29.866667 25.6-51.2 44.8-12.8-42.666667-25.6-76.8-32-113.066667-2.133333-10.666667 6.4-29.866667 14.933333-36.266666 46.933333-32 93.866667-68.266667 145.066667-91.733334 93.866667-42.666667 179.2-19.2 258.133333 40.533334 38.4 29.866667 72.533333 61.866667 110.933334 91.733333 110.933333 89.6 230.4 110.933333 362.666666 46.933333 8.533333-4.266667 17.066667-8.533333 27.733334-10.666666 0 0 2.133333 0 4.266666 2.133333-17.066667 142.933333-174.933333 296.533333-343.466666 334.933333-187.733333 42.666667-392.533333-29.866667-480-170.666666 55.466667-83.2 138.666667-104.533333 226.133333-59.733334 57.6 29.866667 110.933333 61.866667 170.666667 87.466667 57.6 23.466667 115.2 21.333333 170.666666-12.8z" fill="#163F8F" p-id="33126"></path><path d="M46.933333 377.6C106.666667 200.533333 224 87.466667 405.333333 42.666667c174.933333-42.666667 371.2 29.866667 473.6 170.666666-64 89.6-140.8 106.666667-238.933333 55.466667-59.733333-29.866667-119.466667-61.866667-181.333333-87.466667-49.066667-19.2-102.4-12.8-151.466667 19.2 121.6 4.266667 192 89.6 273.066667 157.866667 115.2 93.866667 185.6 96 302.933333 4.266667 19.2-14.933333 36.266667-32 64-53.333334 12.8 42.666667 23.466667 81.066667 32 117.333334 2.133333 6.4-2.133333 14.933333-6.4 21.333333-70.4 98.133333-247.466667 147.2-352 96-38.4-19.2-74.666667-49.066667-108.8-74.666667-29.866667-21.333333-55.466667-44.8-85.333333-68.266666-108.8-83.2-226.133333-89.6-347.733334-29.866667-6.4 4.266667-14.933333 6.4-21.333333 10.666667-2.133333-2.133333-4.266667-2.133333-10.666667-4.266667z" fill="#163F8F" p-id="33127"></path></svg>