<?xml version="1.0" standalone="no"?><!DOCTYPE svg PUBLIC "-//W3C//DTD SVG 1.1//EN" "http://www.w3.org/Graphics/SVG/1.1/DTD/svg11.dtd"><svg t="1562317477001" class="icon" viewBox="0 0 1024 1024" version="1.1" xmlns="http://www.w3.org/2000/svg" p-id="34492" xmlns:xlink="http://www.w3.org/1999/xlink" width="200" height="200"><defs><style type="text/css"></style></defs><path d="M640.451022 614.207823c0 13.034874-10.603499 23.633257-23.638373 23.633257l-85.930091 0 0 224.740554 263.343757 0c39.10974 0 70.90898-31.853475 70.90898-70.963215l0-263.283382-224.684272 0L640.451022 614.207823z" p-id="34493"></path><path d="M794.226315 158.26556l-263.343757 0 0 224.738507 85.930091 0c13.033851 0 23.638373 10.488889 23.638373 23.579021l0 85.872786 224.684272 0 0-263.281335C865.135294 190.007495 833.336054 158.26556 794.226315 158.26556z" p-id="34494"></path><path d="M160.870386 229.175563l0 263.281335 224.743624 0 0-85.872786c0-13.090133 10.597359-23.579021 23.63428-23.579021l85.874833 0L495.123123 158.26556l-263.283382 0C192.611298 158.26556 160.870386 190.007495 160.870386 229.175563z" p-id="34495"></path><path d="M385.61401 614.207823l0-85.872786-224.743624 0 0 263.283382c0 39.10974 31.741935 70.963215 70.969355 70.963215l263.283382 0 0-224.740554-85.874833 0C396.211369 637.84108 385.61401 627.242697 385.61401 614.207823z" p-id="34496"></path></svg>