<?xml version="1.0" standalone="no"?><!DOCTYPE svg PUBLIC "-//W3C//DTD SVG 1.1//EN" "http://www.w3.org/Graphics/SVG/1.1/DTD/svg11.dtd"><svg t="1562317518161" class="icon" viewBox="0 0 1085 1024" version="1.1" xmlns="http://www.w3.org/2000/svg" p-id="35947" xmlns:xlink="http://www.w3.org/1999/xlink" width="211.9140625" height="200"><defs><style type="text/css"></style></defs><path d="M703.733541 0.000237a419.210259 419.210259 0 0 1 381.692006 245.939841l-187.827974 102.613014a248.543632 248.543632 0 0 1 48.170123 441.69754 254.698046 254.698046 0 0 1-35.506233 19.646782L599.581923 979.3805v-112.673113l11.835411-2.01202L615.441374 863.985243h2.01202l3.905686-0.828479h2.248728l3.905685-0.946833h2.248729l3.787331-0.946833h2.130374l3.905686-1.065187h1.656957q9.941745-2.840499 19.528428-6.154414h1.538604l3.787331-1.420249 1.893666-0.710125 3.668978-1.420249 1.893665-0.828479 3.550624-1.420249 1.893665-0.828479 3.668978-1.538603 1.301895-0.591771 12.66389-6.036059 1.301895-0.710125 3.432269-1.775312 1.775312-0.946833 3.077207-1.656957 2.130374-1.183541 2.958853-1.656958 2.012019-1.183541 2.958853-1.775312 1.775312-1.065187 3.077207-1.893665 1.420249-0.946833 10.296808-6.864539 1.893665-1.301895 2.485437-1.893666 2.01202-1.420249 2.367082-1.775312 2.130374-1.656957 2.248728-1.775312 2.01202-1.656957 2.248728-1.893666 2.01202-1.775312 2.130374-1.775311 2.130374-1.893666 2.01202-1.775312 3.668977-3.432269 2.01202-1.893666 1.893666-1.893666 3.195561-5.089226 1.893665-1.893666 1.775312-1.893666 1.893666-2.01202 1.775312-2.01202 1.775311-2.012019 1.656958-1.893666 1.893665-2.248728 1.42025-1.775312 2.01202-2.60379 1.183541-1.538604 2.958853-4.02404 1.183541-1.656957 1.775311-2.603791 1.301896-1.893665 1.656957-2.485437 1.301895-2.012019 1.42025-2.367083 1.183541-2.01202 1.538603-2.60379 1.065187-1.893666 1.538604-2.840498 0.946832-1.775312 1.775312-3.550623v-1.065187l2.130374-4.615811 0.591771-1.420249 1.420249-3.195561 0.828479-2.01202 1.065187-2.722144 0.710124-1.893666 1.065187-2.840499 0.591771-1.893666 0.946833-2.958852v-1.893666l0.946833-3.077207v-1.775312l1.065187-4.260748v-0.710124q0-2.485436 1.065187-4.852519v-1.656957l0.59177-3.313915v-12.190474V669.884502v-3.668978-1.538603-5.207581-6.03606-4.970872-11.006933c0-1.538603 0-3.077207-0.710124-4.61581v-0.946833l-0.710125-3.905685v-1.183542l-1.065187-4.61581-1.065187-4.379102v-1.420249l0.946833-3.905686v-0.946833l-1.420249-4.379102v-1.301895l-1.183542-3.432269v-1.301896l-1.656957-4.260747v-1.301896l-1.420249-3.313915v-1.301895l-1.893666-4.02404v-1.065187l-1.656958-3.313915-0.828479-1.538603-1.656957-3.077207-0.591771-1.183541-2.248728-3.787332-1.065187-1.656957-1.538603-2.603791-0.946833-1.538603-2.367082-3.668978-1.065187-1.656957-1.656958-2.367082-1.301895-1.775312-2.130374-2.840499-1.656958-2.248728-1.656957-2.130374-1.538604-1.893666-1.656957-2.012019-5.562643-2.130374-2.130374-2.367083-1.775312-1.893665-1.538603-1.656958-1.893666-2.01202-2.840499-2.840498-2.01202-2.01202-1.420249-1.42025-2.130374-2.01202-1.301895-1.183541-3.432269-3.668977-1.301896-1.183541-2.367082-2.01202-1.183541-0.946833-4.970873-4.02404h-0.710124l-2.722145-2.130374-1.065187-0.828478-9.349974-7.219601-0.828479-0.591771-9.941745-6.62783-3.43227-2.130374-10.888578-6.272768-11.24364-5.799351-11.835411-5.562643a338.966172 338.966172 0 0 0-82.137753-23.670822l1.656958-0.946833H471.759484a44.856208 44.856208 0 0 1-44.737854-44.737854v-84.031418a44.856208 44.856208 0 0 1 44.737854-44.737854h145.102139a44.856208 44.856208 0 0 1 44.737854 44.737854v84.031418a44.382791 44.382791 0 0 1-2.367082 14.439201l161.435007-88.173812c-16.214513-88.765583-105.690221-160.014757-221.085479-177.531165V13.019189a419.920384 419.920384 0 0 1 104.151618-13.018952zM757.466307 795.694921l2.01202-1.775312z" fill="#F6AB00" p-id="35948"></path><path d="M381.81036 1024A419.210259 419.210259 0 0 1 0 778.178513l187.946327-102.613014a248.543632 248.543632 0 0 1-48.288477-441.69754 254.8164 254.8164 0 0 1 35.506233-19.646782L485.843623 44.619736v112.673113l-11.835411 2.01202-4.379102 0.828479h-2.01202l-3.905685 0.828479h-2.248729l-3.905685 0.946833h-2.248728l-3.787332 0.946833h-2.130374l-3.905685 1.065187h-1.656958q-9.941745 2.840499-19.528428 6.154413h-1.538604l-3.787331 1.42025-1.893666 0.710124-3.668977 1.42025-1.893666 0.828478-3.550623 1.42025-1.893666 0.828479-3.668978 1.538603-1.301895 0.591771-12.66389 5.917705-1.301895 0.710125-3.432269 1.775311-1.775312 0.946833-3.077207 1.656958-2.130374 1.183541-2.958852 1.656957-2.01202 1.183542-2.958853 1.775311-1.775312 1.065187-3.077206 1.893666-1.42025 0.946833-10.296807 6.864538-1.893666 1.301895-2.485436 1.893666-2.01202 1.42025-2.367083 1.775311-2.130374 1.656958-2.248728 1.775311-2.01202 1.656958-2.248728 1.893666-2.01202 1.775311-2.130374 1.775312-2.130373 1.893666-2.01202 1.775311-3.668978 3.43227-2.01202 1.893665-1.893665 1.893666-1.893666 1.893666-1.893666 1.893666-1.775312 1.893666-1.893665 2.012019-1.775312 2.01202-1.775312 2.01202-1.656957 1.893666-1.893666 2.248728-1.420249 1.775312-2.01202 2.60379-1.183541 1.538604-2.958853 4.024039-1.183541 1.656958-1.775312 2.60379-1.301895 1.893666-1.656958 2.485436-1.301895 2.01202-1.420249 2.367082-1.183541 2.01202-1.538604 2.603791-1.065187 1.893666-1.538603 2.840498-0.946833 1.775312-1.775312 3.550623v1.065187l-2.130374 4.61581-0.59177 1.42025-1.42025 3.195561-0.828478 2.01202-1.065187 2.722144L272.214454 307.720924l-1.065187 2.840498-0.591771 1.893666-0.946832 2.958853v1.893666l-0.946833 3.077207v1.775311l-1.065187 4.260748v0.710125q0 2.485436-1.065187 4.852518v1.656958l-0.591771 3.313915v49.708726q0 2.367082 0.710125 4.615811v0.946833l0.710124 3.905685v1.183541l1.065187 4.615811 1.065187 4.379102v1.420249l1.065187 3.668978v0.946832l1.42025 4.379102v1.301896l1.183541 3.432269v1.301895l1.656957 4.260748v1.301895l1.42025 3.313915v1.301896l1.893665 4.024039v1.065187l1.656958 3.313915 0.828479 1.538604 1.656957 3.077207 0.591771 1.183541 2.248728 3.787331 1.065187 1.656958 1.538603 2.60379 0.946833 1.538604 2.367083 3.668977 1.065186 1.656958 1.656958 2.367082 1.301895 1.775312 2.130374 2.840498 1.656958 2.248728 1.656957 2.130374 1.538604 1.893666 1.656957 2.01202 2.01202 2.485436 2.130374 2.367083 1.775312 1.893665 1.538603 1.656958 1.893666 2.01202 2.840499 2.840498 2.01202 2.01202 1.420249 1.42025 2.130374 2.012019 1.301895 1.183542 3.905686 3.668977 1.301895 1.183541 2.367082 2.01202 1.183541 0.946833 4.970873 4.02404h0.710125l2.722144 2.130374 1.065187 0.828478 8.994912 6.627831 0.828479 0.59177 9.941746 6.62783 3.432269 2.130374 10.888578 6.272768 11.24364 5.799352 11.835411 5.562643a339.084526 339.084526 0 0 0 82.137753 23.670822l-1.656957 0.946833h135.042039a44.856208 44.856208 0 0 1 44.737854 44.737853v84.031419A44.856208 44.856208 0 0 1 613.666062 745.631132H468.563923a44.856208 44.856208 0 0 1-44.737854-44.737853v-84.031419a44.264437 44.264437 0 0 1 2.367083-14.439201l-161.316653 88.055458c16.214513 88.765583 105.690221 160.014757 221.085478 177.531165v142.024933a419.920384 419.920384 0 0 1-104.151617 13.018952z m-53.614412-795.694684l-2.01202 1.775311z" fill="#E83820" p-id="35949"></path></svg>