<?xml version="1.0" standalone="no"?><!DOCTYPE svg PUBLIC "-//W3C//DTD SVG 1.1//EN" "http://www.w3.org/Graphics/SVG/1.1/DTD/svg11.dtd"><svg t="1562317565165" class="icon" viewBox="0 0 1024 1024" version="1.1" xmlns="http://www.w3.org/2000/svg" p-id="36581" xmlns:xlink="http://www.w3.org/1999/xlink" width="200" height="200"><defs><style type="text/css"></style></defs><path d="M243.1488 509.4144a9262.3104 9262.3104 0 0 0-69.632-68.864c-13.952-12.928-31.3344-14.7456-47.1552-2.2016-10.5728 8.3712-44.1344 38.3488-100.7616 89.9584V204.8a179.2 179.2 0 0 1 179.2-179.2h614.4a179.2 179.2 0 0 1 179.2 179.2v292.4544a15010.2528 15010.2528 0 0 0-98.9184-97.9712c-13.952-12.9024-31.3088-14.7456-47.1552-2.176-9.984 7.936-40.704 35.3024-92.1344 82.0992-135.5008-132.864-206.4384-202.1376-212.736-207.8976-8.8576-8.064-18.7648-12.672-29.0048-13.312-10.24-0.6656-20.8128 2.688-30.8992 10.5728-13.3376 10.4192-94.7968 90.7008-244.4032 240.8448z m69.4784 69.0432l179.1232-184.7552c8.8832-8.7808 15.6416-12.9792 20.2496-12.5696 4.608 0.4096 11.5968 5.8112 20.992 16.2304l460.416 464.0256A179.2768 179.2768 0 0 1 819.2 998.4h-84.992c-187.5456-186.9312-328.0896-326.912-421.5808-419.9424zM608.8704 998.4H204.8a179.2 179.2 0 0 1-179.2-179.2v-167.3984l108.9792-99.1744c6.9888-7.0144 12.3136-10.368 15.9488-10.0352 3.6096 0.3072 9.1392 4.6336 16.512 12.9536L608.896 998.4z m216.6528-455.168l35.0208-31.8464c7.0144-7.04 12.3136-10.368 15.9488-10.0608 3.6352 0.3328 9.1392 4.6592 16.5376 12.9792L998.4 619.9296v92.928c-64.5376-63.36-122.1632-119.8848-172.8768-169.6z" fill="#FE0000" p-id="36582"></path></svg>