<?xml version="1.0" standalone="no"?><!DOCTYPE svg PUBLIC "-//W3C//DTD SVG 1.1//EN" "http://www.w3.org/Graphics/SVG/1.1/DTD/svg11.dtd"><svg t="1562317613073" class="icon" viewBox="0 0 1024 1024" version="1.1" xmlns="http://www.w3.org/2000/svg" p-id="37381" xmlns:xlink="http://www.w3.org/1999/xlink" width="200" height="200"><defs><style type="text/css"></style></defs><path d="M876.97733 510.710327c0-201.188917-159.919395-361.108312-353.370277-361.108312-136.70529 0-239.879093 113.491184-239.879093 239.879093 0 113.491184 87.697733 201.188917 201.188917 201.188917 23.214106 0 49.007557-7.738035 64.483627-15.47607-72.221662 0-128.967254-56.745592-128.967255-128.967255s56.745592-128.967254 128.967255-128.967254c144.443325 0 257.934509 113.491184 257.934509 257.934509 0 121.229219-72.221662 232.141058-167.657431 288.88665 134.125945-54.166247 237.299748-190.871537 237.299748-353.370278zM515.869018 149.602015z" fill="#ffffff" p-id="37382"></path><path d="M147.02267 510.710327c0 201.188917 159.919395 361.108312 353.370277 361.108313 136.70529 0 239.879093-113.491184 239.879093-239.879093 0-113.491184-87.697733-201.188917-201.188917-201.188917-23.214106 0-49.007557 7.738035-64.483627 15.47607 72.221662 0 128.967254 56.745592 128.967255 128.967255s-56.745592 128.967254-128.967255 128.967254c-144.443325 0-257.934509-113.491184-257.934509-257.934509 0-121.229219 72.221662-232.141058 167.657431-288.88665-141.86398 56.745592-237.299748 193.450882-237.299748 353.370277zM500.392947 874.397985z" fill="#ffffff" p-id="37383"></path></svg>