<?xml version="1.0" standalone="no"?><!DOCTYPE svg PUBLIC "-//W3C//DTD SVG 1.1//EN" "http://www.w3.org/Graphics/SVG/1.1/DTD/svg11.dtd"><svg t="1562317622640" class="icon" viewBox="0 0 1024 1024" version="1.1" xmlns="http://www.w3.org/2000/svg" p-id="37605" xmlns:xlink="http://www.w3.org/1999/xlink" width="200" height="200"><defs><style type="text/css"></style></defs><path d="M651.636364 372.363636v130.327273c0 18.618182 9.309091 37.236364 18.618181 46.545455l88.436364 88.436363c4.654545 4.654545 4.654545 13.963636 0 23.272728l-88.436364 88.436363c-13.963636 13.963636-18.618182 27.927273-18.618181 46.545455v130.327272c153.6 0 279.272727-125.672727 279.272727-279.272727 0-148.945455-125.672727-274.618182-279.272727-274.618182z m97.745454-18.618181c13.963636 13.963636 27.927273 18.618182 46.545455 18.618181H930.909091c0-153.6-125.672727-279.272727-279.272727-279.272727S372.363636 218.763636 372.363636 372.363636h130.327273c18.618182 0 37.236364-9.309091 46.545455-18.618181l88.436363-88.436364c4.654545-4.654545 13.963636-4.654545 23.272728 0l88.436363 88.436364z m-279.272727 316.50909l-88.436364 88.436364c-4.654545 4.654545-13.963636 4.654545-23.272727 0l-88.436364-88.436364c-13.963636-13.963636-27.927273-18.618182-46.545454-18.618181H93.090909c0 153.6 125.672727 279.272727 279.272727 279.272727s279.272727-125.672727 279.272728-279.272727h-130.327273c-18.618182 0-37.236364 9.309091-51.2 18.618181zM372.363636 651.636364v-130.327273c0-18.618182-9.309091-37.236364-18.618181-46.545455l-93.09091-93.090909c-4.654545-4.654545-4.654545-13.963636 0-18.618182l88.436364-88.436363c13.963636-13.963636 23.272727-32.581818 23.272727-51.2V93.090909C218.763636 93.090909 93.090909 218.763636 93.090909 372.363636s125.672727 279.272727 279.272727 279.272728z" fill="#4AB4C7" p-id="37606"></path><path d="M544.581818 591.127273c23.272727 0 41.890909-18.618182 41.890909-41.890909v-69.818182c0-23.272727-18.618182-41.890909-41.890909-41.890909h-65.163636c-23.272727 0-46.545455 18.618182-46.545455 41.890909v65.163636c0 23.272727 18.618182 41.890909 41.890909 41.890909h69.818182z" fill="#F0C820" p-id="37607"></path></svg>