<?xml version="1.0" standalone="no"?><!DOCTYPE svg PUBLIC "-//W3C//DTD SVG 1.1//EN" "http://www.w3.org/Graphics/SVG/1.1/DTD/svg11.dtd"><svg t="1562317657234" class="icon" viewBox="0 0 1024 1024" version="1.1" xmlns="http://www.w3.org/2000/svg" p-id="38141" xmlns:xlink="http://www.w3.org/1999/xlink" width="200" height="200"><defs><style type="text/css"></style></defs><path d="M739.8548256 72.63021653c158.60484267 82.72678827 267.3019264 248.7982112 267.3019264 439.4552896 0 190.65845653-108.69708267 356.72988053-267.3019264 439.41805227v-119.53700267c99.84586133-71.36418027 165.1336192-188.26153813 165.1336192-319.8810496s-65.28775787-248.5182496-165.1336192-319.88794666V72.63021653z m0 685.19322347a346.31197333 346.31197333 0 0 0 24.13468053-24.82975893 273.27353493 273.27353493 0 0 0-24.13468053-25.00628694v49.83604587z m0-118.7329728c20.5903296 14.40909333 39.7312 31.0068576 56.92060907 49.76157333 31.67159573-50.76971307 50.17668907-110.57407147 50.59732266-174.546144-37.7480192 11.6370528-72.548848 26.67226987-104.49626986 45.08082454l-3.02166187 1.73355946v77.97018667z m0-143.74201707c32.0163776-15.76891093 66.715152-27.57697493 103.3860736-35.77173333-7.29418987-46.11930453-24.03262507-89.179712-48.2045408-127.07253867-16.94254507 5.3868608-35.38833707 15.2131232-55.1815328 26.77984107v136.06443093z m0-197.32790293c7.11628267-3.679504 14.20636267-7.05146347 21.2909248-10.03589013-6.73978133-7.53691627-13.89330133-14.76214933-21.2909248-21.63570667v31.6715968zM643.82776 34.78014293a494.58441493 494.58441493 0 0 1 96.0270656 37.8500736v119.57423894c-29.55464-21.15025493-61.8509792-38.0279808-96.0270656-50.28839894V34.78014293z m96.0270656 916.72479467a494.090688 494.090688 0 0 1-96.05878507 37.88868907v-107.1359136a392.60366827 392.60366827 0 0 0 96.05878507-50.3201184v119.56734293z m0-685.1559872v31.6715968c-13.19822187 6.81011733-26.5702144 14.65871467-40.38766293 22.95552853a264.4278304 264.4278304 0 0 0-13.44094827-12.25490133 249.64913173 249.64913173 0 0 0-33.6533984-24.03262507 516.0380768 516.0380768 0 0 0-8.5436768-4.86417173V203.76565653c35.56486507 15.28345813 68.0018752 36.574384 96.0256864 62.58329387z m0 92.9350688v136.06443093c-35.6310624 17.5024704-67.96463787 39.93531093-96.05878507 67.71915414V418.04162133l1.00676054-4.86417173c26.5646976-12.810688 50.45665173-27.18944107 72.92672853-40.70072533a1669.39720427 1669.39720427 0 0 1 22.125296-13.19270507z m0 201.83626133c-21.95290453 12.88653973-42.40256427 27.29701227-61.29519147 43.2383136a372.3222624 372.3222624 0 0 1 53.064576 29.1395232c2.78031467 1.8052736 5.48891627 3.679504 8.23199467 5.58821227v-77.96604907z m0 146.8712512v49.83190827a339.01916267 339.01916267 0 0 1-33.34171627 27.1949568 240.2669472 240.2669472 0 0 0-25.93995413-24.10296c-11.5336192-9.2387552-23.86023467-17.36179947-36.7467744-24.3443072v-87.48200853c35.25594027 13.65057493 68.00463253 33.20104533 96.0284448 58.90241066z m-96.0270656 112.41520214v-20.0083392c1.045376 0.80265067 2.1555712 1.67011947 3.19405227 2.50449066a179.89714773 179.89714773 0 0 1 11.98183466 10.48410454 397.70780907 397.70780907 0 0 1-15.17588693 7.019744z m0-466.887456v-10.0041696a201.82660693 201.82660693 0 0 1 7.33142613 5.93713173c-2.43415467 1.35705813-4.89589227 2.70997973-7.33142613 4.06703787zM512.0027584 16.89427627c45.62971627 0 89.80445547 6.24881387 131.8250016 17.88586666v107.1359136c-41.2551328-14.76214933-85.63536213-22.8148576-131.8250016-22.8148576V16.89427627z m131.8250016 972.4979712c-42.0205472 11.6370528-86.1952864 17.88586667-131.8250016 17.88586666v-102.20554346c46.18964053 0 90.56986987-8.05408747 131.8250016-22.8148576v107.1345344z m0-785.62659094v76.05734187c-40.2483712-21.80809707-86.1249504-32.78179093-131.8250016-32.781792V176.67965013c46.7454272 0 91.30218453 9.653872 131.8250016 27.0860064z m0 139.74945174v9.99865386c-9.61663573 5.2103328-19.44841493 10.21379627-29.44706773 14.83110507-0.97504107 0.45235307-1.67011947 0.72679893-3.54434987 1.59426773-16.46398933 7.3645248-33.89612373 13.79124587-52.47155307 18.4402752-14.6904352 3.6850208-30.10904747 6.21709333-46.36203093 7.15489814v-94.77206187c39.7312 0.03309867 79.3534496 10.03726827 113.07718187 30.10904747a204.28834453 204.28834453 0 0 1 18.74781973 12.6438144z m0 74.52651306v145.02460374l-2.78031467 2.77893546c-2.32244587-14.37875307-3.82017493-31.9460416-4.37458346-50.97933973-0.9364256-32.09085013 1.21776747-66.9895968 7.15489813-96.82419947z m0 231.04749974v87.48200853c-40.2483712-21.84533333-86.08771413-32.74869227-131.8250016-32.74869227v-78.59355093c45.14426347-0.0648192 90.225088 7.7837792 131.8250016 23.86023467z m0 151.3092736v20.0083392a333.4185376 333.4185376 0 0 1-131.8250016 27.0873856v-89.94512534c47.37017067 0 94.52933653 14.30841707 131.8250016 42.84940054z m-131.8250016-230.9054496v-119.57010027c28.13138347-0.48407253 47.37017067-5.48891627 74.596848-13.68229547-3.26438827 26.390928-4.41181973 54.17339307-3.6850208 80.1174848 0.62474347 21.49503573 2.6396448 42.1281184 5.90403307 60.15465494a418.787728 418.787728 0 0 0-76.81586027-7.019744z m0 437.78516906a494.05069333 494.05069333 0 0 1-133.08000533-18.23064746v-107.24348587c41.5999136 15.035216 86.40491307 23.26721067 133.08000533 23.26721067v102.20692266zM378.92275307 35.12492373C421.2935968 23.25204053 465.91517333 16.89427627 512.0027584 16.89427627v102.20692266c-46.67509227 0-91.48009173 8.1933792-133.08000533 23.26721067V35.12492373z m133.08000533 141.5547264v70.36155627c-2.01490133 0-4.0298016 0-6.04470293 0.070336-44.2450752 0.89918933-88.31224213 12.01355413-127.0353024 33.30309973v-76.08906133c40.840016-17.782432 85.85050453-27.64593173 133.08000533-27.64593067z m0 124.08259627v94.77757867c-3.6850208 0.20411093-7.4348608 0.3447808-11.22193707 0.38201706-14.2698016 0.1723904-28.33687253-2.0521376-42.294992-5.94126826-14.6200992-4.0946208-29.5532608-10.0689888-44.66432853-17.01288107 0.24686293 0.0648192 0.1779072 0.0648192-0.79713493-0.42063253l0.03723733 0.07033493c-0.38201707-0.14067093-0.593024-0.27444587-0.2427264-0.07033493-17.71347627-8.09132373 4.02428587 1.77217493-0.07033493-0.14067094-11.4632832-5.34410773-22.711424-11.10746987-33.8257888-16.98116053v-10.86612267a187.38993173 187.38993173 0 0 1 12.36385173-8.82363946c33.96094293-22.43284053 74.6658048-34.03679467 115.71130987-34.935984 1.67011947 0.0013792 3.3347232-0.03723627 5.00484373-0.03723627z m0 149.1605984v119.57010027h-1.74045547a413.14159147 413.14159147 0 0 0-75.70566506 7.3272896c3.19405227-17.5024704 5.2089536-37.5756288 5.87231253-58.44592107 0.8288544-25.4545024-0.14067093-56.08623787-3.19543147-82.13238507 17.153552 5.24067307 55.66698453 13.88778453 73.30874667 13.68229547h1.4604928z m0 175.3060416v78.59355093h-2.08523627c-45.59661653 0.31444053-91.12979413 11.49638293-130.99476906 33.37343574v-87.13860694c41.43304-16.42537387 86.46973227-24.54979627 131.55055573-24.82975893h1.5294496z m0 132.32010773v89.94512534c-47.2295008 0-92.23998933-9.86349867-133.08000533-27.64730987v-18.47337387c36.9826048-28.85818133 83.9707584-43.4796608 131.20577493-43.8299584h1.8742304v0.0055168z m-133.08000533-191.805888V415.7467584l0.20962666 0.1075712c6.38948373 30.9447968 8.67883093 67.4750496 7.57001494 100.81676587-0.62612267 19.5504704-2.2907264 37.47357333-4.795216 51.8840448l-2.9844256-2.81203414z m0 423.30436054a494.98573973 494.98573973 0 0 1-77.02686614-28.75750614v-116.3746688c24.20501547 15.41861227 50.04291413 28.0941472 77.02686614 37.88868907v107.24348587zM301.89588693 63.88105067c24.82975893-11.73772907 50.59732267-21.32126613 77.02686614-28.75612694v107.24348587c-26.983952 9.76144427-52.788752 22.4700768-77.02686614 37.8555904V63.88105067z m77.02686614 140.44453013v76.08906133c-5.904032 3.227152-11.59843733 6.70254507-17.22250774 10.38205014-10.14484053 6.70116587-20.0731584 14.41047253-29.69531093 23.12653973a272.17299413 272.17299413 0 0 0-11.08126613 10.73648533 645.713024 645.713024 0 0 0-19.02778134-9.27599253V251.00067307c23.3375456-18.82780907 49.2071648-34.5912032 77.02686614-46.67509227z m0 140.22938773v10.8716384l-8.05960427-4.272528a186.40523627 186.40523627 0 0 1 8.05960427-6.5991104z m0 71.19178987v149.99634773c-23.9995264-22.39974187-49.7988096-41.50337493-77.02686614-57.33572586v-133.2910112c10.55444053 5.45167893 21.11301867 11.14608533 31.67159574 16.8460064 15.2089856 8.23199467 30.45382933 16.42537387 45.3552704 23.78438293z m0 234.31740373v87.13171094c-13.7540096 7.57001493-26.81156053 16.3936544-38.99750614 26.53297813a232.130112 232.130112 0 0 0-22.4700768 21.2895456 338.75161173 338.75161173 0 0 1-15.5592832-11.84116267v-79.28311466c23.37064533-18.34373653 49.385072-32.89487893 77.02686614-43.82995734z m0 151.3092736v18.47337387a376.0707232 376.0707232 0 0 1-13.95812054-6.45981973 212.30243733 212.30243733 0 0 1 9.3739104-8.32853334c1.5294496-1.25500373 3.05476053-2.4672544 4.58421014-3.6850208z m-77.02686614-173.29527786v-53.34453867a440.24828587 440.24828587 0 0 1 41.2551328 31.186144c-14.1677472 6.53015467-27.95899307 13.89468053-41.2551328 22.15839467z m0 332.21318186c-14.3456544-6.73978133-28.34101013-14.20636267-41.9543488-22.2921696v-124.85214826a395.93011733 395.93011733 0 0 0 41.9543488 30.77102826v116.3732896zM259.94153813 86.17873707c13.61333867-8.09132373 27.60869547-15.557904 41.9543488-22.2976864v116.34294933a396.65277867 396.65277867 0 0 0-41.9543488 30.76551147v-124.8107744z m41.9543488 164.81642026v64.38856747c-13.79124587-6.42120427-27.74936533-12.22456-41.9543488-16.87910507v-7.22385493a341.26851413 341.26851413 0 0 1 41.9543488-40.28560747z m0 124.12121174v133.2910112a415.12201493 415.12201493 0 0 0-41.9543488-21.39849707v-131.4098848c13.89330133 5.5592512 27.92175573 12.2935168 41.9543488 19.51737067z m0 199.61725013v53.34453867a336.77670613 336.77670613 0 0 0-12.50314346 8.16165866c-10.20828053 6.98250773-20.04005973 14.41047253-29.45120534 22.39974187v-108.70259947a480.1049856 480.1049856 0 0 1 17.81553174 9.79868054 469.0444064 469.0444064 0 0 1 24.13881706 14.99797973z m0 119.15498453v79.2831136a338.6302496 338.6302496 0 0 1-41.2606496-39.52019413c12.4659072-14.79386987 26.327488-28.05691093 41.2606496-39.76291947zM259.94153813 937.99917013C114.5666368 851.52392213 16.843248 692.88597973 16.843248 512.08688533c0-180.79495787 97.7233888-339.4370368 243.09829013-425.90814826v124.8107744C173.88554347 283.18944107 119.017072 391.43968747 119.017072 512.08688533S173.88554347 740.98294933 259.94153813 813.14564267v124.85352746z m0-646.71840533a256.45097387 256.45097387 0 0 0-4.8600352 5.66268587c1.59426773 0.522688 3.227152 1.00676053 4.8600352 1.56116906v-7.22385493z m0 64.3182336c-12.70863253-5.1399968-25.282112-9.27185493-37.7493984-11.9432192a332.32902933 332.32902933 0 0 0-41.63714986 117.10146773c27.22667733 6.18399467 53.75965547 14.90144107 79.38654826 26.25715307v-131.4154016z m0 194.33796053c-25.87513493-13.46853013-53.61898453-24.9318144-83.27568-34.31124053 0.65646293 63.80106133 19.307744 123.42613333 51.04829654 174.0289728 10.0689888-11.01230933 20.79995733-21.39435947 32.22738346-31.0151328v-108.70259947z m0 0" fill="#ffffff" p-id="38142"></path></svg>