<?xml version="1.0" standalone="no"?><!DOCTYPE svg PUBLIC "-//W3C//DTD SVG 1.1//EN" "http://www.w3.org/Graphics/SVG/1.1/DTD/svg11.dtd"><svg t="1562317677137" class="icon" viewBox="0 0 1079 1024" version="1.1" xmlns="http://www.w3.org/2000/svg" p-id="38416" xmlns:xlink="http://www.w3.org/1999/xlink" width="210.7421875" height="200"><defs><style type="text/css"></style></defs><path d="M622.187366 377.560162c-7.945418 2.597541-13.446092-3.361523-19.71075-5.806267-86.177228-32.851248-166.700986-24.141848-239.584918 33.768027-112.76382 89.538752-75.328677 276.561673 40.796666 328.512485a360.752547 360.752547 0 0 0 278.242435 6.570249A183.355805 183.355805 0 0 0 784.15166 641.745318c35.754382-74.870287 42.171835-154.171673 36.212772-235.306617a369.76754 369.76754 0 0 0-19.557953-98.706541C768.41362 218.499001 699.3496 173.729625 611.186017 152.796504 405.369126 104.054419 209.7896 196.496305 106.957553 388.714307 65.396904 466.334931 51.798015 550.067415 48.130899 635.633458c-1.375169 32.698452 0 65.5497 0 103.748826a192.523595 192.523595 0 0 1-41.255056-88.010786C-16.807615 473.669163 20.169139 312.621648 139.350412 176.785555 262.351598 36.518365 418.815218-20.780325 604.615768 6.723046c124.376355 18.335581 235.765006 65.5497 325.456554 155.394045 115.972547 117.042122 163.186667 260.976429 145.462272 424.0103C1048.948002 831.36578 842.061535 1022.667003 572.986891 1023.736579a504.992447 504.992447 0 0 1-275.033708-71.050375C196.496305 889.275655 144.2399 794.541822 132.168976 677.194107a431.038939 431.038939 0 0 1 12.376517-169.298527c34.990399-116.125343 146.684644-210.859176 267.241086-221.402134a253.183808 253.183808 0 0 1 202.608165 76.398252c3.819913 3.819913 9.014994 7.487029 7.792622 14.668464z" fill="#E6231B" p-id="38417"></path><path d="M647.857178 533.107004v69.828002a36.059975 36.059975 0 0 1-39.727091 39.727091h-130.029825a36.365568 36.365568 0 0 1-39.727091-39.879888v-139.656004a37.282347 37.282347 0 0 1 41.10226-41.10226h128.04347a36.671161 36.671161 0 0 1 40.491074 41.255056c0.152797 23.225069-0.152797 46.602934-0.152797 69.828003z" fill="#E6231B" p-id="38418"></path><path d="M631.660749 360.141361a67.994444 67.994444 0 0 1-23.377865-20.016342 197.413084 197.413084 0 0 0-83.274095-57.604283c-26.280999-8.251011-36.823958-35.143196-45.838952-59.743433-2.750337-7.334232-13.598889-17.571598-3.361523-23.225068s12.529313 8.709401 17.571598 15.27965a122.237203 122.237203 0 0 0 64.174532 40.796667c38.351923 8.862197 75.787066 63.104956 74.106305 104.512809z" fill="#E62F24" p-id="38419"></path></svg>