<?xml version="1.0" standalone="no"?><!DOCTYPE svg PUBLIC "-//W3C//DTD SVG 1.1//EN" "http://www.w3.org/Graphics/SVG/1.1/DTD/svg11.dtd"><svg t="1562317699484" class="icon" viewBox="0 0 1024 1024" version="1.1" xmlns="http://www.w3.org/2000/svg" p-id="38958" xmlns:xlink="http://www.w3.org/1999/xlink" width="200" height="200"><defs><style type="text/css"></style></defs><path d="M100.231819 498.025731c0-7.818059 0-14.081717 0-20.345374 0.005117-130.006959 0.323365-260.015965-0.346901-390.018831-0.093121-18.019399 4.387937-24.198122 23.407106-24.15412 258.731716 0.592494 517.465478 0.550539 776.198218 0.072655 17.733896-0.032746 24.77936 4.012384 24.623817 23.264866-0.828878 102.461603-0.659009 204.935486-0.081864 307.401182 0.082888 14.744819-4.623297 23.094998-17.739013 30.063713-41.23617 21.907962-81.607646 45.438888-122.683157 67.657936-7.537673 4.077875-16.803711 6.994298-25.278733 7.009647-214.543308 0.372483-429.086615 0.290619-643.629923 0.23843C110.899786 499.214812 107.098203 498.609015 100.231819 498.025731z" p-id="38959"></path><path d="M101.1794 525.046131c7.726985 0 13.978363 0 20.230764 0 258.710226-0.00307 517.420453-0.011256 776.129656 0 26.1598 0.001023 26.215058 0.057305 26.218128 26.733874 0.01228 100.537787-0.394996 201.079668 0.352017 301.612339 0.121773 16.389272-5.279237 25.337061-19.559475 32.894178-40.698934 21.537526-80.43903 44.881187-120.994702 66.698075-8.052396 4.331655-18.050098 7.098675-27.157523 7.115048-211.32194 0.38374-422.644903 0.237407-633.966842 0.39295-13.734816 0.010233-22.61302-1.26583-22.522969-19.374256 0.671289-134.474714 0.349971-268.953522 0.376577-403.431306C100.287077 534.526039 100.718913 531.365046 101.1794 525.046131z" p-id="38960"></path></svg>