<?xml version="1.0" standalone="no"?><!DOCTYPE svg PUBLIC "-//W3C//DTD SVG 1.1//EN" "http://www.w3.org/Graphics/SVG/1.1/DTD/svg11.dtd"><svg t="1562317719420" class="icon" viewBox="0 0 1024 1024" version="1.1" xmlns="http://www.w3.org/2000/svg" p-id="39231" xmlns:xlink="http://www.w3.org/1999/xlink" width="200" height="200"><defs><style type="text/css"></style></defs><path d="M439.878707 353.28a58.9824 58.9824 0 0 0 2.048-17.0496c-28.7232-81.2032-31.1296-169.6256-76.8-242.3808C338.195507 50.2272 296.057907 24.7808 240.659507 56.32c-49.8688 28.0576-60.7232 75.52-35.84 116.7872a564.5312 564.5312 0 0 0 179.2 180.7872h55.8592zM353.299507 402.8416c-28.3648-69.3248-91.3408-102.7072-133.9904-151.04-30.208-34.3552-72.5504-43.6736-115.8656-26.5216-33.536 13.4144-47.6672 40.96-45.7728 77.9264 2.56 50.8928 35.84 75.8784 77.568 88.4224 67.584 20.48 136.7552 35.84 218.2656 56.576v-45.568z m0 96.512c-83.3536-30.1056-167.8336-56.7808-257.1264-64.8704C38.419507 429.3632-1.004493 457.216 0.019507 517.9392 1.094707 583.68 46.816307 614.4 105.286707 603.0848c83.968-16.5376 165.4784-44.544 248.064-68.4544z m0 81.92a18.688 18.688 0 0 0-15.36-0.6656c-83.0976 25.9584-173.4144 29.7472-249.088 78.2848-35.84 22.8864-39.0656 59.6992-28.0576 95.488 11.8784 38.7072 43.52 54.3744 83.4048 53.504 41.984-1.3824 174.08-117.504 208.9984-176.9984v-49.5616zM399.123507 670.72c-69.3248 33.3824-103.7312 95.1296-152.2176 138.24a91.0848 91.0848 0 0 0-23.7568 108.544c13.9264 32 41.2672 50.2272 78.9504 47.3088 45.056-3.6352 73.7792-30.464 86.016-70.5024 21.1456-69.6832 38.1952-140.544 59.8528-223.6416z m126.9248 0H497.171507c-32.8704 91.8528-54.6816 171.1616-63.7952 252.672-6.1952 55.04 21.1456 98.7136 83.968 97.8944 66.56-0.8704 98.048-46.08 85.2992-105.6256-16.5376-78.7968-32.3584-159.2832-76.8-244.9408z m269.7216 162.4064c-40.6016-65.024-92.16-120.9344-171.6736-162.4064h-49.0496c25.2928 89.088 43.52 164.096 70.5024 235.52 17.2032 45.7728 57.8048 74.2912 111.3088 50.2272 56.9856-25.5488 67.4816-77.824 38.912-123.392z m168.96-109.2096c-4.6592-48.0768-37.9904-76.1344-80.384-89.0368-65.8944-19.7632-133.12-35.84-213.6576-56.32v52.736c32 65.6896 89.6 100.608 133.4784 145.7152 31.488 32.3584 72.3968 45.4144 116.4288 26.8288 33.8944-14.6432 47.6672-44.7488 44.1856-79.9744z m43.52-261.12c-22.1696-34.7648-60.2112-41.7792-95.488-32.8704-81.5104 20.48-161.6896 46.08-242.3808 70.1952v36.8128c80.3328 20.48 160.512 42.1376 241.3568 60.8768 36.9664 8.6016 72.0896-1.024 95.1296-34.2528s22.1696-68.096 1.3824-100.8128z m-50.8928-189.44c-23.04-53.1456-72.7552-72.0896-120.7296-39.3728-62.5152 42.0864-124.4672 87.7056-165.888 165.376v51.2c88.576-22.3744 161.1776-37.8368 231.168-61.44 52.2752-17.2032 79.3088-61.44 55.552-116.1216z m-192.5632-203.008c-56.32-32.6656-104.2432-2.9184-125.9008 52.48a980.48 980.48 0 0 0-59.3408 230.4h51.2c65.6896-38.3488 108.032-94.6176 151.1936-147.7632 37.5808-46.0288 38.7584-102.6048-17.152-135.1168zM497.478707 353.28h27.5456c33.8944-82.7392 46.4384-157.2352 62.6176-230.4 8.6016-39.3728 5.8368-78.7968-33.3824-104.7552C527.379507 0.512 499.936307-3.6352 471.725107 14.08 430.099507 40.2432 419.859507 80.3328 428.512307 125.0304 442.438707 198.656 460.819507 271.36 497.478707 353.28z" fill="#892020" p-id="39232"></path></svg>