<?xml version="1.0" standalone="no"?><!DOCTYPE svg PUBLIC "-//W3C//DTD SVG 1.1//EN" "http://www.w3.org/Graphics/SVG/1.1/DTD/svg11.dtd"><svg t="1562317728603" class="icon" viewBox="0 0 1024 1024" version="1.1" xmlns="http://www.w3.org/2000/svg" p-id="39441" xmlns:xlink="http://www.w3.org/1999/xlink" width="200" height="200"><defs><style type="text/css"></style></defs><path d="M480.573 667.136c0-18.565 0-35.763 0-52.961 0.005-36.086 0.384-72.177-0.184-108.242-0.195-12.626 4.152-17.756 16.922-20.372 75.827-15.56 150.272-36.26 218.614-73.513 28.042-15.293 54.103-34.647 79.421-54.282 11.848-9.196 21.417-22.477 29.174-35.584 20.26-34.253 11.203-65.464-23.629-84.833-33.070-18.386-69.944-24.428-106.455-22.615-63.995 3.174-127.764 10.88-192.128 18.903 14.423-5.089 28.713-10.624 43.305-15.145 15.334-4.751 30.833-9.149 46.495-12.646 87.916-19.604 176.379-29.932 266.153-13.875 9.472 1.69 18.872 4.035 28.104 6.738 94.812 27.745 131.953 110.618 89.17 199.967-27.699 57.861-74.793 97.935-126.925 132.188-105.82 69.54-222.925 110.889-346.624 134.84-6.098 1.188-12.498 0.876-21.412 1.434z" p-id="39442"></path><path d="M348.503 310.584c-12.503 8.724-25.764 16.589-37.233 26.511-6.994 6.047-11.233 15.278-17.285 23.895-17.659-4.71-28.109 13.041-39.511 24.325-18.529 18.335-36.603 38.211-49.956 60.39-14.367 23.869-32.282 47.606-29.297 78.828 1.137 11.919 1.357 24.776-1.869 36.111-7.542 26.516 12.058 44.032 22.42 62.31 8.776 15.478 29.522 27.269 47.473 33.756 30.351 10.972 62.546 17.065 94.234 24.003 17.884 3.922 36.234 6.124 54.497 7.839 16.404 1.531 32.968 1.469 49.464 1.859 12.948 0.307 15.652 7.706 21.043 19.067 10.793 22.707 0.64 48.599 16.42 70.487 10.199 14.152-8.151 43.203-29.972 53.422-4.639 2.171-9.631 4.879-14.525 5.018-28.723 0.799-57.564 2.514-86.175 0.783-28.406-1.72-56.607-7.035-84.854-11.054-4.987-0.717-9.846-2.668-14.633-4.408-20.823-7.578-40.141-20.47-64.287-15.8-4.884 0.942-11.761-2.028-16.031-5.356-25.784-20.076-51.215-40.612-76.447-61.384-8.878-7.311-20.531-14.208-24.504-23.926-8.392-20.541-14.889-42.501-17.782-64.461-2.683-20.383-1.439-41.774 1.434-62.254 1.966-14.044 8.509-27.884 15.145-40.714 7.352-14.203 16.794-27.387 25.938-40.586 16.323-23.557 32.835-47.002 49.884-70.031 4.925-6.661 9.928-15.606 21.949-8.98 1.531 0.845 11.443-8.561 13.399-14.546 3.574-10.972 6.277-20.603 19.881-22.769 3.773-0.599 8.924-4.869 9.953-8.453 7.455-26.004 38.559-29.947 48.947-53.161 1.188-2.662 7.685-5.75 9.851-4.721 17.521 8.356 25.723-7.132 36.756-14.085 19.697-12.421 38.589-26.107 57.82-39.265 1.101 1.331 2.207 2.662 3.308 3.988-5.315 6.712-11.443 12.969-15.58 20.347-1.853 3.302 0.297 8.842 0.635 13.363l-0.512-0.348z" p-id="39443"></path><path d="M482.888 367.514c-0.020-28.145 0-28.068 28.099-35.466 19.896-5.243 39.91-10.127 59.52-16.297 12.595-3.968 18.15 1.229 21.187 12.257 1.7 6.205 2.867 12.616 5.202 18.57 5.156 13.097-0.768 19.313-12.744 22.579-24.197 6.595-48.358 13.302-72.535 19.999-28.703 7.956-28.703 7.972-28.728-21.642z" p-id="39444"></path><path d="M349.005 310.922c17.9-11.489 35.804-22.973 53.704-34.458 1.050 1.848 2.094 3.702 3.144 5.55-19.092 9.533-38.185 19.072-57.308 28.59-0.041-0.020 0.461 0.317 0.461 0.317z" p-id="39445"></path></svg>