<?xml version="1.0" standalone="no"?><!DOCTYPE svg PUBLIC "-//W3C//DTD SVG 1.1//EN" "http://www.w3.org/Graphics/SVG/1.1/DTD/svg11.dtd"><svg t="1562317744448" class="icon" viewBox="0 0 1024 1024" version="1.1" xmlns="http://www.w3.org/2000/svg" p-id="39590" xmlns:xlink="http://www.w3.org/1999/xlink" width="200" height="200"><defs><style type="text/css"></style></defs><path d="M0 512V83.2C0 27.733333 27.733333 0 83.2 0h851.2C996.266667 0 1024 27.733333 1024 87.466667v849.066666c0 59.733333-27.733333 87.466667-87.466667 87.466667H81.066667C27.733333 1024 0 994.133333 0 940.8V512z m637.866667-294.4c0 8.533333 2.133333 10.666667 2.133333 14.933333V810.666667c0 17.066667-6.4 21.333333-23.466667 21.333333h-134.4c-19.2 0-25.6 6.4-25.6 25.6 0 19.2 2.133333 40.533333 0 61.866667s6.4 29.866667 29.866667 29.866666c78.933333 0 157.866667-2.133333 236.8 0 25.6 0 34.133333-8.533333 32-34.133333V486.4v-29.866667h93.866667v462.933334c0 21.333333 6.4 29.866667 27.733333 27.733333 17.066667-2.133333 34.133333 0 51.2 0 36.266667 0 36.266667 0 36.266667-36.266667V371.2c0-32 0-34.133333-34.133334-34.133333h-170.666666v-117.333334H921.6c42.666667 0 42.666667 0 42.666667-44.8V136.533333c0-34.133333 0-34.133333-34.133334-34.133333H392.533333c0-6.4-2.133333-8.533333-2.133333-12.8 4.266667-23.466667-8.533333-29.866667-29.866667-29.866667-25.6 2.133333-53.333333 2.133333-78.933333 0-17.066667 0-23.466667 6.4-23.466667 21.333334 0 6.4-2.133333 10.666667-2.133333 19.2H91.733333C68.266667 100.266667 59.733333 106.666667 61.866667 128c2.133333 19.2 0 36.266667 0 55.466667 0 32 2.133333 34.133333 34.133333 34.133333h541.866667z m-418.133334 202.666667c-2.133333 2.133333-2.133333 4.266667-4.266666 6.4H89.6c-17.066667 0-25.6 6.4-23.466667 23.466666v49.066667c0 42.666667 0 42.666667 44.8 42.666667h149.333334v85.333333H91.733333c-19.2 0-25.6 6.4-25.6 25.6 0 21.333333 2.133333 42.666667 0 64s8.533333 27.733333 27.733334 27.733333h138.666666c8.533333 0 17.066667 2.133333 27.733334 2.133334v170.666666c0 19.2 6.4 29.866667 27.733333 27.733334 21.333333-2.133333 44.8 0 66.133333 0 17.066667 0 23.466667-6.4 23.466667-23.466667v-96-81.066667H554.666667c19.2 0 25.6-6.4 25.6-25.6 0-19.2-2.133333-40.533333 0-61.866666s-6.4-29.866667-29.866667-29.866667c-40.533333 2.133333-78.933333 0-119.466667 0h-51.2v-85.333333h164.266667c36.266667 0 36.266667 0 36.266667-34.133334v-51.2c2.133333-21.333333-6.4-29.866667-29.866667-29.866666-36.266667 2.133333-70.4 0-106.666667 0-6.4 0-12.8-2.133333-25.6-4.266667 21.333333-21.333333 40.533333-38.4 57.6-55.466667 51.2-51.2 51.2-51.2 0-104.533333-29.866667-29.866667-29.866667-29.866667-59.733333 0-32 32-61.866667 64-93.866667 96l-104.533333-104.533333c-14.933333-17.066667-27.733333-19.2-44.8 0-12.8 14.933333-25.6 27.733333-40.533333 40.533333-14.933333 12.8-14.933333 25.6 0 38.4 29.866667 32 57.6 59.733333 87.466666 87.466667zM121.6 945.066667c64 0 59.733333 8.533333 59.733333-53.333334 0-74.666667 6.4-61.866667-61.866666-64-64 0-55.466667-4.266667-55.466667 57.6 0 68.266667-10.666667 57.6 57.6 59.733334z" fill="#D2050C" p-id="39591"></path></svg>