<?xml version="1.0" standalone="no"?><!DOCTYPE svg PUBLIC "-//W3C//DTD SVG 1.1//EN" "http://www.w3.org/Graphics/SVG/1.1/DTD/svg11.dtd"><svg t="1562317763799" class="icon" viewBox="0 0 1024 1024" version="1.1" xmlns="http://www.w3.org/2000/svg" p-id="39844" xmlns:xlink="http://www.w3.org/1999/xlink" width="200" height="200"><defs><style type="text/css"></style></defs><path d="M639.785047 646.664427l-127.613033 126.581122-127.613033-138.276117s-84.272758 42.136379-49.187773 182.820289c0 0 63.462546 141.371851 157.022506 205.694323 6.535438 0.171985 13.242862 0.515956 19.950285 0.515956 223.408801 0 413.108498-143.091703 483.106483-342.594558-15.994625 11.179039-98.375546 54.175344-355.665435-34.741015zM328.147829 459.200537l183.8522-175.768894 242.49916 234.243869-63.290561 70.341955s210.85388 72.577763 309.229426-217.905274c0.687941-1.891837 1.203897-3.61169 1.891837-5.503527C939.211315 153.754787 743.66412 0 512.000029 0 243.5311 0 23.562004 206.726234 2.063852 469.691636c16.854552-10.319113 148.939201-84.788713 326.083977-10.491099z" p-id="39845"></path><path d="M374.927809 613.81525s96.139738-46.77998 365.468592 37.492778c0 0 188.667786 59.162916 266.749076-9.115216 10.835069-41.620423 16.682566-85.304669 16.682567-130.192812 0-28.549547-2.407793-56.583137-7.051394-83.928787-38.180719 79.629157-142.747733 224.268727-386.622775 168.201545 0 0-178.520658-63.978502-283.431643-113.510245 0 0-182.648304-77.221364-346.722203 30.441384 0.171985 55.551226 9.115217 109.038629 25.625798 159.086328 154.958683-162.698018 319.720524-132.944575 391.266375-112.134363 72.577763 21.154182 236.651663 56.239167 236.651663 56.239167-156.678535-28.377561-273.80047-47.12395-273.80047-47.123951C163.557973 559.295936 66.558309 677.793752 41.964423 714.426604c70.51394 163.213974 223.408801 282.571716 406.401074 305.273765-61.398724-58.30299-271.392677-264.341283-73.437688-405.885119z" p-id="39846"></path></svg>