<?xml version="1.0" standalone="no"?><!DOCTYPE svg PUBLIC "-//W3C//DTD SVG 1.1//EN" "http://www.w3.org/Graphics/SVG/1.1/DTD/svg11.dtd"><svg t="1562317798339" class="icon" viewBox="0 0 1024 1024" version="1.1" xmlns="http://www.w3.org/2000/svg" p-id="40322" xmlns:xlink="http://www.w3.org/1999/xlink" width="200" height="200"><defs><style type="text/css"></style></defs><path d="M448 718.933333H219.733333L174.933333 192h228.266667zM576 718.933333h228.266667L849.066667 192H620.8z" fill="#C73333" p-id="40323"></path><path d="M616.533333 832h-209.066666l-32-125.866667h273.066666z" fill="#C73333" p-id="40324"></path><path d="M264.533333 480h497.066667v238.933333H264.533333z" fill="#C73333" p-id="40325"></path><path d="M458.666667 949.333333H38.4c-21.333333 0-38.4-17.066667-38.4-38.4V115.2c0-21.333333 17.066667-38.4 38.4-38.4h420.266667c21.333333 0 38.4 17.066667 38.4 38.4v795.733333c2.133333 21.333333-17.066667 38.4-38.4 38.4zM44.8 904.533333h409.6V119.466667H44.8v785.066666zM985.6 949.333333H565.333333c-21.333333 0-38.4-17.066667-38.4-38.4V115.2c0-21.333333 17.066667-38.4 38.4-38.4h420.266667c21.333333 0 38.4 17.066667 38.4 38.4v795.733333c0 21.333333-17.066667 38.4-38.4 38.4z m-416-44.8h409.6V119.466667H569.6v785.066666z" fill="#C73333" p-id="40326"></path></svg>