<?xml version="1.0" standalone="no"?><!DOCTYPE svg PUBLIC "-//W3C//DTD SVG 1.1//EN" "http://www.w3.org/Graphics/SVG/1.1/DTD/svg11.dtd"><svg t="1562317816507" class="icon" viewBox="0 0 1024 1024" version="1.1" xmlns="http://www.w3.org/2000/svg" p-id="40736" xmlns:xlink="http://www.w3.org/1999/xlink" width="200" height="200"><defs><style type="text/css"></style></defs><path d="M598.186667 172.416L333.909333 848.853333h68.266667l264.448-676.437333H598.186667z m-51.2 0L282.666667 848.853333h36.48l264.277333-676.437333h-36.522667z m-37.802667 0L244.949333 848.853333h18.858667l264.490667-676.437333h-19.114667z m-32.981333 0L211.712 848.853333h15.786667l264.277333-676.437333h-15.573333z m-21.333334 0L190.592 848.853333h8.490667L463.36 172.416h-8.533333z m-19.712 0L170.666667 848.853333h5.162666l264.533334-676.437333h-5.205334z m162.005334 199.338667l-1.877334 15.573333-1.024 14.762667v14.293333l0.853334 13.482667 1.834666 12.842666 2.474667 12.458667 3.541333 11.605333 4.138667 11.221334 4.992 10.581333 5.802667 9.941333 6.229333 9.514667 7.04 8.96 7.466667 8.490667 8.106666 7.893333 8.704 7.466667 9.130667 7.04 9.557333 6.4 9.941334 6.058666 10.154666 5.589334 10.581334 5.162666 10.965333 4.778667 11.221333 4.352 11.434667 4.181333 11.392 3.498667 11.605333 3.328 11.818667 2.901333 11.818667 2.517334 11.861333 2.261333 11.818667 2.090667 11.818666 1.621333 11.818667 1.450667-24.064 3.328-23.253333 3.968-22.186667 4.138666-21.162667 4.565334-20.48 4.992-19.541333 5.376-18.858667 5.589333-17.877333 6.016-17.194667 6.229333-16.384 6.656-15.786666 6.826667-15.146667 7.253333-14.293333 7.466667-13.653334 7.68-13.098666 7.893333-12.458667 8.32-12.032 8.277334-11.392 8.533333-11.008 8.874667-10.368 8.96-9.941333 9.088-9.557334 9.344-8.917333 9.344-8.704 9.514666-8.533333 9.813334-7.850667 9.685333-7.68 9.770667-7.509333 9.941333-7.253334 9.941333-6.826666 9.984-6.613334 9.941334-6.656 10.197333 12.842667-0.426667 13.098667-0.853333 12.842666-1.024 13.056-1.450667 13.098667-1.664 13.056-2.048 13.056-2.304 12.885333-2.474666 13.056-2.688 12.842667-3.114667 12.885333-3.541333 12.672-3.541334 12.629334-3.925333 12.458666-4.352 12.458667-4.352 12.202667-4.778667 12.245333-4.992 11.818667-5.376 11.818666-5.418666 11.648-5.802667 11.392-5.973333 11.178667-6.485334 11.008-6.4 10.581333-6.826666 10.581334-7.082667 10.197333-7.253333 9.941333-7.466667 9.514667-7.893333 9.386667-7.850667 8.874666-8.32 8.746667-8.533333 8.106667-8.704 5.76-6.186667 5.589333-6.442667 5.589333-6.4 5.418667-6.869333 5.162667-6.826667 5.205333-7.296 4.992-7.466666 4.778667-7.68 4.565333-8.106667 4.309333-8.277333 4.181334-8.704 3.754666-9.130667 1.834667-4.565333 1.664-4.778667 1.706667-4.949333 1.621333-4.992 1.450667-4.992 1.450666-5.162667 1.28-5.376 1.194667-5.418667 1.877333-9.130666 1.066667-9.344 0.597333-9.301334v-9.557333l-0.597333-9.386667-1.28-9.514666-2.048-9.301334-2.474667-9.386666-3.157333-9.088-3.712-9.130667-4.352-9.130667-4.992-8.704-5.589333-8.704-6.229334-8.32-6.826666-8.277333-7.466667-7.893333-8.106667-7.466667-8.704-7.466667-9.386666-6.826666-9.898667-6.656-10.581333-6.229334-11.221334-5.589333-12.032-5.418667-12.458666-4.778666-13.056-4.309334-13.696-3.968-14.293334-3.328-14.933333-2.688-15.573333-2.090666-16.213334-1.408-16.768-0.853334-17.408-0.213333-3.114666 16.213333z" fill="#DA251D" p-id="40737"></path></svg>