<?xml version="1.0" standalone="no"?><!DOCTYPE svg PUBLIC "-//W3C//DTD SVG 1.1//EN" "http://www.w3.org/Graphics/SVG/1.1/DTD/svg11.dtd"><svg t="1562317848543" class="icon" viewBox="0 0 1033 1024" version="1.1" xmlns="http://www.w3.org/2000/svg" p-id="41152" xmlns:xlink="http://www.w3.org/1999/xlink" width="201.7578125" height="200"><defs><style type="text/css"></style></defs><path d="M777.59981 318.086c1.118-0.929 2.239-1.858 3.357-2.785z" fill="" p-id="41153"></path><path d="M786.48081 417.013c0.835 8.978 13.691 38.531 14.633 48.642-17.623-4.029-33.413-9.433-49.561-10.911-24.084-2.205-48.442-2.589-72.644-2.006-27.398 0.659-53.741-0.784-76.839-17.998-3.005-2.241-7.681-2.244-16.054-4.471 4.524 11.942 7.712 20.375 12.009 31.731-8.549-5.998-16.387-10.666-23.179-16.541-5.013-4.337-10.623-9.607-12.576-15.573-7.006-21.398-27.229-27.533-42.447-39.631-23.313-18.537-36.725-43.52-39.03-72.945-0.473-5.99 8.894-16.457 15.724-18.652 24.477-7.868 49.505-16.146 74.879-18.646 54.399-5.363 103.789 11.979 147.53 43.605 14.855 10.742 25.993 26.599 38.995 39.959z" fill="#ED5306" p-id="41154"></path><path d="M813.27281 383.249c-1.378 0.609-2.754 1.219-4.13 1.83z" fill="" p-id="41155"></path><path d="M770.31581 367.805l-11.696-19.981c36.611 29.422 65.805 64.03 86.705 105.396 9.491 18.779 20.909 36.618 29.758 55.675 6.003 12.922 8.953 27.252 13.459 40.887 9.846 29.789 24.508 52.859 59.004 61.228 28.428 6.898 55.604 20.27 77.406 41.487 2.709 2.639 4.381 6.349 6.531 9.562l-2.591 2.659c-34.078-14.241-69.005-19.712-105.707-13.242-39.136 6.894-63.274 29.618-74.794 68.5-14.838-9.137-18.082-23.843-21.99-37.828-10.032-35.907-2.912-71.974-1.015-108.091 1.05-19.979-0.281-40.306-2.783-60.188-2.735-21.749-7.775-43.234-12.484-64.686z" fill="#F7A600" p-id="41156"></path><path d="M159.74681 606.33c10.868 12.883 21.946 23.274 29.668 35.739 16.835 27.169-8.973 68.998-47.527 69.446-43.469 0.508-86.949 0.004-130.422 0.275-8.221 0.051-11.454-2.571-11.413-11.137 0.263-56.388 0.331-112.777-0.052-169.164-0.071-10.298 4.422-12.071 13.302-11.998 40.891 0.32 81.783 0.066 122.676 0.188 19.66 0.06 39.358 14.531 44.93 32.58 5.69 18.426-1.177 38.112-17.622 50.779-1.951 1.505-3.623 3.369-3.541 3.292zM57.51481 669.701c19.02 0 35.709 0.163 52.393-0.062 10.949-0.149 17.62-6.368 19.151-16.835 1.474-10.077-7.398-20.449-18.11-20.944-14.962-0.689-29.996-0.575-44.958 0.126-2.928 0.141-7.813 4.31-8.089 7.004-0.989 9.639-0.387 19.441-0.387 30.714z m0.69-74.988c16.031 0 30.569 0.508 45.047-0.171 10.189-0.478 17.692-7.198 17.123-16.981-0.32-5.471-7.179-14.525-11.879-15.062-16.349-1.868-33.04-0.72-50.29-0.72l-0.001 32.933zM598.21381 519.596c15.622 0 31.023 0.134 46.423-0.055 7.842-0.094 9.21 4.942 9.234 10.945 0.101 24.403 0.043 48.812 0.043 74.955 3.142-2.125 6.98-3.948 9.82-6.773 13.111-13.054 25.486-26.89 39.12-39.348 4.818-4.402 12.337-7.518 18.874-8.027 14.935-1.172 30.021-0.371 48.151-0.371-3.359 4.735-5.039 7.775-7.339 10.242-14.294 15.348-28.35 30.949-43.295 45.642-6.268 6.163-6.407 11.118-2.097 17.903 15.379 24.217 30.589 48.539 45.748 72.893 2.322 3.733 4.029 7.846 7.183 14.076-19.205 0-35.855 0.593-52.399-0.446-3.81-0.237-8.135-5.493-10.742-9.423-10.313-15.552-20.034-31.49-30.437-48.016-15.335 12.463-28.386 23.794-24.545 44.666 1.822 9.898-2.367 14.177-12.892 13.385-10.7-0.807-21.509-0.38-32.261-0.094-6.869 0.183-10.346-2.049-10.322-9.527 0.183-59.383 0.171-118.768 0.256-178.151 0.006-0.798 0.51-1.599 1.477-4.47zM382.69681 711.709c-11.678 0-26.029 1.639-39.671-0.761-5.909-1.04-10.355-10.399-15.274-15.77-14.981 4.801-30.819 10.745-47.135 14.751-8.493 2.082-18.064 2.147-26.73 0.669-19.765-3.366-33.707-19.093-34.133-36.383-0.469-19.029 12.785-34.921 34.686-40.469 18.973-4.805 38.241-8.473 57.15-13.49 4.302-1.145 7.676-5.785 11.476-8.815-4.14-3.628-8.06-10.001-12.467-10.358-12.182-0.993-26.181-5.071-33.987 10.531-1.241 2.478-6.583 3.923-10.098 4.064-12.455 0.487-24.941 0.273-37.413 0.192-6.675-0.038-9.872-1.356-7.842-10.025 4.699-20.059 15.987-34.985 36.048-36.652 28.812-2.389 58.165-2.512 86.929 0.201 21.553 2.033 35.948 22.969 36.544 44.847 0.046 1.718 0.05 3.438 0.083 5.159 0.601 30.251 1.204 60.5 1.835 92.308z m-94.503-29.315c20.325 0.294 36.149-14.029 37.067-29.357 0.429-7.165-2.826-9.09-9.654-6.675-8.804 3.121-17.723 6.057-26.797 8.223-8.819 2.105-13.225 8.262-11.009 15.729 1.66 5.599 8.243 9.737 10.394 12.08zM470.40581 583.935c11.317-5.612 19.537-10.919 28.528-13.932 35.173-11.783 69.917 13.286 70.103 50.174 0.137 26.266-0.3 52.541 0.181 78.798 0.171 9.253-2.214 13.519-12.249 12.866-11.148-0.72-22.406-0.644-33.568-0.022-8.677 0.483-11.648-3.407-11.488-11.291 0.404-20.185 0.51-40.378 1.209-60.553 0.469-13.527-5.458-24.083-15.745-26.316-14.577-3.161-26.112 6.048-26.381 21.858-0.362 21.092-0.575 42.215 0.149 63.291 0.364 10.531-3.472 13.697-13.502 13.042-11.148-0.727-22.389-0.454-33.573-0.09-7.906 0.257-10.512-3.072-10.466-10.768 0.235-40.046 0.096-80.097 0.109-120.14 0.002-9.741 3.651-15.334 14.686-14.469 8.986 0.707 18.128 0.765 27.104-0.019 11.168-0.969 17.953 1.731 14.903 17.57z" fill="" p-id="41157"></path></svg>