<?xml version="1.0" standalone="no"?><!DOCTYPE svg PUBLIC "-//W3C//DTD SVG 1.1//EN" "http://www.w3.org/Graphics/SVG/1.1/DTD/svg11.dtd"><svg t="1562317857066" class="icon" viewBox="0 0 1494 1024" version="1.1" xmlns="http://www.w3.org/2000/svg" p-id="41325" xmlns:xlink="http://www.w3.org/1999/xlink" width="291.796875" height="200"><defs><style type="text/css"></style></defs><path d="M17.294737 481.015498c0-542.984502 617.706273-569.056827 617.706273-358.96679 0 14.642066-12.941697 89.458303-113.357933 89.458303C521.265217 211.223616 179.491047 103.911439 17.294737 481.015498z" fill="#E2B22B" p-id="41326"></path><path d="M871.446767 389.006642c-3.967528 33.535055-39.486347 71.793358-88.891513 73.871587s-67.259041-61.591144-205.650185-61.591144c-236.823616 0-365.107011 174.382288-376.442804 332.98893 0-144.720295 36.085609-493.768266 428.587454-493.768266 185.245756 0 250.143173 82.845756 242.397048 148.498893z" fill="#0D3873" p-id="41327"></path><path d="M321.660789 259.684133C348.488833 280.183026 363.319829 330.627306 340.081453 373.892251s-88.041328 37.785978-163.896679 153.6c-139.052399 212.262731-33.535055 406.199262 97.109963 496.507749-124.599262-73.871587-403.270849-294.163838-203.005166-631.59262 94.55941-159.362362 198.848708-172.870849 251.371218-132.723247z" fill="#0D3873" p-id="41328"></path><path d="M313.206176 783.378893L536.313483 560.271587 759.411342 783.378893l-223.097859 223.09786z" fill="#E2B22B" p-id="41329"></path><path d="M863.417246 814.004428v-18.231734l86.15203-95.315129c6.140221-6.707011 11.902583-12.563838 17.38155-17.476015h-93.80369v-17.664945h120.253874v17.664945l-94.464944 103.061254-10.107749 10.391144h107.123247v17.57048z" fill="#070001" p-id="41330"></path><path d="M1005.870383 823.734317H853.687357v-28.339483l88.513653-101.927675 1.228045-1.228045H863.417246V655.586716h139.713654v27.394834l-91.630997 103.911439h94.464945v36.841328z m-31.267897-134.707011l-1.228044 1.13358a233.233948 233.233948 0 0 0-16.720295 16.81476l-72.360148 80.200738 7.840591-8.029521 82.467896-90.119557z" fill="" p-id="41331"></path><path d="M1020.229055 814.004428V665.316605h74.438376a111.37417 111.37417 0 0 1 34.101845 3.967528 36.746863 36.746863 0 0 1 18.892989 14.169742 39.014022 39.014022 0 0 1 6.895941 22.482656 35.046494 35.046494 0 0 1-11.524723 26.639115 62.441328 62.441328 0 0 1-35.613285 13.697417 57.907011 57.907011 0 0 1 13.414023 7.368265 107.501107 107.501107 0 0 1 18.892989 19.743174l29.095203 40.525461h-28.339484l-22.199262-30.984502c-6.423616-8.879705-11.808118-15.681181-16.05904-20.593358a48.554982 48.554982 0 0 0-11.241329-9.446494 39.297417 39.297417 0 0 0-10.107749-4.061993 80.200738 80.200738 0 0 0-12.374908-0.566789h-25.78893v66.125461z m22.199262-83.034686h47.893727a81.995572 81.995572 0 0 0 23.805166-2.739484 25.03321 25.03321 0 0 0 13.036162-9.446494 22.293727 22.293727 0 0 0 4.534317-13.225092 21.254613 21.254613 0 0 0-8.690775-17.476015 44.304059 44.304059 0 0 0-27.300369-6.801476h-53.183763z" fill="#070001" p-id="41332"></path><path d="M1187.432007 823.734317h-51.95572l-25.03321-34.952029c-6.234686-8.59631-11.430258-15.114391-15.492251-19.932103a41.470111 41.470111 0 0 0-8.879705-7.746126 29.000738 29.000738 0 0 0-7.651661-3.022878 92.386716 92.386716 0 0 0-10.013284 0h-16.05904v66.125461H1010.78256V655.586716h84.168266a118.742435 118.742435 0 0 1 37.785978 4.534317 46.476753 46.476753 0 0 1 23.427306 17.94834 48.460517 48.460517 0 0 1 8.690775 28.339483 44.776384 44.776384 0 0 1-14.547602 33.62952 54.033948 54.033948 0 0 1-17.853874 10.863469 131.211808 131.211808 0 0 1 15.114391 17.19262l40.336531 56.112177z m-41.942436-19.459778h3.873063l-18.042805-25.033211A95.315129 95.315129 0 0 0 1114.693999 761.387454l-1.700369-1.228044c3.778598 4.534317 8.123985 10.202214 13.225092 17.19262l18.892989 27.016974z m-115.247232 0h2.645018l-2.645018-129.13358v129.13358z m95.504059-125.827307l3.495203 2.361624a31.173432 31.173432 0 0 1 12.374907 25.127675 31.551292 31.551292 0 0 1-6.423616 18.892989 33.346125 33.346125 0 0 1-3.400738 4.061993 34.479705 34.479705 0 0 0 4.817712-3.589668 25.694465 25.694465 0 0 0 8.40738-19.554244 28.906273 28.906273 0 0 0-5.290036-17.00369 26.733579 26.733579 0 0 0-13.791882-10.391143z m-73.304797 42.79262h37.785978a73.588192 73.588192 0 0 0 20.876752-2.267158 15.681181 15.681181 0 0 0 8.029521-5.384502 12.469373 12.469373 0 0 0 2.645018-7.651661 11.713653 11.713653 0 0 0-4.912177-9.446494 35.140959 35.140959 0 0 0-21.065683-5.006642h-43.453874v29.756457z" fill="" p-id="41333"></path><path d="M1309.291785 761.859779l22.293727 4.912177a64.897417 64.897417 0 0 1-25.127675 36.935793 75.005166 75.005166 0 0 1-44.304059 12.752768 87.946863 87.946863 0 0 1-44.115129-9.446495 62.819188 62.819188 0 0 1-25.883395-28.339483 91.253137 91.253137 0 0 1-8.879705-39.958672 79.256089 79.256089 0 0 1 10.013284-40.430996 64.802952 64.802952 0 0 1 28.339484-26.261255 92.764576 92.764576 0 0 1 40.808856-8.879705 75.571956 75.571956 0 0 1 42.320295 11.241329 59.512915 59.512915 0 0 1 23.805166 31.929151l-21.821402 4.534317a46.193358 46.193358 0 0 0-17.00369-23.521771 49.405166 49.405166 0 0 0-28.339484-7.368265 60.3631 60.3631 0 0 0-32.495941 8.123985 44.209594 44.209594 0 0 0-18.231734 22.010332 85.679705 85.679705 0 0 0 1.039114 61.685609 41.753506 41.753506 0 0 0 19.459779 21.065682 59.79631 59.79631 0 0 0 28.339483 7.084871 52.333579 52.333579 0 0 0 31.740222-9.446494 47.232472 47.232472 0 0 0 18.042804-28.622878z" fill="#070001" p-id="41334"></path><path d="M1262.059313 826.284871a98.243542 98.243542 0 0 1-49.027306-11.052399 73.021402 73.021402 0 0 1-29.850923-32.590406 102.02214 102.02214 0 0 1-9.446494-44.115129 89.836162 89.836162 0 0 1 11.241328-45.343173 74.816236 74.816236 0 0 1 32.684871-30.134318c29.378598-14.075277 68.39262-13.130627 92.764576 3.022879a69.431734 69.431734 0 0 1 27.772693 37.030258l3.495203 10.391144-40.808856 8.501845-2.928413-7.935055a37.785978 37.785978 0 0 0-13.225092-18.892989 52.333579 52.333579 0 0 0-49.877491 0.944649 34.38524 34.38524 0 0 0-14.358672 17.19262 71.415498 71.415498 0 0 0-4.534317 25.03321 73.588192 73.588192 0 0 0 5.290037 29.189668 32.401476 32.401476 0 0 0 15.114391 16.342436 48.082657 48.082657 0 0 0 49.877491-1.700369 36.841328 36.841328 0 0 0 13.697417-22.671587l2.267158-9.446494 41.753506 9.446494-2.928413 9.446494a74.721771 74.721771 0 0 1-29.000738 42.225831 85.01845 85.01845 0 0 1-49.877491 14.547601zM1212.654147 689.594096a55.261993 55.261993 0 0 0-11.052399 13.602952 70.092989 70.092989 0 0 0-8.690775 35.613284 80.956458 80.956458 0 0 0 7.935056 35.707749 53.183764 53.183764 0 0 0 17.098155 20.971218 53.939483 53.939483 0 0 1-14.642067-19.648709 96.070849 96.070849 0 0 1-1.133579-69.148339 54.695203 54.695203 0 0 1 10.485609-17.098155z" fill="" p-id="41335"></path><path d="M872.108021 1001.989668V845.650185H935.210604a82.845756 82.845756 0 0 1 30.984502 4.723247 38.447232 38.447232 0 0 1 18.231735 14.642066 36.935793 36.935793 0 0 1 6.612546 20.687823 33.62952 33.62952 0 0 1-5.856827 18.892989 41.281181 41.281181 0 0 1-17.664945 14.358672 43.737269 43.737269 0 0 1 23.427307 14.169741 36.369004 36.369004 0 0 1 8.312915 23.710701 43.453875 43.453875 0 0 1-5.006642 20.404428 40.147601 40.147601 0 0 1-12.280443 14.547602 55.261993 55.261993 0 0 1-18.892989 7.746125 120.820664 120.820664 0 0 1-27.205904 2.550554z m22.293727-90.686347h36.463469a85.868635 85.868635 0 0 0 21.160148-1.794834 23.521771 23.521771 0 0 0 12.847232-7.746125 21.538007 21.538007 0 0 0 4.250923-13.602952 24.560886 24.560886 0 0 0-3.967528-13.697417 20.404428 20.404428 0 0 0-11.619188-8.029521 97.676753 97.676753 0 0 0-25.41107-2.267158h-33.818451z m0 72.265683h41.753506a98.999262 98.999262 0 0 0 15.114391-0.75572 36.935793 36.935793 0 0 0 12.847232-4.250922 22.860517 22.860517 0 0 0 8.501845-8.690775 25.78893 25.78893 0 0 0 3.400738-13.225093 24.466421 24.466421 0 0 0-4.912177-15.208856 24.938745 24.938745 0 0 0-13.319557-9.446494 87.569004 87.569004 0 0 0-24.65535-2.645019h-38.825093zM1010.78256 1001.989668l64.614022-156.339483h23.899631l68.77048 156.339483H1143.033483l-19.554244-47.232472h-70.187454l-18.892989 47.232472z m48.554982-64.236162h56.678966l-17.664944-43.264945q-8.02952-19.743173-11.902583-32.495941a196.39262 196.39262 0 0 1-9.446495 29.850922zM1186.203962 1001.989668V845.650185H1209.158944l88.324723 122.804428v-122.804428h21.349078v156.339483h-22.766052l-88.324723-122.804428v122.804428zM1355.107283 1001.989668V845.650185h22.293727v77.461254l83.507011-77.461254h30.134318l-70.470849 63.291512 73.682657 93.047971h-29.378598l-59.890775-79.161624-27.489299 25.033211v54.222878z" fill="#070001" p-id="41336"></path></svg>